<?xml version="1.0" encoding="UTF-8"?>
<svg id="_Слой_1" data-name="Слой 1" xmlns="http://www.w3.org/2000/svg" version="1.1" viewBox="0 0 291.13 57">
  <defs>
    <style>
      .cls-1 {
        fill: #f06661;
      }

      .cls-1, .cls-2 {
        stroke-width: 0px;
      }

      .cls-2 {
        fill: #163348;
      }
    </style>
  </defs>
  <path class="cls-2" d="M90.933,12.85766v28.2h-6.924l-.335-3.854c-2.00131,2.95213-5.37084,4.67875-8.936,4.579-7.316,0-13.348-6.2-13.348-14.911,0-8.656,6.032-14.744,13.571-14.744,3.16761-.10784,6.21832,1.20248,8.321,3.574v-2.844h7.65099ZM83.785,26.93166c0-4.525-2.96-7.652-7.26-7.652s-7.261,3.183-7.261,7.652,2.96,7.65,7.261,7.65c4.244,0,7.26-3.072,7.26-7.65"/>
  <path class="cls-2" d="M93.926,26.93166c0-8.713,6.255-14.8,14.855-14.8,4.21958-.11267,8.27832,1.62126,11.114,4.748l-5.7,4.858c-1.30553-1.6109-3.28845-2.5197-5.361-2.457-4.188,0-7.037,3.072-7.037,7.652s2.793,7.65,7.093,7.65c2.22652.07073,4.33418-1.00367,5.585-2.847l5.752,4.914c-2.84029,3.35936-7.05126,5.24876-11.449,5.137-8.6,0-14.855-6.143-14.855-14.854"/>
  <path class="cls-2" d="M150.12199,12.85766v42.164h-7.651v-16.811c-2.10225,2.37224-5.15315,3.68301-8.321,3.575-7.539,0-13.571-6.143-13.571-14.8s6.032-14.856,13.34801-14.856c3.54793-.08185,6.90172,1.61606,8.936,4.524l.33501-3.8,6.92398.004ZM142.974,26.93166c0-4.58-3.01601-7.652-7.25999-7.652-4.3,0-7.261,3.183-7.261,7.707,0,4.468,2.96001,7.65,7.261,7.65s7.25999-3.182,7.25999-7.7"/>
  <path class="cls-2" d="M180.7,12.85766v28.2h-6.98l-.336-3.406c-1.95796,2.68318-5.11282,4.22863-8.433,4.131-5.976,0-10.61-4.244-10.61-10.834V12.85766h7.70599v16.643c-.13248,2.70572,1.95354,5.00653,4.65926,5.139.17818.00872.35669.00772.53474-.003,3.03438.1392,5.60707-2.2078,5.74626-5.24218.00351-.07656.00543-.15318.00574-.22982V12.85766h7.707Z"/>
  <path class="cls-2" d="M184.536,4.76066c-.03792-2.59104,2.03181-4.72223,4.62285-4.76014,2.59105-.03791,4.72223,2.03181,4.76015,4.62285.00067.04576.00067.09153,0,.13729-.03792,2.59104-2.1691,4.66076-4.76015,4.62285-2.53758-.03713-4.58572-2.08526-4.62285-4.62285M193.08099,41.06066h-7.707V12.86066h7.707v28.2Z"/>
  <path class="cls-2" d="M217.42101,12.74666l-1.95399,7.314c-1.08498-.43025-2.2399-.65703-3.407-.669-3.46201,0-6.535,2.179-6.535,6.2v15.47h-7.707V12.86166h6.98199l.33501,3.909c1.85901-2.91459,5.08815-4.66615,8.545-4.635,1.27255-.00483,2.53697.20303,3.741.615"/>
  <path class="cls-2" d="M218.41701,4.76066c0-2.59104,2.10045-4.6915,4.6915-4.6915s4.6915,2.10046,4.6915,4.6915c-.03792,2.59104-2.1691,4.66076-4.76015,4.62285-2.53758-.03713-4.58572-2.08526-4.62285-4.62285M226.96201,41.06066h-7.707V12.86066h7.707v28.2Z"/>
  <path class="cls-2" d="M258.89999,22.96866v18.1h-7.651v-16.427c.15868-2.80443-1.98613-5.20651-4.79056-5.3652-.20868-.01181-.41789-.01074-.62643.0032-3.07201,0-6.423,1.844-6.423,5.473v16.309h-7.709V12.85866h6.92599l.334,3.462c2.14273-2.73831,5.46057-4.29364,8.936-4.189,6.255,0,11,4.244,11,10.834"/>
  <path class="cls-2" d="M291.129,12.85766v28.594c0,8.6-5.58499,14.3-14.63199,14.3-4.7002-.02691-9.29385-1.40275-13.23499-3.964l3.40601-5.866c2.69324,1.87762,5.87708,2.92604,9.159,3.016,4.79999,0,7.60001-2.68,7.60001-7.482v-3.467c-2.03357,2.48889-5.1073,3.89276-8.32001,3.8-7.31699,0-13.34799-6.2-13.34799-14.911,0-8.656,6.03101-14.744,13.57001-14.744,3.04474-.09257,5.98679,1.10604,8.10001,3.3v-2.576h7.69995ZM284.14801,26.93166c0-4.525-2.95901-7.652-7.26001-7.652s-7.26001,3.183-7.26001,7.652,2.95901,7.65,7.26001,7.65c4.245,0,7.26001-3.072,7.26001-7.65"/>
  <path class="cls-1" d="M44.1,20.60766l-15.741-15.739c-3.06517-3.06684-8.03615-3.06819-11.10299-.00301-.00101.001-.00201.00201-.00301.00301l-6.812,6.811,4.242,4.243,6.817-6.814c.7337-.69841,1.8863-.69841,2.62,0l15.737,15.741c.72175.72461.72175,1.89639,0,2.621l-15.742,15.741c-.73357.69778-1.88543.69778-2.619,0l-6.813-6.811-4.242,4.242,6.811,6.812c3.06674,3.06684,8.03898,3.06692,11.10582.00018.00006-.00006.00012-.00012.00018-.00018l15.742-15.742c3.05741-3.0684,3.05741-8.0316,0-11.1"/>
  <path class="cls-1" d="M18.525,32.55766l4.242,4.242,10.64-10.639-10.64-10.64-4.242,4.242,3.4,3.4H0v6h21.922l-3.397,3.395Z"/>
</svg>