<svg xmlns="http://www.w3.org/2000/svg" xmlns:xlink="http://www.w3.org/1999/xlink" width="704.728" height="81.443" viewBox="0 0 704.728 81.443"><defs><clipPath id="a"><rect width="613.78" height="80.941" fill="none"/></clipPath></defs><g transform="translate(-545.529 -215.499)"><g transform="translate(636.477 216)"><g transform="translate(0 0)" clip-path="url(#a)"><path d="M42.27,39.631c0,12.546-8.63,21.334-19.1,21.334a14.961,14.961,0,0,1-12.7-6.391l-.479,5.354H0V0H11.027V23.491a15.2,15.2,0,0,1,11.826-4.953c10.786,0,19.417,8.629,19.417,21.093M31,39.713c0-6.553-4.235-10.947-10.387-10.947S10.227,33.16,10.227,39.713c0,6.71,4.317,10.945,10.389,10.945C26.768,50.658,31,46.264,31,39.713" transform="translate(0 0)" fill="#163348"/><path d="M70.087,13.683V54.034H60.1l-.481-4.873a14.413,14.413,0,0,1-12.065,5.912c-8.55,0-15.182-6.072-15.182-15.5V13.683H43.4V37.495c0,4.713,3.355,7.35,7.431,7.35s8.23-2.8,8.23-7.829V13.683Z" transform="translate(13.944 5.893)" fill="#163348"/><path d="M61.161,49.873,64.6,41.8c3.515,2.957,10.228,4.554,15.582,4.554,3.195,0,6.951-.638,6.951-3.995,0-2.318-2.956-2.956-7.911-3.836-9.908-1.757-16.3-3.756-16.3-12.146,0-10.387,9.668-13.423,17.977-13.423a27.976,27.976,0,0,1,15.981,4.714l-3.437,7.991a22.636,22.636,0,0,0-12.625-3.676c-4.634,0-6.551,1.358-6.551,3.756,0,1.837,1.279,2.4,5.993,3.276,9.906,1.757,17.818,3.515,17.818,12.543,0,8.871-7.672,13.824-18.459,13.824-6.151,0-14.141-2.077-18.457-5.513" transform="translate(26.344 5.581)" fill="#163348"/><path d="M89.277,7.606a6.712,6.712,0,1,1,13.425,0,6.713,6.713,0,0,1-13.425,0M101.5,59.542H90.476V19.191H101.5Z" transform="translate(38.455 0.384)" fill="#163348"/><path d="M141.472,28.458V54.347H130.526V30.855c0-4.555-3.036-7.672-7.75-7.672-4.4,0-9.19,2.637-9.19,7.83V54.347H102.559V14h9.909l.479,4.953a15.631,15.631,0,0,1,12.784-5.992c8.949,0,15.741,6.072,15.741,15.5" transform="translate(44.176 5.581)" fill="#163348"/><path d="M154.131,45.877a13.932,13.932,0,0,0,9.669-3.756l7.192,6.872a23.666,23.666,0,0,1-16.541,6.391c-12.545,0-21.893-8.467-21.893-21.334,0-12.224,8.47-21.093,21.093-21.093,13.425,0,19.737,9.429,19.737,19.1a39.91,39.91,0,0,1-.559,5.992H143.9c1.2,5.035,4.874,7.83,10.227,7.83M143.9,30.376h18.778c-.4-4.714-3.676-7.832-9.11-7.832-5.113,0-8.55,2.957-9.669,7.832" transform="translate(57.098 5.581)" fill="#163348"/><path d="M162.216,49.873l3.435-8.071c3.515,2.957,10.228,4.554,15.582,4.554,3.195,0,6.951-.638,6.951-3.995,0-2.318-2.956-2.956-7.91-3.836-9.908-1.757-16.3-3.756-16.3-12.146,0-10.387,9.667-13.423,17.977-13.423a27.975,27.975,0,0,1,15.981,4.714L194.5,25.662a22.637,22.637,0,0,0-12.625-3.676c-4.634,0-6.551,1.358-6.551,3.756,0,1.837,1.279,2.4,5.993,3.276,9.906,1.757,17.818,3.515,17.818,12.543,0,8.871-7.672,13.824-18.459,13.824-6.151,0-14.141-2.077-18.457-5.513" transform="translate(69.872 5.581)" fill="#163348"/><path d="M188.88,49.873l3.435-8.071c3.515,2.957,10.228,4.554,15.582,4.554,3.195,0,6.951-.638,6.951-3.995,0-2.318-2.956-2.956-7.911-3.836-9.908-1.757-16.3-3.756-16.3-12.146,0-10.387,9.667-13.423,17.977-13.423A27.976,27.976,0,0,1,224.6,17.671l-3.437,7.991a22.636,22.636,0,0,0-12.625-3.676c-4.634,0-6.551,1.358-6.551,3.756,0,1.837,1.279,2.4,5.993,3.276,9.906,1.757,17.818,3.515,17.818,12.543,0,8.871-7.672,13.824-18.459,13.824-6.151,0-14.141-2.077-18.457-5.513" transform="translate(81.357 5.581)" fill="#163348"/><path d="M272.76,39.631c0,12.546-8.63,21.334-19.1,21.334a14.961,14.961,0,0,1-12.7-6.391l-.479,5.354H230.49V0h11.027V23.491a15.2,15.2,0,0,1,11.826-4.953c10.786,0,19.417,8.629,19.417,21.093m-11.267.082c0-6.553-4.235-10.947-10.387-10.947s-10.389,4.394-10.389,10.947c0,6.71,4.317,10.945,10.389,10.945,6.152,0,10.387-4.394,10.387-10.945" transform="translate(99.28 0)" fill="#163348"/><path d="M304.21,14V54.347H294.3l-.479-5.514a14.938,14.938,0,0,1-12.785,6.551c-10.467,0-19.1-8.868-19.1-21.334,0-12.384,8.63-21.093,19.417-21.093a15.218,15.218,0,0,1,11.905,5.113V14ZM293.983,34.132c0-6.473-4.235-10.947-10.387-10.947s-10.388,4.554-10.388,10.947,4.235,10.945,10.388,10.945c6.072,0,10.387-4.394,10.387-10.945" transform="translate(112.828 5.581)" fill="#163348"/><path d="M334.747,28.458V54.347H323.8V30.855c0-4.555-3.036-7.672-7.75-7.672-4.4,0-9.19,2.637-9.19,7.83V54.347H295.834V14h9.909l.479,4.953a15.631,15.631,0,0,1,12.784-5.992c8.949,0,15.741,6.072,15.741,15.5" transform="translate(127.426 5.581)" fill="#163348"/><path d="M343.785,44.346l-5.514,5.833v9.749H327.245V0h11.027V36.357l14.7-16.38H366.8l-16.22,17.18,16.781,22.772H354.573Z" transform="translate(140.956 0)" fill="#163348"/><path d="M356.284,7.606a6.712,6.712,0,1,1,13.425,0,6.713,6.713,0,0,1-13.425,0M368.51,59.542H357.483V19.191H368.51Z" transform="translate(153.464 0.384)" fill="#163348"/><path d="M408.479,28.458V54.347H397.533V30.855c0-4.555-3.036-7.672-7.75-7.672-4.4,0-9.19,2.637-9.19,7.83V54.347H369.566V14h9.909l.479,4.953a15.631,15.631,0,0,1,12.784-5.992c8.949,0,15.741,6.072,15.741,15.5" transform="translate(159.185 5.581)" fill="#163348"/><path d="M441.649,14v40.91c0,12.3-7.989,20.454-20.933,20.454a35.107,35.107,0,0,1-18.937-5.671l4.875-8.391a24.074,24.074,0,0,0,13.1,4.315c6.871,0,10.867-3.836,10.867-10.706V49.953a14.826,14.826,0,0,1-11.905,5.431c-10.467,0-19.1-8.868-19.1-21.334,0-12.384,8.63-21.093,19.417-21.093a15.442,15.442,0,0,1,11.586,4.714V14Zm-9.986,20.136c0-6.473-4.235-10.947-10.387-10.947s-10.389,4.554-10.389,10.947,4.235,10.945,10.389,10.945c6.072,0,10.387-4.394,10.387-10.945" transform="translate(172.131 5.581)" fill="#163348"/></g></g><g transform="translate(546.029 215.999)"><path d="M0,66.691V57.072H64.457v9.619ZM46.795,49.757V0h9.374V49.757Zm-19.252,0V11.517h9.372V49.756Zm-19.254,0V20.322h9.373V49.756Z" transform="translate(0 0)" fill="#75c9c4"/><path d="M64.957,67.191H-.5V56.572H64.957ZM.5,66.191H63.957V57.572H.5ZM56.669,50.257H46.295V-.5H56.669Zm-9.374-1h8.374V.5H47.295Zm-9.88,1H27.043V11.017H37.415Zm-9.372-1h8.372V12.017H28.043Zm-9.881,1H7.789V19.822H18.162Zm-9.373-1h8.373V20.822H8.789Z" transform="translate(0 0)" fill="rgba(0,0,0,0)"/></g></g></svg>