<?xml version="1.0" encoding="UTF-8"?>
<svg id="_Слой_1" data-name="Слой 1" xmlns="http://www.w3.org/2000/svg" version="1.1" viewBox="0 0 509 614">
  <defs>
    <style>
      .cls-1 {
        fill: #f06661;
      }

      .cls-1, .cls-2, .cls-3, .cls-4, .cls-5, .cls-6, .cls-7 {
        stroke-width: 0px;
      }

      .cls-8 {
        isolation: isolate;
      }

      .cls-2 {
        fill: #000819;
      }

      .cls-3 {
        fill: none;
      }

      .cls-4 {
        fill: #a7fff8;
      }

      .cls-5 {
        fill: #75ccd0;
      }

      .cls-6 {
        fill: #fff;
      }

      .cls-7 {
        fill: #eaf0f4;
      }
    </style>
  </defs>
  <path class="cls-2" d="M0,0h509v614H0V0Z"/>
  <path class="cls-3" d="M0,0h509v614H0V0Z"/>
  <g class="cls-8">
    <g class="cls-8">
      <path class="cls-5" d="M105.8,104l.8-1.4c.7.5,2.2,1,3.5,1s2.5-.3,2.5-1.4-1.2-1.1-2.6-1.4c-2.5-.5-3.9-1-3.9-2.9s2.3-3.1,4.2-3.1,2.9.4,3.8,1.1l-.8,1.4c-.7-.5-1.8-.8-3-.8s-2.3.5-2.3,1.4.4.9,2.3,1.3c2.3.4,4.2.8,4.2,3s-1.8,3.2-4.4,3.2-3.3-.5-4.3-1.3Z"/>
      <path class="cls-5" d="M121.6,103.6c1.1,0,2.2-.4,2.9-1.2l1.1,1.3c-1,1-2.4,1.5-4,1.5-3,0-5.3-2.1-5.3-5.3s2.1-5.2,5.2-5.2,4.7,2.3,4.7,4.6,0,.9-.1,1.4h-7.9c.3,1.8,1.6,2.9,3.4,2.9ZM118.2,99.1h6.2c0-1.5-1-2.7-2.9-2.7s-3,1.1-3.3,2.7Z"/>
      <path class="cls-5" d="M135.8,104.2c-.6.6-1.5,1-2.9,1-2.3,0-3.6-1.2-3.6-3.6v-5.1h-2v-1.6h2v-3.1h1.8v3.1h4.2v1.6h-4.2v5.1c0,1.3.6,1.9,1.8,1.9s1.3-.2,2-.9l.9,1.5Z"/>
      <path class="cls-5" d="M138.6,98.6v-7.6h2v7.6c0,3.5,1,4.8,3.8,4.8s3.8-1.3,3.8-4.8v-7.6h2v7.6c0,3.8-1.3,6.6-5.8,6.6s-5.8-2.7-5.8-6.6Z"/>
      <path class="cls-5" d="M159.9,95l-.6,1.7c-.3-.1-.7-.2-1.1-.2-1.5,0-3,1-3,3v5.6h-1.8v-10h1.5v1.6c.9-1.2,2.1-1.9,3.6-1.9s1,0,1.4.2Z"/>
      <path class="cls-5" d="M161.9,90h1.8v15h-1.8v-15Z"/>
    </g>
    <g class="cls-8">
      <path class="cls-7" d="M166.9,99.3c0-4.1,2.2-7.2,5.4-8.6l.7,1.8c-2.5,1.1-4.1,3.6-4.1,6.8s1.6,5.7,4.1,6.8l-.7,1.8c-3.3-1.4-5.4-4.5-5.4-8.6Z"/>
      <path class="cls-7" d="M175,90.5h1.9l-.2,5.3h-1.6l-.2-5.3Z"/>
      <path class="cls-7" d="M188.6,98.8v6.2h-1.8v-6c0-1.6-1-2.6-2.6-2.6s-3,.9-3,2.8v5.8h-1.8v-15h1.8v6.3c.7-1,1.9-1.6,3.3-1.6,2.4,0,4,1.6,4,4.1Z"/>
      <path class="cls-7" d="M198.8,104.2c-.6.6-1.5,1-2.9,1-2.3,0-3.6-1.2-3.6-3.6v-5.1h-2v-1.6h2v-3.1h1.8v3.1h4.2v1.6h-4.2v5.1c0,1.3.6,1.9,1.8,1.9s1.3-.2,2-.9l.9,1.5Z"/>
      <path class="cls-7" d="M208.5,104.2c-.6.6-1.5,1-2.9,1-2.3,0-3.6-1.2-3.6-3.6v-5.1h-2v-1.6h2v-3.1h1.8v3.1h4.2v1.6h-4.2v5.1c0,1.3.6,1.9,1.8,1.9s1.3-.2,2-.9l.9,1.5Z"/>
      <path class="cls-7" d="M221.4,100c0,3.1-2.3,5.2-5.2,5.2s-2.6-.5-3.3-1.4v6.2h-1.8v-15h1.5v1.5c.9-1.1,2.1-1.8,3.7-1.8,2.8,0,5.1,2.2,5.1,5.3ZM219.5,100c0-2.1-1.4-3.6-3.4-3.6s-3.4,1.4-3.4,3.6,1.4,3.6,3.4,3.6,3.4-1.4,3.4-3.6Z"/>
      <path class="cls-7" d="M223.2,104l.8-1.4c.7.5,2.2,1,3.5,1s2.5-.3,2.5-1.4-1.2-1.1-2.6-1.4c-2.5-.5-3.9-1-3.9-2.9s2.3-3.1,4.2-3.1,2.9.4,3.8,1.1l-.8,1.4c-.7-.5-1.8-.8-3-.8s-2.3.5-2.3,1.4.4.9,2.3,1.3c2.3.4,4.2.8,4.2,3s-1.8,3.2-4.4,3.2-3.3-.5-4.3-1.3Z"/>
      <path class="cls-7" d="M234.3,96c0-.7.6-1.3,1.3-1.3s1.3.6,1.3,1.3-.6,1.3-1.3,1.3-1.3-.6-1.3-1.3ZM234.3,104c0-.7.6-1.3,1.3-1.3s1.3.6,1.3,1.3-.6,1.3-1.3,1.3-1.3-.6-1.3-1.3Z"/>
      <path class="cls-7" d="M246.8,90h2l-7.8,16h-2l7.8-16Z"/>
      <path class="cls-7" d="M257.9,90h2l-7.8,16h-2l7.8-16Z"/>
      <path class="cls-7" d="M262.1,92.2c0-.7.5-1.2,1.2-1.2s1.2.5,1.2,1.2-.5,1.2-1.2,1.2-1.2-.5-1.2-1.2ZM264.2,105h-1.8v-10h1.8v10Z"/>
      <path class="cls-7" d="M276.8,98.8v6.2h-1.8v-6c0-1.5-1-2.6-2.6-2.6s-3,.9-3,2.8v5.8h-1.8v-10h1.5v1.5c.8-1.1,2.1-1.8,3.5-1.8,2.3,0,4.1,1.7,4.1,4.1Z"/>
      <path class="cls-7" d="M288.9,95l-4.2,10h-2l-4.2-10h2l3.3,8,3.2-8h2Z"/>
      <path class="cls-7" d="M294.9,103.6c1.1,0,2.2-.4,2.9-1.2l1.1,1.3c-1,1-2.4,1.5-4,1.5-3,0-5.3-2.1-5.3-5.3s2.1-5.2,5.2-5.2,4.7,2.3,4.7,4.6,0,.9-.1,1.4h-7.9c.3,1.8,1.6,2.9,3.4,2.9ZM291.5,99.1h6.2c0-1.5-1-2.7-2.9-2.7s-3,1.1-3.3,2.7Z"/>
      <path class="cls-7" d="M311.3,98.8v6.2h-1.8v-6c0-1.5-1-2.6-2.6-2.6s-3,.9-3,2.8v5.8h-1.8v-10h1.5v1.5c.8-1.1,2.1-1.8,3.5-1.8,2.3,0,4.1,1.7,4.1,4.1Z"/>
      <path class="cls-7" d="M321.5,104.2c-.6.6-1.5,1-2.9,1-2.3,0-3.6-1.2-3.6-3.6v-5.1h-2v-1.6h2v-3.1h1.8v3.1h4.2v1.6h-4.2v5.1c0,1.3.6,1.9,1.8,1.9s1.3-.2,2-.9l.9,1.5Z"/>
      <path class="cls-7" d="M322.8,100c0-3.1,2.2-5.3,5.3-5.3s5.3,2.2,5.3,5.3-2.2,5.3-5.3,5.3-5.3-2.2-5.3-5.3ZM331.4,100c0-2.1-1.4-3.6-3.4-3.6s-3.4,1.4-3.4,3.6,1.4,3.6,3.4,3.6,3.4-1.4,3.4-3.6Z"/>
      <path class="cls-7" d="M342.4,95l-.6,1.7c-.3-.1-.7-.2-1.1-.2-1.5,0-3,1-3,3v5.6h-1.8v-10h1.5v1.6c.9-1.2,2.1-1.9,3.6-1.9s1,0,1.4.2Z"/>
      <path class="cls-7" d="M353.6,95l-5.7,14h-1.8l1.6-4-4.3-10h2l3.2,7.7,3.1-7.7h2Z"/>
      <path class="cls-7" d="M361,98.6v1.6h-6v-1.6h6Z"/>
    </g>
    <g class="cls-8">
      <path class="cls-7" d="M109.5,125h3.6v1.6h-3.6v8.4h-1.8v-8.4h-2.2v-1.6h2.2v-1.7c0-2.3,1.2-3.6,3.6-3.6s1.8.2,2.5.7l-.8,1.4c-.4-.3-1-.5-1.7-.5-1.3,0-1.8.6-1.8,1.9v1.7Z"/>
      <path class="cls-7" d="M123.5,128.8v6.2h-1.5v-1.6c-1,1.2-2.5,1.9-3.9,1.9s-3.5-1.1-3.5-3.2,2.1-3.2,4-3.2,2.1.1,3.1.4v-.5c0-1.6-.9-2.4-2.6-2.4s-2.3.3-3.2,1.1l-.8-1.4c1-.8,2.5-1.4,4.2-1.4,2.6,0,4.1,1.4,4.1,4.1ZM121.7,130.8c-.9-.3-2-.4-2.9-.4-1.4,0-2.5.5-2.5,1.7s.8,1.6,2,1.6,3.4-1.1,3.4-2.8Z"/>
      <path class="cls-7" d="M126.1,130c0-3.1,2.3-5.3,5.3-5.3s2.9.5,3.8,1.5l-1.2,1.3c-.5-.7-1.5-1.1-2.6-1.1-2,0-3.4,1.4-3.4,3.6s1.4,3.6,3.4,3.6,1.9-.4,2.6-1.2l1.2,1.3c-1,1-2.3,1.5-3.8,1.5-3,0-5.3-2.2-5.3-5.3Z"/>
      <path class="cls-7" d="M147.4,132.1h-2.2v2.9h-1.9v-2.9h-6.3v-1.5l5-9.2h2.2l-4.8,8.9h3.9v-3.5h1.9v3.5h2.2v1.8Z"/>
      <path class="cls-7" d="M149.5,134c0-.7.5-1.3,1.3-1.3s1.3.6,1.3,1.3-.6,1.3-1.3,1.3-1.3-.6-1.3-1.3Z"/>
      <path class="cls-7" d="M161.7,125l-.6,1.7c-.3-.1-.7-.2-1.1-.2-1.5,0-3,1-3,3v5.6h-1.8v-10h1.5v1.6c.9-1.2,2.1-1.9,3.6-1.9s1,0,1.4.2Z"/>
      <path class="cls-7" d="M167.7,133.6c1.1,0,2.2-.4,2.9-1.2l1.1,1.3c-1,1-2.4,1.5-4,1.5-3,0-5.3-2.1-5.3-5.3s2.1-5.2,5.2-5.2,4.7,2.3,4.7,4.6,0,.9-.1,1.4h-7.9c.3,1.8,1.6,2.9,3.4,2.9ZM164.3,129.1h6.2c0-1.5-1-2.7-2.9-2.7s-3,1.1-3.3,2.7Z"/>
      <path class="cls-7" d="M174.1,134l.8-1.4c.7.5,2.2,1,3.5,1s2.5-.3,2.5-1.4-1.2-1.1-2.6-1.4c-2.5-.5-3.9-1-3.9-2.9s2.3-3.1,4.2-3.1,2.9.4,3.8,1.1l-.8,1.4c-.7-.5-1.8-.8-3-.8s-2.3.5-2.3,1.4.4.9,2.3,1.3c2.3.4,4.2.8,4.2,3s-1.8,3.2-4.4,3.2-3.3-.5-4.3-1.3Z"/>
      <path class="cls-7" d="M192.3,134.2c-.6.6-1.5,1-2.9,1-2.3,0-3.6-1.2-3.6-3.6v-5.1h-2v-1.6h2v-3.1h1.8v3.1h4.2v1.6h-4.2v5.1c0,1.3.6,1.9,1.8,1.9s1.3-.2,2-.9l.9,1.5Z"/>
      <path class="cls-7" d="M203.8,120v15h-1.5v-1.5c-.9,1.1-2.1,1.8-3.7,1.8-2.8,0-5.1-2.2-5.1-5.3s2.3-5.2,5.2-5.2,2.6.5,3.3,1.4v-6.2h1.8ZM202.3,130c0-2.2-1.4-3.6-3.4-3.6s-3.4,1.4-3.4,3.6,1.4,3.6,3.4,3.6,3.4-1.4,3.4-3.6Z"/>
      <path class="cls-7" d="M217.3,130c0,3.1-2.3,5.3-5.1,5.3s-2.8-.7-3.5-1.8v1.5h-1.6v-15h1.8v6.2c.7-.9,1.9-1.4,3.3-1.4,2.9,0,5.2,2.1,5.2,5.2ZM215.5,130c0-2.1-1.4-3.6-3.4-3.6s-3.4,1.4-3.4,3.6,1.4,3.6,3.4,3.6,3.4-1.4,3.4-3.6Z"/>
      <path class="cls-7" d="M219.4,134c0-.7.5-1.3,1.3-1.3s1.3.6,1.3,1.3-.6,1.3-1.3,1.3-1.3-.6-1.3-1.3Z"/>
      <path class="cls-7" d="M225.1,122.2c0-.7.5-1.2,1.2-1.2s1.2.5,1.2,1.2-.5,1.2-1.2,1.2-1.2-.5-1.2-1.2ZM227.2,135h-1.8v-10h1.8v10Z"/>
      <path class="cls-7" d="M229.9,130c0-3.1,2.2-5.3,5.3-5.3s5.3,2.2,5.3,5.3-2.2,5.3-5.3,5.3-5.3-2.2-5.3-5.3ZM238.6,130c0-2.1-1.4-3.6-3.4-3.6s-3.4,1.4-3.4,3.6,1.4,3.6,3.4,3.6,3.4-1.4,3.4-3.6Z"/>
      <path class="cls-7" d="M249.9,120h2l-7.8,16h-2l7.8-16Z"/>
      <path class="cls-7" d="M260.6,125l-.6,1.7c-.3-.1-.7-.2-1.1-.2-1.5,0-3,1-3,3v5.6h-1.8v-10h1.5v1.6c.9-1.2,2.1-1.9,3.6-1.9s1,0,1.4.2Z"/>
      <path class="cls-7" d="M266.5,133.6c1.1,0,2.2-.4,2.9-1.2l1.1,1.3c-1,1-2.4,1.5-4,1.5-3,0-5.3-2.1-5.3-5.3s2.1-5.2,5.2-5.2,4.7,2.3,4.7,4.6,0,.9-.1,1.4h-7.9c.3,1.8,1.6,2.9,3.4,2.9ZM263.1,129.1h6.2c0-1.5-1-2.7-2.9-2.7s-3,1.1-3.3,2.7Z"/>
      <path class="cls-7" d="M273,134l.8-1.4c.7.5,2.2,1,3.5,1s2.5-.3,2.5-1.4-1.2-1.1-2.6-1.4c-2.5-.5-3.9-1-3.9-2.9s2.3-3.1,4.2-3.1,2.9.4,3.8,1.1l-.8,1.4c-.7-.5-1.8-.8-3-.8s-2.3.5-2.3,1.4.4.9,2.3,1.3c2.3.4,4.2.8,4.2,3s-1.8,3.2-4.4,3.2-3.3-.5-4.3-1.3Z"/>
      <path class="cls-7" d="M291.2,134.2c-.6.6-1.5,1-2.9,1-2.3,0-3.6-1.2-3.6-3.6v-5.1h-2v-1.6h2v-3.1h1.8v3.1h4.2v1.6h-4.2v5.1c0,1.3.6,1.9,1.8,1.9s1.3-.2,2-.9l.9,1.5Z"/>
      <path class="cls-7" d="M300.6,120h2l-7.8,16h-2l7.8-16Z"/>
      <path class="cls-7" d="M320.6,128.8v6.2h-1.8v-6c0-1.6-.9-2.6-2.4-2.6s-2.9,1-2.9,2.8v5.8h-1.8v-6c0-1.6-.9-2.6-2.4-2.6s-2.9,1-2.9,2.8v5.8h-1.8v-10h1.5v1.5c.8-1.1,2-1.8,3.4-1.8s2.7.8,3.4,2c.7-1.2,2.1-2,3.6-2,2.3,0,3.9,1.7,3.9,4.1Z"/>
      <path class="cls-7" d="M323.1,130c0-3.1,2.2-5.3,5.3-5.3s5.3,2.2,5.3,5.3-2.2,5.3-5.3,5.3-5.3-2.2-5.3-5.3ZM331.8,130c0-2.1-1.4-3.6-3.4-3.6s-3.4,1.4-3.4,3.6,1.4,3.6,3.4,3.6,3.4-1.4,3.4-3.6Z"/>
      <path class="cls-7" d="M343.4,134.2c-.6.6-1.5,1-2.9,1-2.3,0-3.6-1.2-3.6-3.6v-5.1h-2v-1.6h2v-3.1h1.8v3.1h4.2v1.6h-4.2v5.1c0,1.3.6,1.9,1.8,1.9s1.3-.2,2-.9l.9,1.5Z"/>
      <path class="cls-7" d="M344.7,130c0-3.1,2.2-5.3,5.3-5.3s5.3,2.2,5.3,5.3-2.2,5.3-5.3,5.3-5.3-2.2-5.3-5.3ZM353.3,130c0-2.1-1.4-3.6-3.4-3.6s-3.4,1.4-3.4,3.6,1.4,3.6,3.4,3.6,3.4-1.4,3.4-3.6Z"/>
      <path class="cls-7" d="M364.3,125l-.6,1.7c-.3-.1-.7-.2-1.1-.2-1.5,0-3,1-3,3v5.6h-1.8v-10h1.5v1.6c.9-1.2,2.1-1.9,3.6-1.9s1,0,1.4.2Z"/>
      <path class="cls-7" d="M376.5,130c0,3.1-2.3,5.3-5.1,5.3s-2.8-.7-3.5-1.8v1.5h-1.6v-15h1.8v6.2c.7-.9,1.9-1.4,3.3-1.4,2.9,0,5.2,2.1,5.2,5.2ZM374.7,130c0-2.1-1.4-3.6-3.4-3.6s-3.4,1.4-3.4,3.6,1.4,3.6,3.4,3.6,3.4-1.4,3.4-3.6Z"/>
      <path class="cls-7" d="M378.9,122.2c0-.7.5-1.2,1.2-1.2s1.2.5,1.2,1.2-.5,1.2-1.2,1.2-1.2-.5-1.2-1.2ZM381,135h-1.8v-10h1.8v10Z"/>
      <path class="cls-7" d="M388.1,130.6l-1.8,1.9v2.5h-1.8v-15h1.8v10l4.7-5h2.4l-4.2,4.3,4.3,5.7h-2.2l-3.3-4.4Z"/>
      <path class="cls-7" d="M399.4,133.6c1.1,0,2.2-.4,2.9-1.2l1.1,1.3c-1,1-2.4,1.5-4,1.5-3,0-5.3-2.1-5.3-5.3s2.1-5.2,5.2-5.2,4.7,2.3,4.7,4.6,0,.9-.1,1.4h-7.9c.3,1.8,1.6,2.9,3.4,2.9ZM396,129.1h6.2c0-1.5-1-2.7-2.9-2.7s-3,1.1-3.3,2.7Z"/>
      <path class="cls-7" d="M405.8,134l.8-1.4c.7.5,2.2,1,3.5,1s2.5-.3,2.5-1.4-1.2-1.1-2.6-1.4c-2.5-.5-3.9-1-3.9-2.9s2.3-3.1,4.2-3.1,2.9.4,3.8,1.1l-.8,1.4c-.7-.5-1.8-.8-3-.8s-2.3.5-2.3,1.4.4.9,2.3,1.3c2.3.4,4.2.8,4.2,3s-1.8,3.2-4.4,3.2-3.3-.5-4.3-1.3Z"/>
      <path class="cls-7" d="M416.3,120.5h1.9l-.2,5.3h-1.6l-.2-5.3Z"/>
      <path class="cls-7" d="M420.3,136.1c2.5-1.1,4.1-3.6,4.1-6.8s-1.6-5.7-4.1-6.8l.6-1.8c3.3,1.4,5.4,4.5,5.4,8.6s-2.2,7.2-5.4,8.6l-.6-1.8Z"/>
      <path class="cls-7" d="M429.7,132.7h2l-1.1,5.4h-1.5l.6-5.4ZM429.4,126c0-.7.6-1.3,1.3-1.3s1.3.6,1.3,1.3-.6,1.3-1.3,1.3-1.3-.6-1.3-1.3Z"/>
    </g>
    <g class="cls-8">
      <path class="cls-7" d="M112.8,165.2v2.3h-1.9v-2.2c-2.1-.2-3.9-1.1-4.8-1.7l1-1.7c1.2.9,3.1,1.6,4.8,1.6s3.4-.7,3.4-2.2-1.8-1.9-3.6-2.2c-3.9-.8-5.3-1.7-5.3-3.9s2.1-3.9,4.4-4.2v-2.3h1.9v2.2c1.4,0,2.7.4,4.1,1.3l-.9,1.6c-1.3-.8-2.4-1.1-3.8-1.1-2.6,0-3.8.9-3.8,2.4s.8,1.7,3.6,2.2c1.8.3,5.2.8,5.2,4s-1.8,3.8-4.5,4.1Z"/>
      <path class="cls-7" d="M126.3,155l-.6,1.7c-.3-.1-.7-.2-1.1-.2-1.5,0-3,1-3,3v5.6h-1.8v-10h1.5v1.6c.9-1.2,2.1-1.9,3.6-1.9s1,0,1.4.2Z"/>
      <path class="cls-7" d="M132.3,163.6c1.1,0,2.2-.4,2.9-1.2l1.1,1.3c-1,1-2.4,1.5-4,1.5-3,0-5.3-2.1-5.3-5.3s2.1-5.2,5.2-5.2,4.7,2.3,4.7,4.6,0,.9-.1,1.4h-7.9c.3,1.8,1.6,2.9,3.4,2.9ZM128.9,159.1h6.2c0-1.5-1-2.7-2.9-2.7s-3,1.1-3.3,2.7Z"/>
      <path class="cls-7" d="M149.1,155v15h-1.8v-6.2c-.7.9-1.9,1.4-3.3,1.4-2.9,0-5.2-2.1-5.2-5.2s2.3-5.3,5.1-5.3,2.8.7,3.5,1.8v-1.5h1.6ZM147.6,160c0-2.2-1.4-3.6-3.4-3.6s-3.4,1.4-3.4,3.6,1.4,3.6,3.4,3.6,3.4-1.4,3.4-3.6Z"/>
      <path class="cls-7" d="M161,155v10h-1.5v-1.5c-.8,1.1-1.9,1.7-3.3,1.7-2.2,0-4-1.7-4-4.1v-6.2h1.8v6.2c0,1.6,1.3,2.4,2.6,2.4s2.7-1,2.7-2.8v-5.8h1.8Z"/>
      <path class="cls-7" d="M168.8,163.6c1.1,0,2.2-.4,2.9-1.2l1.1,1.3c-1,1-2.4,1.5-4,1.5-3,0-5.3-2.1-5.3-5.3s2.1-5.2,5.2-5.2,4.7,2.3,4.7,4.6,0,.9-.1,1.4h-7.9c.3,1.8,1.6,2.9,3.4,2.9ZM165.4,159.1h6.2c0-1.5-1-2.7-2.9-2.7s-3,1.1-3.3,2.7Z"/>
      <path class="cls-7" d="M175.2,164l.8-1.4c.7.5,2.2,1,3.5,1s2.5-.3,2.5-1.4-1.2-1.1-2.6-1.4c-2.5-.5-3.9-1-3.9-2.9s2.3-3.1,4.2-3.1,2.9.4,3.8,1.1l-.8,1.4c-.7-.5-1.8-.8-3-.8s-2.3.5-2.3,1.4.4.9,2.3,1.3c2.3.4,4.2.8,4.2,3s-1.8,3.2-4.4,3.2-3.3-.5-4.3-1.3Z"/>
      <path class="cls-7" d="M193.4,164.2c-.6.6-1.5,1-2.9,1-2.3,0-3.6-1.2-3.6-3.6v-5.1h-2v-1.6h2v-3.1h1.8v3.1h4.2v1.6h-4.2v5.1c0,1.3.6,1.9,1.8,1.9s1.3-.2,2-.9l.9,1.5Z"/>
      <path class="cls-7" d="M201.4,158.6v1.6h-6v-1.6h6Z"/>
    </g>
    <g class="cls-8">
      <path class="cls-7" d="M114.1,188.3v2.1l-8.3,3.8v-1.9l6.5-2.9-6.5-2.9v-1.9l8.3,3.8Z"/>
    </g>
    <g class="cls-8">
      <path class="cls-5" d="M115.6,194l.8-1.4c.7.5,2.2,1,3.5,1s2.5-.3,2.5-1.4-1.2-1.1-2.6-1.4c-2.5-.5-3.9-1-3.9-2.9s2.3-3.1,4.2-3.1,2.9.4,3.8,1.1l-.8,1.4c-.7-.5-1.8-.8-3-.8s-2.3.5-2.3,1.4.4.9,2.3,1.3c2.3.4,4.2.8,4.2,3s-1.8,3.2-4.4,3.2-3.3-.5-4.3-1.3Z"/>
      <path class="cls-5" d="M131.3,193.6c1.1,0,2.2-.4,2.9-1.2l1.1,1.3c-1,1-2.4,1.5-4,1.5-3,0-5.3-2.1-5.3-5.3s2.1-5.2,5.2-5.2,4.7,2.3,4.7,4.6,0,.9-.1,1.4h-7.9c.3,1.8,1.6,2.9,3.4,2.9ZM127.9,189.1h6.2c0-1.5-1-2.7-2.9-2.7s-3,1.1-3.3,2.7Z"/>
      <path class="cls-5" d="M145.5,194.2c-.6.6-1.5,1-2.9,1-2.3,0-3.6-1.2-3.6-3.6v-5.1h-2v-1.6h2v-3.1h1.8v3.1h4.2v1.6h-4.2v5.1c0,1.3.6,1.9,1.8,1.9s1.3-.2,2-.9l.9,1.5Z"/>
      <path class="cls-5" d="M163.4,195h-1.9v-11.5l-4.4,9.9h-2.1l-4.4-9.9v11.5h-1.9v-14h2.9l4.5,10.2,4.5-10.2h2.9v14Z"/>
      <path class="cls-5" d="M171.3,193.6c1.1,0,2.2-.4,2.9-1.2l1.1,1.3c-1,1-2.4,1.5-4,1.5-3,0-5.3-2.1-5.3-5.3s2.1-5.2,5.2-5.2,4.7,2.3,4.7,4.6,0,.9-.1,1.4h-7.9c.3,1.8,1.6,2.9,3.4,2.9ZM167.9,189.1h6.2c0-1.5-1-2.7-2.9-2.7s-3,1.1-3.3,2.7Z"/>
      <path class="cls-5" d="M185.6,194.2c-.6.6-1.5,1-2.9,1-2.3,0-3.6-1.2-3.6-3.6v-5.1h-2v-1.6h2v-3.1h1.8v3.1h4.2v1.6h-4.2v5.1c0,1.3.6,1.9,1.8,1.9s1.3-.2,2-.9l.9,1.5Z"/>
      <path class="cls-5" d="M197.3,188.8v6.2h-1.8v-6c0-1.6-1-2.6-2.6-2.6s-3,.9-3,2.8v5.8h-1.8v-15h1.8v6.3c.7-1,1.9-1.6,3.3-1.6,2.4,0,4,1.6,4,4.1Z"/>
      <path class="cls-5" d="M199.8,190c0-3.1,2.2-5.3,5.3-5.3s5.3,2.2,5.3,5.3-2.2,5.3-5.3,5.3-5.3-2.2-5.3-5.3ZM208.5,190c0-2.1-1.4-3.6-3.4-3.6s-3.4,1.4-3.4,3.6,1.4,3.6,3.4,3.6,3.4-1.4,3.4-3.6Z"/>
      <path class="cls-5" d="M222.6,180v15h-1.5v-1.5c-.9,1.1-2.1,1.8-3.7,1.8-2.8,0-5.1-2.2-5.1-5.3s2.3-5.2,5.2-5.2,2.6.5,3.3,1.4v-6.2h1.8ZM221,190c0-2.2-1.4-3.6-3.4-3.6s-3.4,1.4-3.4,3.6,1.4,3.6,3.4,3.6,3.4-1.4,3.4-3.6Z"/>
    </g>
    <g class="cls-8">
      <path class="cls-7" d="M225.8,189.3c0-4.1,2.2-7.2,5.4-8.6l.7,1.8c-2.5,1.1-4.1,3.6-4.1,6.8s1.6,5.7,4.1,6.8l-.7,1.8c-3.3-1.4-5.4-4.5-5.4-8.6Z"/>
    </g>
    <g class="cls-8">
      <path class="cls-4" d="M246.5,181v14h-1.9v-6.2h-7.8v6.2h-1.9v-14h1.9v6h7.8v-6h1.9Z"/>
      <path class="cls-4" d="M260.4,182.8h-4.7v12.2h-1.9v-12.2h-4.7v-1.8h11.3v1.8Z"/>
      <path class="cls-4" d="M273,182.8h-4.7v12.2h-1.9v-12.2h-4.7v-1.8h11.3v1.8Z"/>
      <path class="cls-4" d="M285.9,185.6c0,2.7-1.9,4.6-5.1,4.6h-3.4v4.8h-1.9v-14h5.3c3.1,0,5.1,1.9,5.1,4.6ZM283.9,185.6c0-1.8-1.1-2.8-3.1-2.8h-3.4v5.5h3.4c2,0,3.1-1,3.1-2.8Z"/>
      <path class="cls-4" d="M297,197.9h-9.1v-1.6h9.1v1.6Z"/>
      <path class="cls-4" d="M314.9,195h-1.9v-11.5l-4.4,9.9h-2.1l-4.4-9.9v11.5h-1.9v-14h2.9l4.5,10.2,4.5-10.2h2.9v14Z"/>
      <path class="cls-4" d="M328.8,193.2v1.8h-9.9v-14h9.8v1.8h-7.8v4.2h7.5v1.8h-7.5v4.4h8Z"/>
      <path class="cls-4" d="M341.7,182.8h-4.7v12.2h-1.9v-12.2h-4.7v-1.8h11.3v1.8Z"/>
      <path class="cls-4" d="M356,181v14h-1.9v-6.2h-7.8v6.2h-1.9v-14h1.9v6h7.8v-6h1.9Z"/>
      <path class="cls-4" d="M359.1,188c0-4.3,3.1-7.3,7.3-7.3s7.3,3,7.3,7.3-3.1,7.3-7.3,7.3-7.3-3-7.3-7.3ZM371.6,188c0-3.2-2.1-5.4-5.3-5.4s-5.3,2.2-5.3,5.4,2.1,5.4,5.3,5.4,5.3-2.2,5.3-5.4Z"/>
      <path class="cls-4" d="M389.1,188c0,4.3-3.1,7-7.3,7h-5.2v-14h5.2c4.2,0,7.3,2.7,7.3,7ZM387.1,188c0-3.1-2-5.2-5.3-5.2h-3.2v10.3h3.2c3.2,0,5.3-2,5.3-5.2Z"/>
      <path class="cls-4" d="M400.4,197.9h-9.1v-1.6h9.1v1.6Z"/>
      <path class="cls-4" d="M416.6,188.3c0,4.3-2.9,7-6.9,7s-7.2-3-7.2-7.3,3.2-7.2,7.2-7.2,4.2.8,5.5,2.3l-1.4,1.3c-1-1.3-2.5-1.8-4.1-1.8-3.1,0-5.2,2.2-5.2,5.4s2.1,5.4,5.2,5.4,4.4-1.3,4.8-4.2h-4.7v-1.8h6.8c0,.2,0,.3,0,.8Z"/>
      <path class="cls-4" d="M429.6,193.2v1.8h-9.9v-14h9.8v1.8h-7.8v4.2h7.5v1.8h-7.5v4.4h8Z"/>
      <path class="cls-4" d="M442.5,182.8h-4.7v12.2h-1.9v-12.2h-4.7v-1.8h11.3v1.8Z"/>
    </g>
    <g class="cls-8">
      <path class="cls-7" d="M444.1,196.1c2.5-1.1,4.1-3.6,4.1-6.8s-1.6-5.7-4.1-6.8l.6-1.8c3.3,1.4,5.4,4.5,5.4,8.6s-2.2,7.2-5.4,8.6l-.6-1.8Z"/>
      <path class="cls-7" d="M453.6,192.7h2l-1.1,5.4h-1.5l.6-5.4ZM453.3,186c0-.7.6-1.3,1.3-1.3s1.3.6,1.3,1.3-.6,1.3-1.3,1.3-1.3-.6-1.3-1.3Z"/>
    </g>
    <g class="cls-8">
      <path class="cls-7" d="M112.8,255.2v2.3h-1.9v-2.2c-2.1-.2-3.9-1.1-4.8-1.7l1-1.7c1.2.9,3.1,1.6,4.8,1.6s3.4-.7,3.4-2.2-1.8-1.9-3.6-2.2c-3.9-.8-5.3-1.7-5.3-3.9s2.1-3.9,4.4-4.2v-2.3h1.9v2.2c1.4,0,2.7.4,4.1,1.3l-.9,1.6c-1.3-.8-2.4-1.1-3.8-1.1-2.6,0-3.8.9-3.8,2.4s.8,1.7,3.6,2.2c1.8.3,5.2.8,5.2,4s-1.8,3.8-4.5,4.1Z"/>
      <path class="cls-7" d="M126.3,245l-.6,1.7c-.3-.1-.7-.2-1.1-.2-1.5,0-3,1-3,3v5.6h-1.8v-10h1.5v1.6c.9-1.2,2.1-1.9,3.6-1.9s1,0,1.4.2Z"/>
      <path class="cls-7" d="M132.3,253.6c1.1,0,2.2-.4,2.9-1.2l1.1,1.3c-1,1-2.4,1.5-4,1.5-3,0-5.3-2.1-5.3-5.3s2.1-5.2,5.2-5.2,4.7,2.3,4.7,4.6,0,.9-.1,1.4h-7.9c.3,1.8,1.6,2.9,3.4,2.9ZM128.9,249.1h6.2c0-1.5-1-2.7-2.9-2.7s-3,1.1-3.3,2.7Z"/>
      <path class="cls-7" d="M149.1,245v15h-1.8v-6.2c-.7.9-1.9,1.4-3.3,1.4-2.9,0-5.2-2.1-5.2-5.2s2.3-5.3,5.1-5.3,2.8.7,3.5,1.8v-1.5h1.6ZM147.6,250c0-2.2-1.4-3.6-3.4-3.6s-3.4,1.4-3.4,3.6,1.4,3.6,3.4,3.6,3.4-1.4,3.4-3.6Z"/>
      <path class="cls-7" d="M161,245v10h-1.5v-1.5c-.8,1.1-1.9,1.7-3.3,1.7-2.2,0-4-1.7-4-4.1v-6.2h1.8v6.2c0,1.6,1.3,2.4,2.6,2.4s2.7-1,2.7-2.8v-5.8h1.8Z"/>
      <path class="cls-7" d="M168.8,253.6c1.1,0,2.2-.4,2.9-1.2l1.1,1.3c-1,1-2.4,1.5-4,1.5-3,0-5.3-2.1-5.3-5.3s2.1-5.2,5.2-5.2,4.7,2.3,4.7,4.6,0,.9-.1,1.4h-7.9c.3,1.8,1.6,2.9,3.4,2.9ZM165.4,249.1h6.2c0-1.5-1-2.7-2.9-2.7s-3,1.1-3.3,2.7Z"/>
      <path class="cls-7" d="M175.2,254l.8-1.4c.7.5,2.2,1,3.5,1s2.5-.3,2.5-1.4-1.2-1.1-2.6-1.4c-2.5-.5-3.9-1-3.9-2.9s2.3-3.1,4.2-3.1,2.9.4,3.8,1.1l-.8,1.4c-.7-.5-1.8-.8-3-.8s-2.3.5-2.3,1.4.4.9,2.3,1.3c2.3.4,4.2.8,4.2,3s-1.8,3.2-4.4,3.2-3.3-.5-4.3-1.3Z"/>
      <path class="cls-7" d="M193.4,254.2c-.6.6-1.5,1-2.9,1-2.3,0-3.6-1.2-3.6-3.6v-5.1h-2v-1.6h2v-3.1h1.8v3.1h4.2v1.6h-4.2v5.1c0,1.3.6,1.9,1.8,1.9s1.3-.2,2-.9l.9,1.5Z"/>
      <path class="cls-7" d="M201.4,248.6v1.6h-6v-1.6h6Z"/>
      <path class="cls-7" d="M211.5,248.3v2.1l-8.3,3.8v-1.9l6.5-2.9-6.5-2.9v-1.9l8.3,3.8Z"/>
    </g>
    <g class="cls-8">
      <path class="cls-5" d="M213,254l.8-1.4c.7.5,2.2,1,3.5,1s2.5-.3,2.5-1.4-1.2-1.1-2.6-1.4c-2.5-.5-3.9-1-3.9-2.9s2.3-3.1,4.2-3.1,2.9.4,3.8,1.1l-.8,1.4c-.7-.5-1.8-.8-3-.8s-2.3.5-2.3,1.4.4.9,2.3,1.3c2.3.4,4.2.8,4.2,3s-1.8,3.2-4.4,3.2-3.3-.5-4.3-1.3Z"/>
      <path class="cls-5" d="M228.8,253.6c1.1,0,2.2-.4,2.9-1.2l1.1,1.3c-1,1-2.4,1.5-4,1.5-3,0-5.3-2.1-5.3-5.3s2.1-5.2,5.2-5.2,4.7,2.3,4.7,4.6,0,.9-.1,1.4h-7.9c.3,1.8,1.6,2.9,3.4,2.9ZM225.4,249.1h6.2c0-1.5-1-2.7-2.9-2.7s-3,1.1-3.3,2.7Z"/>
      <path class="cls-5" d="M243,254.2c-.6.6-1.5,1-2.9,1-2.3,0-3.6-1.2-3.6-3.6v-5.1h-2v-1.6h2v-3.1h1.8v3.1h4.2v1.6h-4.2v5.1c0,1.3.6,1.9,1.8,1.9s1.3-.2,2-.9l.9,1.5Z"/>
      <path class="cls-5" d="M257.6,241v14h-1.9v-6.2h-7.8v6.2h-1.9v-14h1.9v6h7.8v-6h1.9Z"/>
      <path class="cls-5" d="M265.6,253.6c1.1,0,2.2-.4,2.9-1.2l1.1,1.3c-1,1-2.4,1.5-4,1.5-3,0-5.3-2.1-5.3-5.3s2.1-5.2,5.2-5.2,4.7,2.3,4.7,4.6,0,.9-.1,1.4h-7.9c.3,1.8,1.6,2.9,3.4,2.9ZM262.2,249.1h6.2c0-1.5-1-2.7-2.9-2.7s-3,1.1-3.3,2.7Z"/>
      <path class="cls-5" d="M281.1,248.8v6.2h-1.5v-1.6c-1,1.2-2.5,1.9-3.9,1.9s-3.5-1.1-3.5-3.2,2.1-3.2,4-3.2,2.1.1,3.1.4v-.5c0-1.6-.9-2.4-2.6-2.4s-2.3.3-3.2,1.1l-.8-1.4c1-.8,2.5-1.4,4.2-1.4,2.6,0,4.1,1.4,4.1,4.1ZM279.4,250.8c-.9-.3-2-.4-2.9-.4-1.4,0-2.5.5-2.5,1.7s.8,1.6,2,1.6,3.4-1.1,3.4-2.8Z"/>
      <path class="cls-5" d="M294,240v15h-1.5v-1.5c-.9,1.1-2.1,1.8-3.7,1.8-2.8,0-5.1-2.2-5.1-5.3s2.3-5.2,5.2-5.2,2.6.5,3.3,1.4v-6.2h1.8ZM292.4,250c0-2.2-1.4-3.6-3.4-3.6s-3.4,1.4-3.4,3.6,1.4,3.6,3.4,3.6,3.4-1.4,3.4-3.6Z"/>
      <path class="cls-5" d="M301.8,253.6c1.1,0,2.2-.4,2.9-1.2l1.1,1.3c-1,1-2.4,1.5-4,1.5-3,0-5.3-2.1-5.3-5.3s2.1-5.2,5.2-5.2,4.7,2.3,4.7,4.6,0,.9-.1,1.4h-7.9c.3,1.8,1.6,2.9,3.4,2.9ZM298.4,249.1h6.2c0-1.5-1-2.7-2.9-2.7s-3,1.1-3.3,2.7Z"/>
      <path class="cls-5" d="M315.5,245l-.6,1.7c-.3-.1-.7-.2-1.1-.2-1.5,0-3,1-3,3v5.6h-1.8v-10h1.5v1.6c.9-1.2,2.1-1.9,3.6-1.9s1,0,1.4.2Z"/>
      <path class="cls-5" d="M316.5,254l.8-1.4c.7.5,2.2,1,3.5,1s2.5-.3,2.5-1.4-1.2-1.1-2.6-1.4c-2.5-.5-3.9-1-3.9-2.9s2.3-3.1,4.2-3.1,2.9.4,3.8,1.1l-.8,1.4c-.7-.5-1.8-.8-3-.8s-2.3.5-2.3,1.4.4.9,2.3,1.3c2.3.4,4.2.8,4.2,3s-1.8,3.2-4.4,3.2-3.3-.5-4.3-1.3Z"/>
    </g>
    <g class="cls-8">
      <path class="cls-7" d="M327.6,249.3c0-4.1,2.2-7.2,5.4-8.6l.7,1.8c-2.5,1.1-4.1,3.6-4.1,6.8s1.6,5.7,4.1,6.8l-.7,1.8c-3.3-1.4-5.4-4.5-5.4-8.6Z"/>
      <path class="cls-7" d="M344.9,248.8v6.2h-1.5v-1.6c-1,1.2-2.5,1.9-3.9,1.9s-3.5-1.1-3.5-3.2,2.1-3.2,4-3.2,2.1.1,3.1.4v-.5c0-1.6-.9-2.4-2.6-2.4s-2.3.3-3.2,1.1l-.8-1.4c1-.8,2.5-1.4,4.2-1.4,2.6,0,4.1,1.4,4.1,4.1ZM343.2,250.8c-.9-.3-2-.4-2.9-.4-1.4,0-2.5.5-2.5,1.7s.8,1.6,2,1.6,3.4-1.1,3.4-2.8Z"/>
      <path class="cls-7" d="M354.6,245l-.6,1.7c-.3-.1-.7-.2-1.1-.2-1.5,0-3,1-3,3v5.6h-1.8v-10h1.5v1.6c.9-1.2,2.1-1.9,3.6-1.9s1,0,1.4.2Z"/>
      <path class="cls-7" d="M363.1,245l-.6,1.7c-.3-.1-.7-.2-1.1-.2-1.5,0-3,1-3,3v5.6h-1.8v-10h1.5v1.6c.9-1.2,2.1-1.9,3.6-1.9s1,0,1.4.2Z"/>
      <path class="cls-7" d="M373.1,248.8v6.2h-1.5v-1.6c-1,1.2-2.5,1.9-3.9,1.9s-3.5-1.1-3.5-3.2,2.1-3.2,4-3.2,2.1.1,3.1.4v-.5c0-1.6-.9-2.4-2.6-2.4s-2.3.3-3.2,1.1l-.8-1.4c1-.8,2.5-1.4,4.2-1.4,2.6,0,4.1,1.4,4.1,4.1ZM371.4,250.8c-.9-.3-2-.4-2.9-.4-1.4,0-2.5.5-2.5,1.7s.8,1.6,2,1.6,3.4-1.1,3.4-2.8Z"/>
      <path class="cls-7" d="M385.1,245l-5.7,14h-1.8l1.6-4-4.3-10h2l3.2,7.7,3.1-7.7h2Z"/>
      <path class="cls-7" d="M387.1,249.3c0-4.1,2.2-7.2,5.4-8.6l.7,1.8c-2.5,1.1-4.1,3.6-4.1,6.8s1.6,5.7,4.1,6.8l-.7,1.8c-3.3-1.4-5.4-4.5-5.4-8.6Z"/>
    </g>
    <g class="cls-8">
      <path class="cls-7" d="M106,270.5h1.9l-.2,5.3h-1.6l-.2-5.3Z"/>
    </g>
    <g class="cls-8">
      <path class="cls-1" d="M109.9,280c0-3.1,2.3-5.3,5.3-5.3s2.9.5,3.8,1.5l-1.2,1.3c-.5-.7-1.5-1.1-2.6-1.1-2,0-3.4,1.4-3.4,3.6s1.4,3.6,3.4,3.6,1.9-.4,2.6-1.2l1.2,1.3c-1,1-2.3,1.5-3.8,1.5-3,0-5.3-2.2-5.3-5.3Z"/>
      <path class="cls-1" d="M129.8,278.8v6.2h-1.5v-1.6c-1,1.2-2.5,1.9-3.9,1.9s-3.5-1.1-3.5-3.2,2.1-3.2,4-3.2,2.1.1,3.1.4v-.5c0-1.6-.9-2.4-2.6-2.4s-2.3.3-3.2,1.1l-.8-1.4c1-.8,2.5-1.4,4.2-1.4,2.6,0,4.1,1.4,4.1,4.1ZM128.1,280.8c-.9-.3-2-.4-2.9-.4-1.4,0-2.5.5-2.5,1.7s.8,1.6,2,1.6,3.4-1.1,3.4-2.8Z"/>
      <path class="cls-1" d="M132.4,280c0-3.1,2.3-5.3,5.3-5.3s2.9.5,3.8,1.5l-1.2,1.3c-.5-.7-1.5-1.1-2.6-1.1-2,0-3.4,1.4-3.4,3.6s1.4,3.6,3.4,3.6,1.9-.4,2.6-1.2l1.2,1.3c-1,1-2.3,1.5-3.8,1.5-3,0-5.3-2.2-5.3-5.3Z"/>
      <path class="cls-1" d="M153.3,278.8v6.2h-1.8v-6c0-1.6-1-2.6-2.6-2.6s-3,.9-3,2.8v5.8h-1.8v-15h1.8v6.3c.7-1,1.9-1.6,3.3-1.6,2.4,0,4,1.6,4,4.1Z"/>
      <path class="cls-1" d="M161,283.6c1.1,0,2.2-.4,2.9-1.2l1.1,1.3c-1,1-2.4,1.5-4,1.5-3,0-5.3-2.1-5.3-5.3s2.1-5.2,5.2-5.2,4.7,2.3,4.7,4.6,0,.9-.1,1.4h-7.9c.3,1.8,1.6,2.9,3.4,2.9ZM157.6,279.1h6.2c0-1.5-1-2.7-2.9-2.7s-3,1.1-3.3,2.7Z"/>
      <path class="cls-1" d="M173.7,278.6v1.6h-6v-1.6h6Z"/>
      <path class="cls-1" d="M175.7,280c0-3.1,2.3-5.3,5.3-5.3s2.9.5,3.8,1.5l-1.2,1.3c-.5-.7-1.5-1.1-2.6-1.1-2,0-3.4,1.4-3.4,3.6s1.4,3.6,3.4,3.6,1.9-.4,2.6-1.2l1.2,1.3c-1,1-2.3,1.5-3.8,1.5-3,0-5.3-2.2-5.3-5.3Z"/>
      <path class="cls-1" d="M186.2,280c0-3.1,2.2-5.3,5.3-5.3s5.3,2.2,5.3,5.3-2.2,5.3-5.3,5.3-5.3-2.2-5.3-5.3ZM194.8,280c0-2.1-1.4-3.6-3.4-3.6s-3.4,1.4-3.4,3.6,1.4,3.6,3.4,3.6,3.4-1.4,3.4-3.6Z"/>
      <path class="cls-1" d="M208.4,278.8v6.2h-1.8v-6c0-1.5-1-2.6-2.6-2.6s-3,.9-3,2.8v5.8h-1.8v-10h1.5v1.5c.8-1.1,2.1-1.8,3.5-1.8,2.3,0,4.1,1.7,4.1,4.1Z"/>
      <path class="cls-1" d="M218.6,284.2c-.6.6-1.5,1-2.9,1-2.3,0-3.6-1.2-3.6-3.6v-5.1h-2v-1.6h2v-3.1h1.8v3.1h4.2v1.6h-4.2v5.1c0,1.3.6,1.9,1.8,1.9s1.3-.2,2-.9l.9,1.5Z"/>
      <path class="cls-1" d="M227.7,275l-.6,1.7c-.3-.1-.7-.2-1.1-.2-1.5,0-3,1-3,3v5.6h-1.8v-10h1.5v1.6c.9-1.2,2.1-1.9,3.6-1.9s1,0,1.4.2Z"/>
      <path class="cls-1" d="M228.4,280c0-3.1,2.2-5.3,5.3-5.3s5.3,2.2,5.3,5.3-2.2,5.3-5.3,5.3-5.3-2.2-5.3-5.3ZM237.1,280c0-2.1-1.4-3.6-3.4-3.6s-3.4,1.4-3.4,3.6,1.4,3.6,3.4,3.6,3.4-1.4,3.4-3.6Z"/>
      <path class="cls-1" d="M241.5,270h1.8v15h-1.8v-15Z"/>
    </g>
    <g class="cls-8">
      <path class="cls-7" d="M245.9,270.5h1.9l-.2,5.3h-1.6l-.2-5.3Z"/>
      <path class="cls-7" d="M254.9,276.6h9.3v1.6h-9.3v-1.6ZM254.9,280.6h9.3v1.6h-9.3v-1.6Z"/>
      <path class="cls-7" d="M274,278.3v2.1l-8.3,3.8v-1.9l6.5-2.9-6.5-2.9v-1.9l8.3,3.8Z"/>
      <path class="cls-7" d="M281,270.5h1.9l-.2,5.3h-1.6l-.2-5.3Z"/>
    </g>
    <g class="cls-8">
      <path class="cls-1" d="M294.7,278.8v6.2h-1.8v-6c0-1.5-1-2.6-2.6-2.6s-3,.9-3,2.8v5.8h-1.8v-10h1.5v1.5c.8-1.1,2.1-1.8,3.5-1.8,2.3,0,4.1,1.7,4.1,4.1Z"/>
      <path class="cls-1" d="M297.2,280c0-3.1,2.2-5.3,5.3-5.3s5.3,2.2,5.3,5.3-2.2,5.3-5.3,5.3-5.3-2.2-5.3-5.3ZM305.8,280c0-2.1-1.4-3.6-3.4-3.6s-3.4,1.4-3.4,3.6,1.4,3.6,3.4,3.6,3.4-1.4,3.4-3.6Z"/>
      <path class="cls-1" d="M315.7,278.6v1.6h-6v-1.6h6Z"/>
      <path class="cls-1" d="M317.7,280c0-3.1,2.3-5.3,5.3-5.3s2.9.5,3.8,1.5l-1.2,1.3c-.5-.7-1.5-1.1-2.6-1.1-2,0-3.4,1.4-3.4,3.6s1.4,3.6,3.4,3.6,1.9-.4,2.6-1.2l1.2,1.3c-1,1-2.3,1.5-3.8,1.5-3,0-5.3-2.2-5.3-5.3Z"/>
      <path class="cls-1" d="M337.6,278.8v6.2h-1.5v-1.6c-1,1.2-2.5,1.9-3.9,1.9s-3.5-1.1-3.5-3.2,2.1-3.2,4-3.2,2.1.1,3.1.4v-.5c0-1.6-.9-2.4-2.6-2.4s-2.3.3-3.2,1.1l-.8-1.4c1-.8,2.5-1.4,4.2-1.4,2.6,0,4.1,1.4,4.1,4.1ZM335.9,280.8c-.9-.3-2-.4-2.9-.4-1.4,0-2.5.5-2.5,1.7s.8,1.6,2,1.6,3.4-1.1,3.4-2.8Z"/>
      <path class="cls-1" d="M340.2,280c0-3.1,2.3-5.3,5.3-5.3s2.9.5,3.8,1.5l-1.2,1.3c-.5-.7-1.5-1.1-2.6-1.1-2,0-3.4,1.4-3.4,3.6s1.4,3.6,3.4,3.6,1.9-.4,2.6-1.2l1.2,1.3c-1,1-2.3,1.5-3.8,1.5-3,0-5.3-2.2-5.3-5.3Z"/>
      <path class="cls-1" d="M361,278.8v6.2h-1.8v-6c0-1.6-1-2.6-2.6-2.6s-3,.9-3,2.8v5.8h-1.8v-15h1.8v6.3c.7-1,1.9-1.6,3.3-1.6,2.4,0,4,1.6,4,4.1Z"/>
      <path class="cls-1" d="M368.8,283.6c1.1,0,2.2-.4,2.9-1.2l1.1,1.3c-1,1-2.4,1.5-4,1.5-3,0-5.3-2.1-5.3-5.3s2.1-5.2,5.2-5.2,4.7,2.3,4.7,4.6,0,.9-.1,1.4h-7.9c.3,1.8,1.6,2.9,3.4,2.9ZM365.4,279.1h6.2c0-1.5-1-2.7-2.9-2.7s-3,1.1-3.3,2.7Z"/>
    </g>
    <g class="cls-8">
      <path class="cls-6" d="M375.4,270.5h1.9l-.2,5.3h-1.6l-.2-5.3Z"/>
      <path class="cls-6" d="M380.1,282.7h2l-1.1,5.4h-1.5l.6-5.4Z"/>
    </g>
    <g class="cls-8">
      <path class="cls-6" d="M106,300.5h1.9l-.2,5.3h-1.6l-.2-5.3Z"/>
    </g>
    <g class="cls-8">
      <path class="cls-1" d="M117.1,315l-2.8-3.8-2.8,3.8h-2.2l3.9-5.1-3.8-4.9h2.2l2.7,3.7,2.7-3.7h2.3l-3.8,4.9,3.9,5.1h-2.3Z"/>
      <path class="cls-1" d="M126.8,308.6v1.6h-6v-1.6h6Z"/>
      <path class="cls-1" d="M138,308.8v6.2h-1.5v-1.6c-1,1.2-2.5,1.9-3.9,1.9s-3.5-1.1-3.5-3.2,2.1-3.2,4-3.2,2.1.1,3.1.4v-.5c0-1.6-.9-2.4-2.6-2.4s-2.3.3-3.2,1.1l-.8-1.4c1-.8,2.5-1.4,4.2-1.4,2.6,0,4.1,1.4,4.1,4.1ZM136.3,310.8c-.9-.3-2-.4-2.9-.4-1.4,0-2.5.5-2.5,1.7s.8,1.6,2,1.6,3.4-1.1,3.4-2.8Z"/>
      <path class="cls-1" d="M151.5,310c0,3.1-2.3,5.2-5.2,5.2s-2.6-.5-3.3-1.4v6.2h-1.8v-15h1.5v1.5c.9-1.1,2.1-1.8,3.7-1.8,2.8,0,5.1,2.2,5.1,5.3ZM149.7,310c0-2.1-1.4-3.6-3.4-3.6s-3.4,1.4-3.4,3.6,1.4,3.6,3.4,3.6,3.4-1.4,3.4-3.6Z"/>
      <path class="cls-1" d="M153.9,302.2c0-.7.5-1.2,1.2-1.2s1.2.5,1.2,1.2-.5,1.2-1.2,1.2-1.2-.5-1.2-1.2ZM156,315h-1.8v-10h1.8v10Z"/>
      <path class="cls-1" d="M163.1,310.6l-1.8,1.9v2.5h-1.8v-15h1.8v10l4.7-5h2.4l-4.2,4.3,4.3,5.7h-2.2l-3.3-4.4Z"/>
      <path class="cls-1" d="M174.4,313.6c1.1,0,2.2-.4,2.9-1.2l1.1,1.3c-1,1-2.4,1.5-4,1.5-3,0-5.3-2.1-5.3-5.3s2.1-5.2,5.2-5.2,4.7,2.3,4.7,4.6,0,.9-.1,1.4h-7.9c.3,1.8,1.6,2.9,3.4,2.9ZM171,309.1h6.2c0-1.5-1-2.7-2.9-2.7s-3,1.1-3.3,2.7Z"/>
      <path class="cls-1" d="M190.4,305l-5.7,14h-1.8l1.6-4-4.3-10h2l3.2,7.7,3.1-7.7h2Z"/>
    </g>
    <g class="cls-8">
      <path class="cls-7" d="M191.8,300.5h1.9l-.2,5.3h-1.6l-.2-5.3Z"/>
      <path class="cls-7" d="M200.8,306.6h9.3v1.6h-9.3v-1.6ZM200.8,310.6h9.3v1.6h-9.3v-1.6Z"/>
      <path class="cls-7" d="M219.9,308.3v2.1l-8.3,3.8v-1.9l6.5-2.9-6.5-2.9v-1.9l8.3,3.8Z"/>
    </g>
    <g class="cls-8">
      <path class="cls-7" d="M106,330.5h1.9l-.2,5.3h-1.6l-.2-5.3Z"/>
    </g>
    <g class="cls-8">
      <path class="cls-1" d="M119.7,340.9c0,2.6-2.1,4.4-5,4.4s-3.7-.9-4.5-2.3l1.3-1.3c.6,1.1,1.7,1.8,3.2,1.8s3.1-1,3.1-2.5-1.1-2.5-3.1-2.5-1.7.2-2.2.6l-1.3-1.4.3-6.3h7.5v1.8h-5.7l-.2,3.5c.5-.1,1-.2,1.6-.2,3,0,5,1.8,5,4.3Z"/>
      <path class="cls-1" d="M132.4,340.5c0,3-2.1,4.8-5,4.8s-5-1.9-5-4.7.2-1.5.7-2.2l4.3-7h2.3l-2.9,4.9c.4,0,.7-.1,1.2-.1,2.7,0,4.6,1.9,4.6,4.3ZM130.4,340.5c0-1.4-1.1-2.5-3-2.5s-3,1.1-3,2.5,1.2,2.9,3,2.9,3-1.1,3-2.9Z"/>
      <path class="cls-1" d="M135,338.2c0-4.2,2.5-7.1,5.8-7.1s5.8,2.9,5.8,7.1-2.5,7.1-5.8,7.1-5.8-2.9-5.8-7.1ZM144.6,338.2c0-3.1-1.6-5.2-3.8-5.2s-3.8,2.1-3.8,5.2,1.6,5.2,3.8,5.2,3.8-2.1,3.8-5.2Z"/>
      <path class="cls-1" d="M159.9,340c0,3.1-2.3,5.3-5.1,5.3s-2.8-.7-3.5-1.8v1.5h-1.6v-15h1.8v6.2c.7-.9,1.9-1.4,3.3-1.4,2.9,0,5.2,2.1,5.2,5.2ZM158,340c0-2.1-1.4-3.6-3.4-3.6s-3.4,1.4-3.4,3.6,1.4,3.6,3.4,3.6,3.4-1.4,3.4-3.6Z"/>
      <path class="cls-1" d="M172.1,330v15h-1.5v-1.5c-.9,1.1-2.1,1.8-3.7,1.8-2.8,0-5.1-2.2-5.1-5.3s2.3-5.2,5.2-5.2,2.6.5,3.3,1.4v-6.2h1.8ZM170.6,340c0-2.2-1.4-3.6-3.4-3.6s-3.4,1.4-3.4,3.6,1.4,3.6,3.4,3.6,3.4-1.4,3.4-3.6Z"/>
      <path class="cls-1" d="M185,342.1h-2.2v2.9h-1.9v-2.9h-6.3v-1.5l5-9.2h2.2l-4.8,8.9h3.9v-3.5h1.9v3.5h2.2v1.8Z"/>
      <path class="cls-1" d="M195.5,331.4v1.5l-6.1,12.1h-2.2l5.9-11.8h-7.1v-1.8h9.4Z"/>
      <path class="cls-1" d="M197.4,338.2c0-4.2,2.5-7.1,5.8-7.1s5.8,2.9,5.8,7.1-2.5,7.1-5.8,7.1-5.8-2.9-5.8-7.1ZM207.1,338.2c0-3.1-1.6-5.2-3.8-5.2s-3.8,2.1-3.8,5.2,1.6,5.2,3.8,5.2,3.8-2.1,3.8-5.2Z"/>
      <path class="cls-1" d="M220.9,340.9c0,2.6-2.1,4.4-5,4.4s-3.7-.9-4.5-2.3l1.3-1.3c.6,1.1,1.7,1.8,3.2,1.8s3.1-1,3.1-2.5-1.1-2.5-3.1-2.5-1.7.2-2.2.6l-1.3-1.4.3-6.3h7.5v1.8h-5.7l-.2,3.5c.5-.1,1-.2,1.6-.2,3,0,5,1.8,5,4.3Z"/>
      <path class="cls-1" d="M234.2,341.2c0,2.4-2.1,4-5.2,4s-5.3-1.7-5.3-4,.8-2.6,2.2-3.2c-1.2-.6-1.9-1.6-1.9-3,0-2.3,2-3.9,4.9-3.9s4.9,1.6,4.9,3.9-.6,2.4-1.9,3c1.5.6,2.2,1.7,2.2,3.2ZM232.2,341.2c0-1.3-1.2-2.2-3.2-2.2s-3.3.9-3.3,2.2,1.3,2.2,3.3,2.2,3.2-.9,3.2-2.2ZM226,335.1c0,1.3,1,2.1,2.9,2.1s2.9-.7,2.9-2.1-.9-2.1-2.9-2.1-2.9.8-2.9,2.1Z"/>
      <path class="cls-1" d="M241.8,343.6c1.1,0,2.2-.4,2.9-1.2l1.1,1.3c-1,1-2.4,1.5-4,1.5-3,0-5.3-2.1-5.3-5.3s2.1-5.2,5.2-5.2,4.7,2.3,4.7,4.6,0,.9-.1,1.4h-7.9c.3,1.8,1.6,2.9,3.4,2.9ZM238.4,339.1h6.2c0-1.5-1-2.7-2.9-2.7s-3,1.1-3.3,2.7Z"/>
      <path class="cls-1" d="M257.3,331.4v1.5l-6.1,12.1h-2.2l5.9-11.8h-7.1v-1.8h9.4Z"/>
      <path class="cls-1" d="M268,338.8v6.2h-1.5v-1.6c-1,1.2-2.5,1.9-3.9,1.9s-3.5-1.1-3.5-3.2,2.1-3.2,4-3.2,2.1.1,3.1.4v-.5c0-1.6-.9-2.4-2.6-2.4s-2.3.3-3.2,1.1l-.8-1.4c1-.8,2.5-1.4,4.2-1.4,2.6,0,4.1,1.4,4.1,4.1ZM266.3,340.8c-.9-.3-2-.4-2.9-.4-1.4,0-2.5.5-2.5,1.7s.8,1.6,2,1.6,3.4-1.1,3.4-2.8Z"/>
      <path class="cls-1" d="M281.5,340c0,3.1-2.3,5.3-5.1,5.3s-2.8-.7-3.5-1.8v1.5h-1.6v-15h1.8v6.2c.7-.9,1.9-1.4,3.3-1.4,2.9,0,5.2,2.1,5.2,5.2ZM279.7,340c0-2.1-1.4-3.6-3.4-3.6s-3.4,1.4-3.4,3.6,1.4,3.6,3.4,3.6,3.4-1.4,3.4-3.6Z"/>
      <path class="cls-1" d="M288.8,331.4v13.6h-1.9v-11.1l-3.7,1.6v-1.9l5.2-2.2h.5Z"/>
      <path class="cls-1" d="M302.6,340c0,3.1-2.3,5.3-5.1,5.3s-2.8-.7-3.5-1.8v1.5h-1.6v-15h1.8v6.2c.7-.9,1.9-1.4,3.3-1.4,2.9,0,5.2,2.1,5.2,5.2ZM300.8,340c0-2.1-1.4-3.6-3.4-3.6s-3.4,1.4-3.4,3.6,1.4,3.6,3.4,3.6,3.4-1.4,3.4-3.6Z"/>
      <path class="cls-1" d="M313.8,343.2v1.8h-8.8v-1.5h0s5.2-5.4,5.2-5.4c.9-.9,1.4-1.5,1.4-2.6s-.9-2.6-2.5-2.6-2.3.6-3,1.7l-1.4-1.2c.9-1.6,2.6-2.4,4.4-2.4s4.5,1.6,4.5,4.5-.6,2.6-1.9,3.9l-3.6,3.7h5.7Z"/>
      <path class="cls-1" d="M326.4,340.5c0,3-2.1,4.8-5,4.8s-5-1.9-5-4.7.2-1.5.7-2.2l4.3-7h2.3l-2.9,4.9c.4,0,.7-.1,1.2-.1,2.7,0,4.6,1.9,4.6,4.3ZM324.4,340.5c0-1.4-1.1-2.5-3-2.5s-3,1.1-3,2.5,1.2,2.9,3,2.9,3-1.1,3-2.9Z"/>
      <path class="cls-1" d="M338.8,342.1h-2.2v2.9h-1.9v-2.9h-6.3v-1.5l5-9.2h2.2l-4.8,8.9h3.9v-3.5h1.9v3.5h2.2v1.8Z"/>
      <path class="cls-1" d="M351.6,341.2c0,2.4-2.1,4-5.2,4s-5.3-1.7-5.3-4,.8-2.6,2.2-3.2c-1.2-.6-1.9-1.6-1.9-3,0-2.3,2-3.9,4.9-3.9s4.9,1.6,4.9,3.9-.6,2.4-1.9,3c1.5.6,2.2,1.7,2.2,3.2ZM349.6,341.2c0-1.3-1.2-2.2-3.2-2.2s-3.3.9-3.3,2.2,1.3,2.2,3.3,2.2,3.2-.9,3.2-2.2ZM343.4,335.1c0,1.3,1,2.1,2.9,2.1s2.9-.7,2.9-2.1-.9-2.1-2.9-2.1-2.9.8-2.9,2.1Z"/>
      <path class="cls-1" d="M357.5,335h3.6v1.6h-3.6v8.4h-1.8v-8.4h-2.2v-1.6h2.2v-1.7c0-2.3,1.2-3.6,3.6-3.6s1.8.2,2.5.7l-.8,1.4c-.4-.3-1-.5-1.7-.5-1.3,0-1.8.6-1.8,1.9v1.7Z"/>
      <path class="cls-1" d="M372.8,342.1h-2.2v2.9h-1.9v-2.9h-6.3v-1.5l5-9.2h2.2l-4.8,8.9h3.9v-3.5h1.9v3.5h2.2v1.8Z"/>
      <path class="cls-1" d="M379.9,343.6c1.1,0,2.2-.4,2.9-1.2l1.1,1.3c-1,1-2.4,1.5-4,1.5-3,0-5.3-2.1-5.3-5.3s2.1-5.2,5.2-5.2,4.7,2.3,4.7,4.6,0,.9-.1,1.4h-7.9c.3,1.8,1.6,2.9,3.4,2.9ZM376.5,339.1h6.2c0-1.5-1-2.7-2.9-2.7s-3,1.1-3.3,2.7Z"/>
      <path class="cls-1" d="M395.4,331.4v1.5l-6.1,12.1h-2.2l5.9-11.8h-7.1v-1.8h9.4Z"/>
    </g>
    <g class="cls-8">
      <path class="cls-7" d="M396.9,330.5h1.9l-.2,5.3h-1.6l-.2-5.3Z"/>
      <path class="cls-7" d="M401.6,342.7h2l-1.1,5.4h-1.5l.6-5.4Z"/>
    </g>
    <g class="cls-8">
      <path class="cls-7" d="M106,360.5h1.9l-.2,5.3h-1.6l-.2-5.3Z"/>
    </g>
    <g class="cls-8">
      <path class="cls-1" d="M109.9,370c0-3.1,2.3-5.3,5.3-5.3s2.9.5,3.8,1.5l-1.2,1.3c-.5-.7-1.5-1.1-2.6-1.1-2,0-3.4,1.4-3.4,3.6s1.4,3.6,3.4,3.6,1.9-.4,2.6-1.2l1.2,1.3c-1,1-2.3,1.5-3.8,1.5-3,0-5.3-2.2-5.3-5.3Z"/>
      <path class="cls-1" d="M120.4,370c0-3.1,2.2-5.3,5.3-5.3s5.3,2.2,5.3,5.3-2.2,5.3-5.3,5.3-5.3-2.2-5.3-5.3ZM129.1,370c0-2.1-1.4-3.6-3.4-3.6s-3.4,1.4-3.4,3.6,1.4,3.6,3.4,3.6,3.4-1.4,3.4-3.6Z"/>
      <path class="cls-1" d="M142.7,368.8v6.2h-1.8v-6c0-1.5-1-2.6-2.6-2.6s-3,.9-3,2.8v5.8h-1.8v-10h1.5v1.5c.8-1.1,2.1-1.8,3.5-1.8,2.3,0,4.1,1.7,4.1,4.1Z"/>
      <path class="cls-1" d="M152.9,374.2c-.6.6-1.5,1-2.9,1-2.3,0-3.6-1.2-3.6-3.6v-5.1h-2v-1.6h2v-3.1h1.8v3.1h4.2v1.6h-4.2v5.1c0,1.3.6,1.9,1.8,1.9s1.3-.2,2-.9l.9,1.5Z"/>
      <path class="cls-1" d="M159.4,373.6c1.1,0,2.2-.4,2.9-1.2l1.1,1.3c-1,1-2.4,1.5-4,1.5-3,0-5.3-2.1-5.3-5.3s2.1-5.2,5.2-5.2,4.7,2.3,4.7,4.6,0,.9-.1,1.4h-7.9c.3,1.8,1.6,2.9,3.4,2.9ZM156,369.1h6.2c0-1.5-1-2.7-2.9-2.7s-3,1.1-3.3,2.7Z"/>
      <path class="cls-1" d="M175.8,368.8v6.2h-1.8v-6c0-1.5-1-2.6-2.6-2.6s-3,.9-3,2.8v5.8h-1.8v-10h1.5v1.5c.8-1.1,2.1-1.8,3.5-1.8,2.3,0,4.1,1.7,4.1,4.1Z"/>
      <path class="cls-1" d="M186,374.2c-.6.6-1.5,1-2.9,1-2.3,0-3.6-1.2-3.6-3.6v-5.1h-2v-1.6h2v-3.1h1.8v3.1h4.2v1.6h-4.2v5.1c0,1.3.6,1.9,1.8,1.9s1.3-.2,2-.9l.9,1.5Z"/>
      <path class="cls-1" d="M194,368.6v1.6h-6v-1.6h6Z"/>
      <path class="cls-1" d="M203.7,374.2c-.6.6-1.5,1-2.9,1-2.3,0-3.6-1.2-3.6-3.6v-5.1h-2v-1.6h2v-3.1h1.8v3.1h4.2v1.6h-4.2v5.1c0,1.3.6,1.9,1.8,1.9s1.3-.2,2-.9l.9,1.5Z"/>
      <path class="cls-1" d="M215.3,365l-5.7,14h-1.8l1.6-4-4.3-10h2l3.2,7.7,3.1-7.7h2Z"/>
      <path class="cls-1" d="M227.6,370c0,3.1-2.3,5.2-5.2,5.2s-2.6-.5-3.3-1.4v6.2h-1.8v-15h1.5v1.5c.9-1.1,2.1-1.8,3.7-1.8,2.8,0,5.1,2.2,5.1,5.3ZM225.7,370c0-2.1-1.4-3.6-3.4-3.6s-3.4,1.4-3.4,3.6,1.4,3.6,3.4,3.6,3.4-1.4,3.4-3.6Z"/>
      <path class="cls-1" d="M234.8,373.6c1.1,0,2.2-.4,2.9-1.2l1.1,1.3c-1,1-2.4,1.5-4,1.5-3,0-5.3-2.1-5.3-5.3s2.1-5.2,5.2-5.2,4.7,2.3,4.7,4.6,0,.9-.1,1.4h-7.9c.3,1.8,1.6,2.9,3.4,2.9ZM231.4,369.1h6.2c0-1.5-1-2.7-2.9-2.7s-3,1.1-3.3,2.7Z"/>
    </g>
    <g class="cls-8">
      <path class="cls-7" d="M241.5,360.5h1.9l-.2,5.3h-1.6l-.2-5.3Z"/>
      <path class="cls-7" d="M250.5,366.6h9.3v1.6h-9.3v-1.6ZM250.5,370.6h9.3v1.6h-9.3v-1.6Z"/>
      <path class="cls-7" d="M269.6,368.3v2.1l-8.3,3.8v-1.9l6.5-2.9-6.5-2.9v-1.9l8.3,3.8Z"/>
      <path class="cls-7" d="M276.6,360.5h1.9l-.2,5.3h-1.6l-.2-5.3Z"/>
    </g>
    <g class="cls-8">
      <path class="cls-1" d="M289.8,368.8v6.2h-1.5v-1.6c-1,1.2-2.5,1.9-3.9,1.9s-3.5-1.1-3.5-3.2,2.1-3.2,4-3.2,2.1.1,3.1.4v-.5c0-1.6-.9-2.4-2.6-2.4s-2.3.3-3.2,1.1l-.8-1.4c1-.8,2.5-1.4,4.2-1.4,2.6,0,4.1,1.4,4.1,4.1ZM288,370.8c-.9-.3-2-.4-2.9-.4-1.4,0-2.5.5-2.5,1.7s.8,1.6,2,1.6,3.4-1.1,3.4-2.8Z"/>
      <path class="cls-1" d="M303.2,370c0,3.1-2.3,5.2-5.2,5.2s-2.6-.5-3.3-1.4v6.2h-1.8v-15h1.5v1.5c.9-1.1,2.1-1.8,3.7-1.8,2.8,0,5.1,2.2,5.1,5.3ZM301.4,370c0-2.1-1.4-3.6-3.4-3.6s-3.4,1.4-3.4,3.6,1.4,3.6,3.4,3.6,3.4-1.4,3.4-3.6Z"/>
      <path class="cls-1" d="M316.1,370c0,3.1-2.3,5.2-5.2,5.2s-2.6-.5-3.3-1.4v6.2h-1.8v-15h1.5v1.5c.9-1.1,2.1-1.8,3.7-1.8,2.8,0,5.1,2.2,5.1,5.3ZM314.2,370c0-2.1-1.4-3.6-3.4-3.6s-3.4,1.4-3.4,3.6,1.4,3.6,3.4,3.6,3.4-1.4,3.4-3.6Z"/>
      <path class="cls-1" d="M318.7,360h1.8v15h-1.8v-15Z"/>
      <path class="cls-1" d="M323.6,362.2c0-.7.5-1.2,1.2-1.2s1.2.5,1.2,1.2-.5,1.2-1.2,1.2-1.2-.5-1.2-1.2ZM325.7,375h-1.8v-10h1.8v10Z"/>
      <path class="cls-1" d="M328.4,370c0-3.1,2.3-5.3,5.3-5.3s2.9.5,3.8,1.5l-1.2,1.3c-.5-.7-1.5-1.1-2.6-1.1-2,0-3.4,1.4-3.4,3.6s1.4,3.6,3.4,3.6,1.9-.4,2.6-1.2l1.2,1.3c-1,1-2.3,1.5-3.8,1.5-3,0-5.3-2.2-5.3-5.3Z"/>
      <path class="cls-1" d="M348.4,368.8v6.2h-1.5v-1.6c-1,1.2-2.5,1.9-3.9,1.9s-3.5-1.1-3.5-3.2,2.1-3.2,4-3.2,2.1.1,3.1.4v-.5c0-1.6-.9-2.4-2.6-2.4s-2.3.3-3.2,1.1l-.8-1.4c1-.8,2.5-1.4,4.2-1.4,2.6,0,4.1,1.4,4.1,4.1ZM346.6,370.8c-.9-.3-2-.4-2.9-.4-1.4,0-2.5.5-2.5,1.7s.8,1.6,2,1.6,3.4-1.1,3.4-2.8Z"/>
      <path class="cls-1" d="M358.7,374.2c-.6.6-1.5,1-2.9,1-2.3,0-3.6-1.2-3.6-3.6v-5.1h-2v-1.6h2v-3.1h1.8v3.1h4.2v1.6h-4.2v5.1c0,1.3.6,1.9,1.8,1.9s1.3-.2,2-.9l.9,1.5Z"/>
      <path class="cls-1" d="M361.2,362.2c0-.7.5-1.2,1.2-1.2s1.2.5,1.2,1.2-.5,1.2-1.2,1.2-1.2-.5-1.2-1.2ZM363.2,375h-1.8v-10h1.8v10Z"/>
      <path class="cls-1" d="M366,370c0-3.1,2.2-5.3,5.3-5.3s5.3,2.2,5.3,5.3-2.2,5.3-5.3,5.3-5.3-2.2-5.3-5.3ZM374.6,370c0-2.1-1.4-3.6-3.4-3.6s-3.4,1.4-3.4,3.6,1.4,3.6,3.4,3.6,3.4-1.4,3.4-3.6Z"/>
      <path class="cls-1" d="M388.2,368.8v6.2h-1.8v-6c0-1.5-1-2.6-2.6-2.6s-3,.9-3,2.8v5.8h-1.8v-10h1.5v1.5c.8-1.1,2.1-1.8,3.5-1.8,2.3,0,4.1,1.7,4.1,4.1Z"/>
      <path class="cls-1" d="M398.1,360h2l-7.8,16h-2l7.8-16Z"/>
      <path class="cls-1" d="M399.6,378.8l.9-1.5c.4.2.6.3,1,.3.9,0,1.3-.4,1.3-1.5v-11.1h1.8v11.1c0,2.1-1,3.1-3.2,3.1s-1.4-.1-1.9-.4ZM402.5,362.2c0-.7.6-1.2,1.2-1.2s1.2.5,1.2,1.2-.5,1.2-1.2,1.2-1.2-.5-1.2-1.2Z"/>
      <path class="cls-1" d="M407.3,374l.8-1.4c.7.5,2.2,1,3.5,1s2.5-.3,2.5-1.4-1.2-1.1-2.6-1.4c-2.5-.5-3.9-1-3.9-2.9s2.3-3.1,4.2-3.1,2.9.4,3.8,1.1l-.8,1.4c-.7-.5-1.8-.8-3-.8s-2.3.5-2.3,1.4.4.9,2.3,1.3c2.3.4,4.2.8,4.2,3s-1.8,3.2-4.4,3.2-3.3-.5-4.3-1.3Z"/>
      <path class="cls-1" d="M417.8,370c0-3.1,2.2-5.3,5.3-5.3s5.3,2.2,5.3,5.3-2.2,5.3-5.3,5.3-5.3-2.2-5.3-5.3ZM426.5,370c0-2.1-1.4-3.6-3.4-3.6s-3.4,1.4-3.4,3.6,1.4,3.6,3.4,3.6,3.4-1.4,3.4-3.6Z"/>
      <path class="cls-1" d="M440.1,368.8v6.2h-1.8v-6c0-1.5-1-2.6-2.6-2.6s-3,.9-3,2.8v5.8h-1.8v-10h1.5v1.5c.8-1.1,2.1-1.8,3.5-1.8,2.3,0,4.1,1.7,4.1,4.1Z"/>
    </g>
    <g class="cls-8">
      <path class="cls-7" d="M442.6,360.5h1.9l-.2,5.3h-1.6l-.2-5.3Z"/>
    </g>
    <g class="cls-8">
      <path class="cls-7" d="M106,406.1c2.5-1.1,4.1-3.6,4.1-6.8s-1.6-5.7-4.1-6.8l.6-1.8c3.3,1.4,5.4,4.5,5.4,8.6s-2.2,7.2-5.4,8.6l-.6-1.8Z"/>
      <path class="cls-7" d="M114.7,406.1c2.5-1.1,4.1-3.6,4.1-6.8s-1.6-5.7-4.1-6.8l.6-1.8c3.3,1.4,5.4,4.5,5.4,8.6s-2.2,7.2-5.4,8.6l-.6-1.8Z"/>
      <path class="cls-7" d="M124.1,402.7h2l-1.1,5.4h-1.5l.6-5.4ZM123.8,396c0-.7.6-1.3,1.3-1.3s1.3.6,1.3,1.3-.6,1.3-1.3,1.3-1.3-.6-1.3-1.3Z"/>
    </g>
    <g class="cls-8">
      <path class="cls-5" d="M113.7,464.2c-.6.6-1.5,1-2.9,1-2.3,0-3.6-1.2-3.6-3.6v-5.1h-2v-1.6h2v-3.1h1.8v3.1h4.2v1.6h-4.2v5.1c0,1.3.6,1.9,1.8,1.9s1.3-.2,2-.9l.9,1.5Z"/>
      <path class="cls-5" d="M122.8,455l-.6,1.7c-.3-.1-.7-.2-1.1-.2-1.5,0-3,1-3,3v5.6h-1.8v-10h1.5v1.6c.9-1.2,2.1-1.9,3.6-1.9s1,0,1.4.2Z"/>
      <path class="cls-5" d="M134,455l-5.7,14h-1.8l1.6-4-4.3-10h2l3.2,7.7,3.1-7.7h2Z"/>
    </g>
    <g class="cls-8">
      <path class="cls-7" d="M143.8,459.3c1,.4,1.5,1.4,1.5,2.7v2.1c0,1.3.5,1.9,1.8,1.9s.5,0,.8,0v1.8c-.2,0-.5,0-1,0-2.3,0-3.6-1.2-3.6-3.6v-2.1c0-1.3-.6-1.9-1.8-1.9h-.4v-1.8h.4c1.3,0,1.8-.6,1.8-1.9v-2.1c0-2.4,1.3-3.6,3.6-3.6s.7,0,1,0v1.8c-.3,0-.6,0-.8,0-1.3,0-1.8.7-1.8,1.9v2.1c0,1.3-.5,2.2-1.5,2.7Z"/>
    </g>
    <g class="cls-8">
      <path class="cls-7" d="M134,495.2v2.3h-1.9v-2.2c-2.1-.2-3.9-1.1-4.8-1.7l1-1.7c1.2.9,3.1,1.6,4.8,1.6s3.4-.7,3.4-2.2-1.8-1.9-3.6-2.2c-3.9-.8-5.3-1.7-5.3-3.9s2.1-3.9,4.4-4.2v-2.3h1.9v2.2c1.4,0,2.7.4,4.1,1.3l-.9,1.6c-1.3-.8-2.4-1.1-3.8-1.1-2.6,0-3.8.9-3.8,2.4s.8,1.7,3.6,2.2c1.8.3,5.2.8,5.2,4s-1.8,3.8-4.5,4.1Z"/>
      <path class="cls-7" d="M147.5,485l-.6,1.7c-.3-.1-.7-.2-1.1-.2-1.5,0-3,1-3,3v5.6h-1.8v-10h1.5v1.6c.9-1.2,2.1-1.9,3.6-1.9s1,0,1.4.2Z"/>
      <path class="cls-7" d="M153.5,493.6c1.1,0,2.2-.4,2.9-1.2l1.1,1.3c-1,1-2.4,1.5-4,1.5-3,0-5.3-2.1-5.3-5.3s2.1-5.2,5.2-5.2,4.7,2.3,4.7,4.6,0,.9-.1,1.4h-7.9c.3,1.8,1.6,2.9,3.4,2.9ZM150.1,489.1h6.2c0-1.5-1-2.7-2.9-2.7s-3,1.1-3.3,2.7Z"/>
      <path class="cls-7" d="M159.9,494l.8-1.4c.7.5,2.2,1,3.5,1s2.5-.3,2.5-1.4-1.2-1.1-2.6-1.4c-2.5-.5-3.9-1-3.9-2.9s2.3-3.1,4.2-3.1,2.9.4,3.8,1.1l-.8,1.4c-.7-.5-1.8-.8-3-.8s-2.3.5-2.3,1.4.4.9,2.3,1.3c2.3.4,4.2.8,4.2,3s-1.8,3.2-4.4,3.2-3.3-.5-4.3-1.3Z"/>
      <path class="cls-7" d="M181.2,490c0,3.1-2.3,5.2-5.2,5.2s-2.6-.5-3.3-1.4v6.2h-1.8v-15h1.5v1.5c.9-1.1,2.1-1.8,3.7-1.8,2.8,0,5.1,2.2,5.1,5.3ZM179.4,490c0-2.1-1.4-3.6-3.4-3.6s-3.4,1.4-3.4,3.6,1.4,3.6,3.4,3.6,3.4-1.4,3.4-3.6Z"/>
      <path class="cls-7" d="M183.2,490c0-3.1,2.2-5.3,5.3-5.3s5.3,2.2,5.3,5.3-2.2,5.3-5.3,5.3-5.3-2.2-5.3-5.3ZM191.9,490c0-2.1-1.4-3.6-3.4-3.6s-3.4,1.4-3.4,3.6,1.4,3.6,3.4,3.6,3.4-1.4,3.4-3.6Z"/>
      <path class="cls-7" d="M205.5,488.8v6.2h-1.8v-6c0-1.5-1-2.6-2.6-2.6s-3,.9-3,2.8v5.8h-1.8v-10h1.5v1.5c.8-1.1,2.1-1.8,3.5-1.8,2.3,0,4.1,1.7,4.1,4.1Z"/>
      <path class="cls-7" d="M207.8,494l.8-1.4c.7.5,2.2,1,3.5,1s2.5-.3,2.5-1.4-1.2-1.1-2.6-1.4c-2.5-.5-3.9-1-3.9-2.9s2.3-3.1,4.2-3.1,2.9.4,3.8,1.1l-.8,1.4c-.7-.5-1.8-.8-3-.8s-2.3.5-2.3,1.4.4.9,2.3,1.3c2.3.4,4.2.8,4.2,3s-1.8,3.2-4.4,3.2-3.3-.5-4.3-1.3Z"/>
      <path class="cls-7" d="M223.5,493.6c1.1,0,2.2-.4,2.9-1.2l1.1,1.3c-1,1-2.4,1.5-4,1.5-3,0-5.3-2.1-5.3-5.3s2.1-5.2,5.2-5.2,4.7,2.3,4.7,4.6,0,.9-.1,1.4h-7.9c.3,1.8,1.6,2.9,3.4,2.9ZM220.1,489.1h6.2c0-1.5-1-2.7-2.9-2.7s-3,1.1-3.3,2.7Z"/>
      <path class="cls-7" d="M235.3,486.6h9.3v1.6h-9.3v-1.6ZM235.3,490.6h9.3v1.6h-9.3v-1.6Z"/>
      <path class="cls-7" d="M258.4,495.2v2.3h-1.9v-2.2c-2.1-.2-3.9-1.1-4.8-1.7l1-1.7c1.2.9,3.1,1.6,4.8,1.6s3.4-.7,3.4-2.2-1.8-1.9-3.6-2.2c-3.9-.8-5.3-1.7-5.3-3.9s2.1-3.9,4.4-4.2v-2.3h1.9v2.2c1.4,0,2.7.4,4.1,1.3l-.9,1.6c-1.3-.8-2.4-1.1-3.8-1.1-2.6,0-3.8.9-3.8,2.4s.8,1.7,3.6,2.2c1.8.3,5.2.8,5.2,4s-1.8,3.8-4.5,4.1Z"/>
      <path class="cls-7" d="M271.9,485l-.6,1.7c-.3-.1-.7-.2-1.1-.2-1.5,0-3,1-3,3v5.6h-1.8v-10h1.5v1.6c.9-1.2,2.1-1.9,3.6-1.9s1,0,1.4.2Z"/>
      <path class="cls-7" d="M277.9,493.6c1.1,0,2.2-.4,2.9-1.2l1.1,1.3c-1,1-2.4,1.5-4,1.5-3,0-5.3-2.1-5.3-5.3s2.1-5.2,5.2-5.2,4.7,2.3,4.7,4.6,0,.9-.1,1.4h-7.9c.3,1.8,1.6,2.9,3.4,2.9ZM274.5,489.1h6.2c0-1.5-1-2.7-2.9-2.7s-3,1.1-3.3,2.7Z"/>
      <path class="cls-7" d="M294.8,485v15h-1.8v-6.2c-.7.9-1.9,1.4-3.3,1.4-2.9,0-5.2-2.1-5.2-5.2s2.3-5.3,5.1-5.3,2.8.7,3.5,1.8v-1.5h1.6ZM293.2,490c0-2.2-1.4-3.6-3.4-3.6s-3.4,1.4-3.4,3.6,1.4,3.6,3.4,3.6,3.4-1.4,3.4-3.6Z"/>
      <path class="cls-7" d="M306.7,485v10h-1.5v-1.5c-.8,1.1-1.9,1.7-3.3,1.7-2.2,0-4-1.7-4-4.1v-6.2h1.8v6.2c0,1.6,1.3,2.4,2.6,2.4s2.7-1,2.7-2.8v-5.8h1.8Z"/>
      <path class="cls-7" d="M314.4,493.6c1.1,0,2.2-.4,2.9-1.2l1.1,1.3c-1,1-2.4,1.5-4,1.5-3,0-5.3-2.1-5.3-5.3s2.1-5.2,5.2-5.2,4.7,2.3,4.7,4.6,0,.9-.1,1.4h-7.9c.3,1.8,1.6,2.9,3.4,2.9ZM311,489.1h6.2c0-1.5-1-2.7-2.9-2.7s-3,1.1-3.3,2.7Z"/>
      <path class="cls-7" d="M320.9,494l.8-1.4c.7.5,2.2,1,3.5,1s2.5-.3,2.5-1.4-1.2-1.1-2.6-1.4c-2.5-.5-3.9-1-3.9-2.9s2.3-3.1,4.2-3.1,2.9.4,3.8,1.1l-.8,1.4c-.7-.5-1.8-.8-3-.8s-2.3.5-2.3,1.4.4.9,2.3,1.3c2.3.4,4.2.8,4.2,3s-1.8,3.2-4.4,3.2-3.3-.5-4.3-1.3Z"/>
      <path class="cls-7" d="M339.1,494.2c-.6.6-1.5,1-2.9,1-2.3,0-3.6-1.2-3.6-3.6v-5.1h-2v-1.6h2v-3.1h1.8v3.1h4.2v1.6h-4.2v5.1c0,1.3.6,1.9,1.8,1.9s1.3-.2,2-.9l.9,1.5Z"/>
      <path class="cls-7" d="M347.1,488.6v1.6h-6v-1.6h6Z"/>
    </g>
    <g class="cls-8">
      <path class="cls-4" d="M357.1,488.3v2.1l-8.3,3.8v-1.9l6.5-2.9-6.5-2.9v-1.9l8.3,3.8Z"/>
      <path class="cls-4" d="M358.6,494l.8-1.4c.7.5,2.2,1,3.5,1s2.5-.3,2.5-1.4-1.2-1.1-2.6-1.4c-2.5-.5-3.9-1-3.9-2.9s2.3-3.1,4.2-3.1,2.9.4,3.8,1.1l-.8,1.4c-.7-.5-1.8-.8-3-.8s-2.3.5-2.3,1.4.4.9,2.3,1.3c2.3.4,4.2.8,4.2,3s-1.8,3.2-4.4,3.2-3.3-.5-4.3-1.3Z"/>
      <path class="cls-4" d="M374.4,493.6c1.1,0,2.2-.4,2.9-1.2l1.1,1.3c-1,1-2.4,1.5-4,1.5-3,0-5.3-2.1-5.3-5.3s2.1-5.2,5.2-5.2,4.7,2.3,4.7,4.6,0,.9-.1,1.4h-7.9c.3,1.8,1.6,2.9,3.4,2.9ZM371,489.1h6.2c0-1.5-1-2.7-2.9-2.7s-3,1.1-3.3,2.7Z"/>
      <path class="cls-4" d="M390.7,488.8v6.2h-1.8v-6c0-1.5-1-2.6-2.6-2.6s-3,.9-3,2.8v5.8h-1.8v-10h1.5v1.5c.8-1.1,2.1-1.8,3.5-1.8,2.3,0,4.1,1.7,4.1,4.1Z"/>
      <path class="cls-4" d="M403.5,480v15h-1.5v-1.5c-.9,1.1-2.1,1.8-3.7,1.8-2.8,0-5.1-2.2-5.1-5.3s2.3-5.2,5.2-5.2,2.6.5,3.3,1.4v-6.2h1.8ZM401.9,490c0-2.2-1.4-3.6-3.4-3.6s-3.4,1.4-3.4,3.6,1.4,3.6,3.4,3.6,3.4-1.4,3.4-3.6Z"/>
    </g>
    <g class="cls-8">
      <path class="cls-7" d="M406.7,489.3c0-4.1,2.2-7.2,5.4-8.6l.7,1.8c-2.5,1.1-4.1,3.6-4.1,6.8s1.6,5.7,4.1,6.8l-.7,1.8c-3.3-1.4-5.4-4.5-5.4-8.6Z"/>
      <path class="cls-7" d="M414.8,496.1c2.5-1.1,4.1-3.6,4.1-6.8s-1.6-5.7-4.1-6.8l.6-1.8c3.3,1.4,5.4,4.5,5.4,8.6s-2.2,7.2-5.4,8.6l-.6-1.8Z"/>
      <path class="cls-7" d="M424.2,492.7h2l-1.1,5.4h-1.5l.6-5.4ZM423.9,486c0-.7.6-1.3,1.3-1.3s1.3.6,1.3,1.3-.6,1.3-1.3,1.3-1.3-.6-1.3-1.3Z"/>
    </g>
    <g class="cls-8">
      <path class="cls-5" d="M132.5,523.6c1.1,0,2.2-.4,2.9-1.2l1.1,1.3c-1,1-2.4,1.5-4,1.5-3,0-5.3-2.1-5.3-5.3s2.1-5.2,5.2-5.2,4.7,2.3,4.7,4.6,0,.9-.1,1.4h-7.9c.3,1.8,1.6,2.9,3.4,2.9ZM129.1,519.1h6.2c0-1.5-1-2.7-2.9-2.7s-3,1.1-3.3,2.7Z"/>
      <path class="cls-5" d="M139.1,520c0-3.1,2.3-5.3,5.3-5.3s2.9.5,3.8,1.5l-1.2,1.3c-.5-.7-1.5-1.1-2.6-1.1-2,0-3.4,1.4-3.4,3.6s1.4,3.6,3.4,3.6,1.9-.4,2.6-1.2l1.2,1.3c-1,1-2.3,1.5-3.8,1.5-3,0-5.3-2.2-5.3-5.3Z"/>
      <path class="cls-5" d="M159.9,518.8v6.2h-1.8v-6c0-1.6-1-2.6-2.6-2.6s-3,.9-3,2.8v5.8h-1.8v-15h1.8v6.3c.7-1,1.9-1.6,3.3-1.6,2.4,0,4,1.6,4,4.1Z"/>
      <path class="cls-5" d="M162.4,520c0-3.1,2.2-5.3,5.3-5.3s5.3,2.2,5.3,5.3-2.2,5.3-5.3,5.3-5.3-2.2-5.3-5.3ZM171.1,520c0-2.1-1.4-3.6-3.4-3.6s-3.4,1.4-3.4,3.6,1.4,3.6,3.4,3.6,3.4-1.4,3.4-3.6Z"/>
    </g>
    <g class="cls-8">
      <path class="cls-7" d="M187,525.2v2.3h-1.9v-2.2c-2.1-.2-3.9-1.1-4.8-1.7l1-1.7c1.2.9,3.1,1.6,4.8,1.6s3.4-.7,3.4-2.2-1.8-1.9-3.6-2.2c-3.9-.8-5.3-1.7-5.3-3.9s2.1-3.9,4.4-4.2v-2.3h1.9v2.2c1.4,0,2.7.4,4.1,1.3l-.9,1.6c-1.3-.8-2.4-1.1-3.8-1.1-2.6,0-3.8.9-3.8,2.4s.8,1.7,3.6,2.2c1.8.3,5.2.8,5.2,4s-1.8,3.8-4.5,4.1Z"/>
      <path class="cls-7" d="M200.5,515l-.6,1.7c-.3-.1-.7-.2-1.1-.2-1.5,0-3,1-3,3v5.6h-1.8v-10h1.5v1.6c.9-1.2,2.1-1.9,3.6-1.9s1,0,1.4.2Z"/>
      <path class="cls-7" d="M206.5,523.6c1.1,0,2.2-.4,2.9-1.2l1.1,1.3c-1,1-2.4,1.5-4,1.5-3,0-5.3-2.1-5.3-5.3s2.1-5.2,5.2-5.2,4.7,2.3,4.7,4.6,0,.9-.1,1.4h-7.9c.3,1.8,1.6,2.9,3.4,2.9ZM203.1,519.1h6.2c0-1.5-1-2.7-2.9-2.7s-3,1.1-3.3,2.7Z"/>
      <path class="cls-7" d="M212.9,524l.8-1.4c.7.5,2.2,1,3.5,1s2.5-.3,2.5-1.4-1.2-1.1-2.6-1.4c-2.5-.5-3.9-1-3.9-2.9s2.3-3.1,4.2-3.1,2.9.4,3.8,1.1l-.8,1.4c-.7-.5-1.8-.8-3-.8s-2.3.5-2.3,1.4.4.9,2.3,1.3c2.3.4,4.2.8,4.2,3s-1.8,3.2-4.4,3.2-3.3-.5-4.3-1.3Z"/>
      <path class="cls-7" d="M234.3,520c0,3.1-2.3,5.2-5.2,5.2s-2.6-.5-3.3-1.4v6.2h-1.8v-15h1.5v1.5c.9-1.1,2.1-1.8,3.7-1.8,2.8,0,5.1,2.2,5.1,5.3ZM232.4,520c0-2.1-1.4-3.6-3.4-3.6s-3.4,1.4-3.4,3.6,1.4,3.6,3.4,3.6,3.4-1.4,3.4-3.6Z"/>
      <path class="cls-7" d="M236.3,520c0-3.1,2.2-5.3,5.3-5.3s5.3,2.2,5.3,5.3-2.2,5.3-5.3,5.3-5.3-2.2-5.3-5.3ZM244.9,520c0-2.1-1.4-3.6-3.4-3.6s-3.4,1.4-3.4,3.6,1.4,3.6,3.4,3.6,3.4-1.4,3.4-3.6Z"/>
      <path class="cls-7" d="M258.5,518.8v6.2h-1.8v-6c0-1.5-1-2.6-2.6-2.6s-3,.9-3,2.8v5.8h-1.8v-10h1.5v1.5c.8-1.1,2.1-1.8,3.5-1.8,2.3,0,4.1,1.7,4.1,4.1Z"/>
      <path class="cls-7" d="M260.8,524l.8-1.4c.7.5,2.2,1,3.5,1s2.5-.3,2.5-1.4-1.2-1.1-2.6-1.4c-2.5-.5-3.9-1-3.9-2.9s2.3-3.1,4.2-3.1,2.9.4,3.8,1.1l-.8,1.4c-.7-.5-1.8-.8-3-.8s-2.3.5-2.3,1.4.4.9,2.3,1.3c2.3.4,4.2.8,4.2,3s-1.8,3.2-4.4,3.2-3.3-.5-4.3-1.3Z"/>
      <path class="cls-7" d="M276.6,523.6c1.1,0,2.2-.4,2.9-1.2l1.1,1.3c-1,1-2.4,1.5-4,1.5-3,0-5.3-2.1-5.3-5.3s2.1-5.2,5.2-5.2,4.7,2.3,4.7,4.6,0,.9-.1,1.4h-7.9c.3,1.8,1.6,2.9,3.4,2.9ZM273.2,519.1h6.2c0-1.5-1-2.7-2.9-2.7s-3,1.1-3.3,2.7Z"/>
      <path class="cls-7" d="M289.2,518.6v1.6h-6v-1.6h6Z"/>
      <path class="cls-7" d="M299.3,518.3v2.1l-8.3,3.8v-1.9l6.5-2.9-6.5-2.9v-1.9l8.3,3.8Z"/>
    </g>
    <g class="cls-8">
      <path class="cls-4" d="M310.7,516.2h-1.7c.4.7.6,1.4.6,2.2,0,2.2-1.7,3.7-4.2,3.7s-.9,0-1.3-.1h-.3c-.7,0-1.1.3-1.1.9s.4.8,1.1.8h1.7c3.4,0,5,1,5,3.1s-1.6,3.4-5,3.4-5.2-1.5-5.2-3.4.5-1.7,1.4-2.2c-.6-.4-.9-1-.9-1.8s.5-1.6,1.4-1.8c-.7-.6-1.1-1.6-1.1-2.7,0-2.2,1.7-3.7,4.2-3.7s1.2,0,1.7.3h3.5v1.2ZM305.7,525.3h-1.7c-.1,0-.3,0-.4,0-.8.4-1.2.9-1.2,1.5,0,.9.8,1.8,3.4,1.8s3.2-.6,3.2-1.8-.8-1.5-3.2-1.5ZM307.9,518.4c0-1.3-.8-2.1-2.4-2.1s-2.4.8-2.4,2.1.8,2,2.4,2,2.4-.7,2.4-2Z"/>
      <path class="cls-4" d="M317.3,523.6c1.1,0,2.2-.4,2.9-1.2l1.1,1.3c-1,1-2.4,1.5-4,1.5-3,0-5.3-2.1-5.3-5.3s2.1-5.2,5.2-5.2,4.7,2.3,4.7,4.6,0,.9-.1,1.4h-7.9c.3,1.8,1.6,2.9,3.4,2.9ZM313.9,519.1h6.2c0-1.5-1-2.7-2.9-2.7s-3,1.1-3.3,2.7Z"/>
      <path class="cls-4" d="M331.5,524.2c-.6.6-1.5,1-2.9,1-2.3,0-3.6-1.2-3.6-3.6v-5.1h-2v-1.6h2v-3.1h1.8v3.1h4.2v1.6h-4.2v5.1c0,1.3.6,1.9,1.8,1.9s1.3-.2,2-.9l.9,1.5Z"/>
      <path class="cls-4" d="M345.7,521c0,2.3-1.7,4-4.4,4h-6.8v-14h6.4c2.6,0,4.2,1.5,4.2,3.7s-.8,2.7-2.1,3.1c1.7.3,2.7,1.5,2.7,3.3ZM336.4,512.8v4.1h4.4c1.5,0,2.2-.8,2.2-2.3s-.8-1.9-2.2-1.9h-4.4ZM343.7,521c0-1.4-.8-2.2-2.4-2.2h-4.9v4.5h4.9c1.6,0,2.4-.8,2.4-2.2Z"/>
      <path class="cls-4" d="M347.7,520c0-3.1,2.2-5.3,5.3-5.3s5.3,2.2,5.3,5.3-2.2,5.3-5.3,5.3-5.3-2.2-5.3-5.3ZM356.4,520c0-2.1-1.4-3.6-3.4-3.6s-3.4,1.4-3.4,3.6,1.4,3.6,3.4,3.6,3.4-1.4,3.4-3.6Z"/>
      <path class="cls-4" d="M370.5,510v15h-1.5v-1.5c-.9,1.1-2.1,1.8-3.7,1.8-2.8,0-5.1-2.2-5.1-5.3s2.3-5.2,5.2-5.2,2.6.5,3.3,1.4v-6.2h1.8ZM368.9,520c0-2.2-1.4-3.6-3.4-3.6s-3.4,1.4-3.4,3.6,1.4,3.6,3.4,3.6,3.4-1.4,3.4-3.6Z"/>
      <path class="cls-4" d="M382.8,515l-5.7,14h-1.8l1.6-4-4.3-10h2l3.2,7.7,3.1-7.7h2Z"/>
    </g>
    <g class="cls-8">
      <path class="cls-7" d="M384.8,519.3c0-4.1,2.2-7.2,5.4-8.6l.7,1.8c-2.5,1.1-4.1,3.6-4.1,6.8s1.6,5.7,4.1,6.8l-.7,1.8c-3.3-1.4-5.4-4.5-5.4-8.6Z"/>
      <path class="cls-7" d="M392.8,526.1c2.5-1.1,4.1-3.6,4.1-6.8s-1.6-5.7-4.1-6.8l.6-1.8c3.3,1.4,5.4,4.5,5.4,8.6s-2.2,7.2-5.4,8.6l-.6-1.8Z"/>
      <path class="cls-7" d="M402.3,522.7h2l-1.1,5.4h-1.5l.6-5.4ZM402,516c0-.7.6-1.3,1.3-1.3s1.3.6,1.3,1.3-.6,1.3-1.3,1.3-1.3-.6-1.3-1.3Z"/>
    </g>
    <g class="cls-8">
      <path class="cls-7" d="M112.3,548.4v1.8h-.4c-1.3,0-1.8.6-1.8,1.9v2.1c0,2.4-1.3,3.6-3.6,3.6s-.7,0-1,0v-1.8c.3,0,.6,0,.8,0,1.4,0,1.8-.7,1.8-1.9v-2.1c0-1.3.5-2.2,1.5-2.7-1-.4-1.5-1.4-1.5-2.7v-2.1c0-1.3-.5-1.9-1.8-1.9s-.5,0-.8,0v-1.8c.2,0,.6,0,1,0,2.3,0,3.6,1.2,3.6,3.6v2.1c0,1.3.6,1.9,1.8,1.9h.4Z"/>
    </g>
    <g class="cls-8">
      <path class="cls-5" d="M120,550c0-3.1,2.3-5.3,5.3-5.3s2.9.5,3.8,1.5l-1.2,1.3c-.5-.7-1.5-1.1-2.6-1.1-2,0-3.4,1.4-3.4,3.6s1.4,3.6,3.4,3.6,1.9-.4,2.6-1.2l1.2,1.3c-1,1-2.3,1.5-3.8,1.5-3,0-5.3-2.2-5.3-5.3Z"/>
      <path class="cls-5" d="M139.9,548.8v6.2h-1.5v-1.6c-1,1.2-2.5,1.9-3.9,1.9s-3.5-1.1-3.5-3.2,2.1-3.2,4-3.2,2.1.1,3.1.4v-.5c0-1.6-.9-2.4-2.6-2.4s-2.3.3-3.2,1.1l-.8-1.4c1-.8,2.5-1.4,4.2-1.4,2.6,0,4.1,1.4,4.1,4.1ZM138.2,550.8c-.9-.3-2-.4-2.9-.4-1.4,0-2.5.5-2.5,1.7s.8,1.6,2,1.6,3.4-1.1,3.4-2.8Z"/>
      <path class="cls-5" d="M150.2,554.2c-.6.6-1.5,1-2.9,1-2.3,0-3.6-1.2-3.6-3.6v-5.1h-2v-1.6h2v-3.1h1.8v3.1h4.2v1.6h-4.2v5.1c0,1.3.6,1.9,1.8,1.9s1.3-.2,2-.9l.9,1.5Z"/>
      <path class="cls-5" d="M151.5,550c0-3.1,2.3-5.3,5.3-5.3s2.9.5,3.8,1.5l-1.2,1.3c-.5-.7-1.5-1.1-2.6-1.1-2,0-3.4,1.4-3.4,3.6s1.4,3.6,3.4,3.6,1.9-.4,2.6-1.2l1.2,1.3c-1,1-2.3,1.5-3.8,1.5-3,0-5.3-2.2-5.3-5.3Z"/>
      <path class="cls-5" d="M172.4,548.8v6.2h-1.8v-6c0-1.6-1-2.6-2.6-2.6s-3,.9-3,2.8v5.8h-1.8v-15h1.8v6.3c.7-1,1.9-1.6,3.3-1.6,2.4,0,4,1.6,4,4.1Z"/>
    </g>
    <g class="cls-8">
      <path class="cls-7" d="M180.8,549.3c0-4.1,2.2-7.2,5.4-8.6l.7,1.8c-2.5,1.1-4.1,3.6-4.1,6.8s1.6,5.7,4.1,6.8l-.7,1.8c-3.3-1.4-5.4-4.5-5.4-8.6Z"/>
      <path class="cls-7" d="M201.5,541v14h-1.9v-6.2h-7.8v6.2h-1.9v-14h1.9v6h7.8v-6h1.9Z"/>
      <path class="cls-7" d="M212.2,554.2c-.6.6-1.5,1-2.9,1-2.3,0-3.6-1.2-3.6-3.6v-5.1h-2v-1.6h2v-3.1h1.8v3.1h4.2v1.6h-4.2v5.1c0,1.3.6,1.9,1.8,1.9s1.3-.2,2-.9l.9,1.5Z"/>
      <path class="cls-7" d="M221.9,554.2c-.6.6-1.5,1-2.9,1-2.3,0-3.6-1.2-3.6-3.6v-5.1h-2v-1.6h2v-3.1h1.8v3.1h4.2v1.6h-4.2v5.1c0,1.3.6,1.9,1.8,1.9s1.3-.2,2-.9l.9,1.5Z"/>
      <path class="cls-7" d="M234.7,550c0,3.1-2.3,5.2-5.2,5.2s-2.6-.5-3.3-1.4v6.2h-1.8v-15h1.5v1.5c.9-1.1,2.1-1.8,3.7-1.8,2.8,0,5.1,2.2,5.1,5.3ZM232.9,550c0-2.1-1.4-3.6-3.4-3.6s-3.4,1.4-3.4,3.6,1.4,3.6,3.4,3.6,3.4-1.4,3.4-3.6Z"/>
      <path class="cls-7" d="M247.7,553.2v1.8h-9.9v-14h9.8v1.8h-7.8v4.2h7.5v1.8h-7.5v4.4h8Z"/>
      <path class="cls-7" d="M256.9,555l-2.8-3.8-2.8,3.8h-2.2l3.9-5.1-3.8-4.9h2.2l2.7,3.7,2.7-3.7h2.3l-3.8,4.9,3.9,5.1h-2.3Z"/>
      <path class="cls-7" d="M259.8,550c0-3.1,2.3-5.3,5.3-5.3s2.9.5,3.8,1.5l-1.2,1.3c-.5-.7-1.5-1.1-2.6-1.1-2,0-3.4,1.4-3.4,3.6s1.4,3.6,3.4,3.6,1.9-.4,2.6-1.2l1.2,1.3c-1,1-2.3,1.5-3.8,1.5-3,0-5.3-2.2-5.3-5.3Z"/>
      <path class="cls-7" d="M275.6,553.6c1.1,0,2.2-.4,2.9-1.2l1.1,1.3c-1,1-2.4,1.5-4,1.5-3,0-5.3-2.1-5.3-5.3s2.1-5.2,5.2-5.2,4.7,2.3,4.7,4.6,0,.9-.1,1.4h-7.9c.3,1.8,1.6,2.9,3.4,2.9ZM272.2,549.1h6.2c0-1.5-1-2.7-2.9-2.7s-3,1.1-3.3,2.7Z"/>
      <path class="cls-7" d="M293.1,550c0,3.1-2.3,5.2-5.2,5.2s-2.6-.5-3.3-1.4v6.2h-1.8v-15h1.5v1.5c.9-1.1,2.1-1.8,3.7-1.8,2.8,0,5.1,2.2,5.1,5.3ZM291.2,550c0-2.1-1.4-3.6-3.4-3.6s-3.4,1.4-3.4,3.6,1.4,3.6,3.4,3.6,3.4-1.4,3.4-3.6Z"/>
      <path class="cls-7" d="M302.8,554.2c-.6.6-1.5,1-2.9,1-2.3,0-3.6-1.2-3.6-3.6v-5.1h-2v-1.6h2v-3.1h1.8v3.1h4.2v1.6h-4.2v5.1c0,1.3.6,1.9,1.8,1.9s1.3-.2,2-.9l.9,1.5Z"/>
      <path class="cls-7" d="M305.3,542.2c0-.7.5-1.2,1.2-1.2s1.2.5,1.2,1.2-.5,1.2-1.2,1.2-1.2-.5-1.2-1.2ZM307.4,555h-1.8v-10h1.8v10Z"/>
      <path class="cls-7" d="M310.1,550c0-3.1,2.2-5.3,5.3-5.3s5.3,2.2,5.3,5.3-2.2,5.3-5.3,5.3-5.3-2.2-5.3-5.3ZM318.8,550c0-2.1-1.4-3.6-3.4-3.6s-3.4,1.4-3.4,3.6,1.4,3.6,3.4,3.6,3.4-1.4,3.4-3.6Z"/>
      <path class="cls-7" d="M332.3,548.8v6.2h-1.8v-6c0-1.5-1-2.6-2.6-2.6s-3,.9-3,2.8v5.8h-1.8v-10h1.5v1.5c.8-1.1,2.1-1.8,3.5-1.8,2.3,0,4.1,1.7,4.1,4.1Z"/>
      <path class="cls-7" d="M346.9,555.2v2.3h-1.9v-2.2c-2.1-.2-3.9-1.1-4.8-1.7l1-1.7c1.2.9,3.1,1.6,4.8,1.6s3.4-.7,3.4-2.2-1.8-1.9-3.6-2.2c-3.9-.8-5.3-1.7-5.3-3.9s2.1-3.9,4.4-4.2v-2.3h1.9v2.2c1.4,0,2.7.4,4.1,1.3l-.9,1.6c-1.3-.8-2.4-1.1-3.8-1.1-2.6,0-3.8.9-3.8,2.4s.8,1.7,3.6,2.2c1.8.3,5.2.8,5.2,4s-1.8,3.8-4.5,4.1Z"/>
      <path class="cls-7" d="M358.6,553.6c1.1,0,2.2-.4,2.9-1.2l1.1,1.3c-1,1-2.4,1.5-4,1.5-3,0-5.3-2.1-5.3-5.3s2.1-5.2,5.2-5.2,4.7,2.3,4.7,4.6,0,.9-.1,1.4h-7.9c.3,1.8,1.6,2.9,3.4,2.9ZM355.2,549.1h6.2c0-1.5-1-2.7-2.9-2.7s-3,1.1-3.3,2.7Z"/>
      <path class="cls-7" d="M372.4,555l-2.8-3.8-2.8,3.8h-2.2l3.9-5.1-3.8-4.9h2.2l2.7,3.7,2.7-3.7h2.3l-3.8,4.9,3.9,5.1h-2.3Z"/>
      <path class="cls-7" d="M376.1,556.1c2.5-1.1,4.1-3.6,4.1-6.8s-1.6-5.7-4.1-6.8l.6-1.8c3.3,1.4,5.4,4.5,5.4,8.6s-2.2,7.2-5.4,8.6l-.6-1.8Z"/>
      <path class="cls-7" d="M393.1,549.3c1,.4,1.5,1.4,1.5,2.7v2.1c0,1.3.5,1.9,1.8,1.9s.5,0,.8,0v1.8c-.2,0-.5,0-1,0-2.3,0-3.6-1.2-3.6-3.6v-2.1c0-1.3-.6-1.9-1.8-1.9h-.4v-1.8h.4c1.3,0,1.8-.6,1.8-1.9v-2.1c0-2.4,1.3-3.6,3.6-3.6s.7,0,1,0v1.8c-.3,0-.6,0-.8,0-1.3,0-1.8.7-1.8,1.9v2.1c0,1.3-.5,2.2-1.5,2.7Z"/>
    </g>
  </g>
  <g class="cls-8">
    <g class="cls-8">
      <path class="cls-5" d="M57.3,91.4v13.6h-1.9v-11.1l-3.7,1.6v-1.9l5.2-2.2h.5Z"/>
    </g>
    <g class="cls-8">
      <path class="cls-5" d="M61.1,133.2v1.8h-8.8v-1.5h0s5.2-5.4,5.2-5.4c.9-.9,1.4-1.5,1.4-2.6s-.9-2.6-2.5-2.6-2.3.6-3,1.7l-1.4-1.2c.9-1.6,2.6-2.4,4.4-2.4s4.5,1.6,4.5,4.5-.6,2.6-1.9,3.9l-3.6,3.7h5.7Z"/>
    </g>
    <g class="cls-8">
      <path class="cls-5" d="M61.8,161.2c0,2.4-2.1,4-5.2,4s-3.7-.8-4.5-1.8l1.3-1.3c.6.8,1.6,1.3,3.2,1.3s3.3-.9,3.3-2.2-1.2-2.2-3.2-2.2h-1.7v-1.8h1.6c1.8,0,2.9-.7,2.9-2.1s-.9-2.1-2.9-2.1-2.4.5-2.9,1.3l-1.4-1.2c.8-1.2,2.4-1.9,4.3-1.9,2.9,0,4.9,1.6,4.9,3.9s-.7,2.4-1.8,3c1.3.6,2.2,1.7,2.2,3.2Z"/>
    </g>
    <g class="cls-8">
      <path class="cls-5" d="M62.2,192.1h-2.2v2.9h-1.9v-2.9h-6.3v-1.5l5-9.2h2.2l-4.8,8.9h3.9v-3.5h1.9v3.5h2.2v1.8Z"/>
    </g>
    <g class="cls-8">
      <path class="cls-5" d="M61.8,220.9c0,2.6-2.1,4.4-5,4.4s-3.7-.9-4.5-2.3l1.3-1.3c.6,1.1,1.7,1.8,3.2,1.8s3.1-1,3.1-2.5-1.1-2.5-3.1-2.5-1.7.2-2.2.6l-1.3-1.4.3-6.3h7.5v1.8h-5.7l-.2,3.5c.5-.1,1-.2,1.6-.2,3,0,5,1.8,5,4.3Z"/>
    </g>
    <g class="cls-8">
      <path class="cls-5" d="M62.4,250.5c0,3-2.1,4.8-5,4.8s-5-1.9-5-4.7.2-1.5.7-2.2l4.3-7h2.3l-2.9,4.9c.4,0,.7-.1,1.2-.1,2.7,0,4.6,1.9,4.6,4.3ZM60.4,250.5c0-1.4-1.1-2.5-3-2.5s-3,1.1-3,2.5,1.2,2.9,3,2.9,3-1.1,3-2.9Z"/>
    </g>
    <g class="cls-8">
      <path class="cls-5" d="M60.9,271.4v1.5l-6.1,12.1h-2.2l5.9-11.8h-7.1v-1.8h9.4Z"/>
    </g>
    <g class="cls-8">
      <path class="cls-5" d="M62.9,311.2c0,2.4-2.1,4-5.2,4s-5.3-1.7-5.3-4,.8-2.6,2.2-3.2c-1.2-.6-1.9-1.6-1.9-3,0-2.3,2-3.9,4.9-3.9s4.9,1.6,4.9,3.9-.6,2.4-1.9,3c1.5.6,2.2,1.7,2.2,3.2ZM60.9,311.2c0-1.3-1.2-2.2-3.2-2.2s-3.3.9-3.3,2.2,1.3,2.2,3.3,2.2,3.2-.9,3.2-2.2ZM54.8,305.1c0,1.3,1,2.1,2.9,2.1s2.9-.7,2.9-2.1-.9-2.1-2.9-2.1-2.9.8-2.9,2.1Z"/>
    </g>
    <g class="cls-8">
      <path class="cls-5" d="M62.2,335.7c0,1-.3,1.8-.8,2.5l-4.4,6.8h-2.3l3.2-4.9c-.4,0-.8.1-1.2.1-2.8,0-4.6-1.9-4.6-4.5s2.1-4.6,5-4.6,5,1.9,5,4.5ZM57.2,333c-1.8,0-3,1.1-3,2.7s1.1,2.7,3,2.7,3-1.1,3-2.7c0-1.6-1.2-2.7-3-2.7Z"/>
    </g>
    <g class="cls-8">
      <path class="cls-5" d="M57.3,361.4v13.6h-1.9v-11.1l-3.7,1.6v-1.9l5.2-2.2h.5Z"/>
      <path class="cls-5" d="M60.7,368.2c0-4.2,2.5-7.1,5.8-7.1s5.8,2.9,5.8,7.1-2.5,7.1-5.8,7.1-5.8-2.9-5.8-7.1ZM70.3,368.2c0-3.1-1.6-5.2-3.8-5.2s-3.8,2.1-3.8,5.2,1.6,5.2,3.8,5.2,3.8-2.1,3.8-5.2Z"/>
    </g>
    <g class="cls-8">
      <path class="cls-5" d="M57.3,391.4v13.6h-1.9v-11.1l-3.7,1.6v-1.9l5.2-2.2h.5Z"/>
      <path class="cls-5" d="M65.5,391.4v13.6h-1.9v-11.1l-3.7,1.6v-1.9l5.2-2.2h.5Z"/>
    </g>
    <g class="cls-8">
      <path class="cls-5" d="M57.3,421.4v13.6h-1.9v-11.1l-3.7,1.6v-1.9l5.2-2.2h.5Z"/>
      <path class="cls-5" d="M69.4,433.2v1.8h-8.8v-1.5h0s5.2-5.4,5.2-5.4c.9-.9,1.4-1.5,1.4-2.6s-.9-2.6-2.5-2.6-2.3.6-3,1.7l-1.4-1.2c.9-1.6,2.6-2.4,4.4-2.4s4.5,1.6,4.5,4.5-.6,2.6-1.9,3.9l-3.6,3.7h5.7Z"/>
    </g>
    <g class="cls-8">
      <path class="cls-5" d="M57.3,451.4v13.6h-1.9v-11.1l-3.7,1.6v-1.9l5.2-2.2h.5Z"/>
      <path class="cls-5" d="M70,461.2c0,2.4-2.1,4-5.2,4s-3.7-.8-4.5-1.8l1.3-1.3c.6.8,1.6,1.3,3.2,1.3s3.3-.9,3.3-2.2-1.2-2.2-3.2-2.2h-1.7v-1.8h1.6c1.8,0,2.9-.7,2.9-2.1s-.9-2.1-2.9-2.1-2.4.5-2.9,1.3l-1.4-1.2c.8-1.2,2.4-1.9,4.3-1.9,2.9,0,4.9,1.6,4.9,3.9s-.7,2.4-1.8,3c1.3.6,2.2,1.7,2.2,3.2Z"/>
    </g>
    <g class="cls-8">
      <path class="cls-5" d="M57.3,481.4v13.6h-1.9v-11.1l-3.7,1.6v-1.9l5.2-2.2h.5Z"/>
      <path class="cls-5" d="M70.5,492.1h-2.2v2.9h-1.9v-2.9h-6.3v-1.5l5-9.2h2.2l-4.8,8.9h3.9v-3.5h1.9v3.5h2.2v1.8Z"/>
    </g>
    <g class="cls-8">
      <path class="cls-5" d="M57.3,511.4v13.6h-1.9v-11.1l-3.7,1.6v-1.9l5.2-2.2h.5Z"/>
      <path class="cls-5" d="M70,520.9c0,2.6-2.1,4.4-5,4.4s-3.7-.9-4.5-2.3l1.3-1.3c.6,1.1,1.7,1.8,3.2,1.8s3.1-1,3.1-2.5-1.1-2.5-3.1-2.5-1.7.2-2.2.6l-1.3-1.4.3-6.3h7.5v1.8h-5.7l-.2,3.5c.5-.1,1-.2,1.6-.2,3,0,5,1.8,5,4.3Z"/>
    </g>
    <g class="cls-8">
      <path class="cls-5" d="M57.3,541.4v13.6h-1.9v-11.1l-3.7,1.6v-1.9l5.2-2.2h.5Z"/>
      <path class="cls-5" d="M70.7,550.5c0,3-2.1,4.8-5,4.8s-5-1.9-5-4.7.2-1.5.7-2.2l4.3-7h2.3l-2.9,4.9c.4,0,.7-.1,1.2-.1,2.7,0,4.6,1.9,4.6,4.3ZM68.7,550.5c0-1.4-1.1-2.5-3-2.5s-3,1.1-3,2.5,1.2,2.9,3,2.9,3-1.1,3-2.9Z"/>
    </g>
  </g>
  <g class="cls-8">
    <g class="cls-8">
      <path class="cls-1" d="M67.3,41.7l-11.8,5.2,11.8,5.3v3.5l-14.9-6.8v-3.8l14.9-6.8v3.5Z"/>
      <path class="cls-1" d="M94.6,45v3.8l-14.9,6.8v-3.5l11.8-5.3-11.8-5.2v-3.5l14.9,6.8Z"/>
    </g>
  </g>
</svg>