<svg xmlns="http://www.w3.org/2000/svg" xmlns:xlink="http://www.w3.org/1999/xlink" width="481.298" height="33.73" viewBox="0 0 481.298 33.73">
  <defs>
    <clipPath id="clip-path">
      <rect id="Rectangle_1219" data-name="Rectangle 1219" width="481.298" height="33.73" transform="translate(0 0)" fill="#f06661"/>
    </clipPath>
  </defs>
  <g id="Group_404" data-name="Group 404" clip-path="url(#clip-path)">
    <path id="Path_314" data-name="Path 314" d="M692.6,59.29a3.467,3.467,0,0,1-2.458-1.019L684.17,52.3a1.663,1.663,0,0,0-2.3,0l-.523.541-2-2,.545-.541a4.56,4.56,0,0,1,6.294,0l5.954,5.977a.64.64,0,0,0,.894,0l1.341-1.341a.647.647,0,0,0,0-.894l-1.394-1.395,2-2,1.4,1.394a3.473,3.473,0,0,1,0,4.912l0,.005-1.341,1.341a3.445,3.445,0,0,1-2.436.984" transform="translate(-354.037 -25.559)" fill="#f06661"/>
    <path id="Path_315" data-name="Path 315" d="M697.682,28.663l-.769-.769a4.448,4.448,0,0,1,0-6.29l0,0,5.968-5.967a.653.653,0,0,0,0-.917l-1.341-1.341a.638.638,0,0,0-.447-.188.626.626,0,0,0-.447.188L699.3,14.717l-1.993-2,1.341-1.341a3.576,3.576,0,0,1,4.917,0l1.363,1.341a3.478,3.478,0,0,1,0,4.917L698.912,23.6a1.618,1.618,0,0,0-.009,2.288l.009.009.769.769Z" transform="translate(-362.511 -5.419)" fill="#f06661"/>
    <path id="Path_316" data-name="Path 316" d="M671.344,20.62a4.436,4.436,0,0,1-3.129-1.305l-5.981-5.976a.644.644,0,0,0-.447-.188.658.658,0,0,0-.447.188L660,14.68a.653.653,0,0,0,0,.917l1.189,1.247-2,2-1.211-1.216a3.477,3.477,0,0,1,0-4.917l1.341-1.341a3.577,3.577,0,0,1,4.917,0l5.963,5.95a1.659,1.659,0,0,0,2.3,0l.854-.849,2,2-.853.854a4.424,4.424,0,0,1-3.147,1.3" transform="translate(-342.368 -5.414)" fill="#f06661"/>
    <path id="Path_317" data-name="Path 317" d="M661.788,50.693a3.451,3.451,0,0,1-2.454-1.019l-1.341-1.341a3.477,3.477,0,0,1,0-4.917l5.972-5.972a1.632,1.632,0,0,0,0-2.3l-.6-.6,2-2,.6.6a4.448,4.448,0,0,1,0,6.29l0,0L659.969,45.4a.639.639,0,0,0,0,.894l1.34,1.341a.65.65,0,0,0,.448.193.633.633,0,0,0,.446-.193l1.341-1.341,2,2L664.2,49.634a3.452,3.452,0,0,1-2.414,1.059" transform="translate(-342.377 -16.963)" fill="#f06661"/>
    <path id="Path_318" data-name="Path 318" d="M701.311,44.216l-2-2,4.958-4.952a1.614,1.614,0,0,0,0-2.266l-.778-.778,2-2,.778.778a4.439,4.439,0,0,1,0,6.258Z" transform="translate(-364.442 -16.793)" fill="#f06661"/>
    <path id="Path_319" data-name="Path 319" d="M689.008,19.292l-5.1-5.1a1.654,1.654,0,0,0-2.279,0l-.756.778-2.012-2.02.756-.755a4.54,4.54,0,0,1,6.258,0l5.132,5.1Z" transform="translate(-353.783 -5.703)" fill="#f06661"/>
    <path id="Path_320" data-name="Path 320" d="M659.44,35.241l-.653-.653a4.439,4.439,0,0,1,0-6.258l5.073-5.078,2,2-5.064,5.069a1.614,1.614,0,0,0,0,2.282l0,0,.644.639Z" transform="translate(-342.65 -12.118)" fill="#f06661"/>
    <path id="Path_321" data-name="Path 321" d="M678.156,60.858a4.435,4.435,0,0,1-3.129-1.3l-5.015-5.024,2-1.981,5.006,5a1.645,1.645,0,0,0,2.28,0l.8-.787,2,2-.8.809a4.433,4.433,0,0,1-3.142,1.283" transform="translate(-349.172 -27.388)" fill="#f06661"/>
    <path id="Path_322" data-name="Path 322" d="M928.543,21.835V43.944h-5.427l-.264-3.017a8.19,8.19,0,0,1-7,3.576c-5.735,0-10.464-4.859-10.464-11.694s4.729-11.555,10.638-11.555a8.344,8.344,0,0,1,6.521,2.8V21.818Zm-5.579,11.023c0-3.545-2.32-6-5.694-6s-5.69,2.5-5.69,6,2.319,6,5.69,6,5.694-2.4,5.694-6" transform="translate(-471.834 -11.076)" fill="#f06661"/>
    <path id="Path_323" data-name="Path 323" d="M795.678,18.72V32.957h-6.021V20.039c0-2.682-1.622-4.22-4.3-4.22-2.374,0-5.011,1.448-5.011,4.309V32.957H774.28V0h6.061V13.052a8.785,8.785,0,0,1,6.768-2.856c4.952,0,8.569,3.295,8.569,8.524" transform="translate(-403.51 0)" fill="#f06661"/>
    <path id="Path_324" data-name="Path 324" d="M841.445,22.815a10.983,10.983,0,0,0-2.968,4.725,7.41,7.41,0,0,0-2.682-.528c-2.726,0-5.14,1.712-5.14,4.877V44.06h-6.061V21.872h5.493l.264,3.076c1.493-2.284,3.428-3.706,6.258-3.639a10.112,10.112,0,0,1,4.836,1.506" transform="translate(-429.731 -11.104)" fill="#f06661"/>
    <path id="Path_325" data-name="Path 325" d="M868.324,39.414a7.668,7.668,0,0,0,5.319-2.047l3.952,3.777a13,13,0,0,1-9.1,3.518c-6.9,0-12.037-4.658-12.037-11.733,0-6.7,4.658-11.6,11.6-11.6,7.384,0,10.853,5.185,10.853,10.5a21.622,21.622,0,0,1-.308,3.3H862.7a5.34,5.34,0,0,0,5.627,4.287M862.7,30.89h10.33c-.219-2.593-2.02-4.309-5.011-4.309A5.157,5.157,0,0,0,862.7,30.89Z" transform="translate(-446.338 -11.115)" fill="#f06661"/>
    <path id="Path_326" data-name="Path 326" d="M979.805,0V32.957h-5.449l-.259-3.031a8.224,8.224,0,0,1-7.027,3.6c-5.757,0-10.5-4.836-10.5-11.733s4.747-11.6,10.679-11.6a8.352,8.352,0,0,1,6.548,2.767V0Zm-6.477,21.84c0-3.6-2.329-6.021-5.713-6.021S961.9,18.237,961.9,21.84s2.329,6.021,5.712,6.021,5.713-2.329,5.713-6.021" transform="translate(-498.507 0)" fill="#f06661"/>
    <path id="Path_327" data-name="Path 327" d="M751.643,24.424c-.107.192-3.161,7.787-8.662,7.679A3.753,3.753,0,0,1,739,28.161v-8h7.859V14.715h-7.867V8.149l-6.061,2.48V14.7h-4.22v5.449h4.22v8.614c0,5.748,3.259,9.2,8.94,9.2a11.619,11.619,0,0,0,8.6-3.884,47.425,47.425,0,0,0,5.136-6.258Z" transform="translate(-379.761 -4.247)" fill="#f06661"/>
    <path id="Path_328" data-name="Path 328" d="M0,32.995c0-6.86,4.925-11.653,11.7-11.653a11.4,11.4,0,0,1,8.75,3.737l-4.485,3.826a5.233,5.233,0,0,0-4.221-1.935c-3.3,0-5.541,2.418-5.541,6.024s2.2,6.025,5.584,6.025a5.118,5.118,0,0,0,4.4-2.243l4.529,3.87A11.423,11.423,0,0,1,11.7,44.691,11.27,11.27,0,0,1,0,32.995" transform="translate(0 -11.122)" fill="#f06661"/>
    <path id="Path_329" data-name="Path 329" d="M43.214,32.995c0-6.86,5.013-11.653,11.916-11.653s11.96,4.749,11.96,11.653-5.057,11.7-11.96,11.7S43.214,39.9,43.214,32.995m17.633,0c0-3.562-2.287-6.024-5.717-6.024s-5.716,2.418-5.716,6.024,2.286,6.025,5.716,6.025,5.717-2.419,5.717-6.025" transform="translate(-22.521 -11.122)" fill="#f06661"/>
    <path id="Path_330" data-name="Path 330" d="M119.13,29.872V44.119h-6.025V31.192a4,4,0,0,0-4.265-4.222c-2.419,0-5.058,1.451-5.058,4.309v12.84H97.715V21.913h5.453l.264,2.726a8.6,8.6,0,0,1,7.035-3.3c4.925,0,8.663,3.341,8.663,8.53" transform="translate(-50.923 -11.122)" fill="#f06661"/>
    <path id="Path_331" data-name="Path 331" d="M170.4,29.872V44.119h-6.024V31.192a4,4,0,0,0-4.265-4.222c-2.419,0-5.057,1.451-5.057,4.309v12.84h-6.068V21.913h5.453l.264,2.726a8.6,8.6,0,0,1,7.035-3.3c4.925,0,8.663,3.341,8.663,8.53" transform="translate(-77.642 -11.122)" fill="#f06661"/>
    <path id="Path_332" data-name="Path 332" d="M209.783,39.458a7.67,7.67,0,0,0,5.321-2.066l3.957,3.782a13.026,13.026,0,0,1-9.1,3.518c-6.9,0-12.049-4.661-12.049-11.741,0-6.727,4.661-11.608,11.609-11.608,7.387,0,10.861,5.188,10.861,10.509a21.928,21.928,0,0,1-.308,3.3H204.154a5.338,5.338,0,0,0,5.628,4.309m-5.628-8.53h10.333c-.22-2.594-2.023-4.309-5.013-4.309a5.155,5.155,0,0,0-5.321,4.309" transform="translate(-103.139 -11.122)" fill="#f06661"/>
    <path id="Path_333" data-name="Path 333" d="M258.926,27.988c-3.3,0-5.54,2.023-5.54,5.628s2.2,6.024,5.584,6.024a5.119,5.119,0,0,0,4.4-2.242l4.529,3.87a11.422,11.422,0,0,1-9.014,4.045,11.27,11.27,0,0,1-11.7-11.7c0-6.86,4.926-11.081,11.7-11.081" transform="translate(-128.819 -11.744)" fill="#f06661"/>
    <path id="Path_334" data-name="Path 334" d="M297.274,36.072a9.851,9.851,0,0,1-6.639,2.111c-5.673,0-8.795-2.946-8.795-8.707V20.857H271.656l-.044-5.453H281.84V8.853h6.068V15.4h7.871v5.453h-7.871v8c0,2.463,1.143,3.65,3.474,3.65a5.418,5.418,0,0,0,3.474-1.231Z" transform="translate(-141.549 -4.614)" fill="#f06661"/>
    <path id="Path_335" data-name="Path 335" d="M337.361,39.458a7.67,7.67,0,0,0,5.321-2.066l3.957,3.782a13.026,13.026,0,0,1-9.1,3.518c-6.9,0-12.049-4.661-12.049-11.741,0-6.727,4.661-11.608,11.609-11.608,7.387,0,10.861,5.188,10.861,10.509a21.928,21.928,0,0,1-.308,3.3H331.732a5.338,5.338,0,0,0,5.628,4.309m-5.628-8.53h10.333c-.22-2.594-2.023-4.309-5.013-4.309a5.155,5.155,0,0,0-5.321,4.309" transform="translate(-169.626 -11.122)" fill="#f06661"/>
    <path id="Path_336" data-name="Path 336" d="M398.263.038V33.017h-5.453l-.264-3.034a8.219,8.219,0,0,1-7.035,3.606c-5.76,0-10.509-4.837-10.509-11.741,0-6.86,4.749-11.608,10.685-11.608a8.347,8.347,0,0,1,6.552,2.77V.038Zm-5.628,21.854c0-3.606-2.331-6.024-5.717-6.024s-5.716,2.418-5.716,6.024,2.33,6.025,5.716,6.025c3.342,0,5.717-2.331,5.717-6.025" transform="translate(-195.429 -0.02)" fill="#f06661"/>
    <path id="Path_337" data-name="Path 337" d="M480.684,22.535l-7.607,22.206h-6.728l-4.661-14.731-4.661,14.731h-6.772l-7.564-22.206h6.42l4.705,15.214,4.793-15.214h6.112l4.793,15.171,4.7-15.171Z" transform="translate(-230.706 -11.744)" fill="#f06661"/>
    <path id="Path_338" data-name="Path 338" d="M523.5,5.2a3.694,3.694,0,0,1,7.387,0,3.694,3.694,0,0,1-7.387,0m6.728,28.582h-6.069V11.576h6.069Z" transform="translate(-272.82 -0.785)" fill="#f06661"/>
    <path id="Path_339" data-name="Path 339" d="M562.719,36.072a9.85,9.85,0,0,1-6.639,2.111c-5.673,0-8.795-2.946-8.795-8.707V20.857h-4.221V15.4h4.221V8.853h6.068V15.4h7.871v5.453h-7.871v8c0,2.463,1.143,3.65,3.474,3.65a5.418,5.418,0,0,0,3.474-1.231Z" transform="translate(-283.013 -4.614)" fill="#f06661"/>
    <path id="Path_340" data-name="Path 340" d="M609.005,18.769V33.016h-6.024V20.089c0-2.683-1.627-4.222-4.309-4.222-2.375,0-5.013,1.451-5.013,4.309v12.84h-6.068V.037h6.068V13.1a8.736,8.736,0,0,1,6.772-2.858c4.969,0,8.574,3.3,8.574,8.53" transform="translate(-306.219 -0.019)" fill="#f06661"/>
  </g>
</svg>
