<?xml version="1.0" encoding="UTF-8"?>
<svg id="_Слой_1" data-name="Слой 1" xmlns="http://www.w3.org/2000/svg" version="1.1" viewBox="0 0 890.1548 10">
  <defs>
    <style>
      .cls-1 {
        fill: #004b91;
        stroke-width: 0px;
      }
    </style>
  </defs>
  <circle class="cls-1" cx="886.6548" cy="3.5" r="3.5"/>
  <circle class="cls-1" cx="877.16187" cy="3.5" r="3.5"/>
  <circle class="cls-1" cx="867.66894" cy="3.5" r="3.5"/>
  <circle class="cls-1" cx="858.17602" cy="3.5" r="3.5"/>
  <circle class="cls-1" cx="848.68309" cy="3.5" r="3.5"/>
  <circle class="cls-1" cx="839.19016" cy="3.5" r="3.325"/>
  <circle class="cls-1" cx="829.69723" cy="3.5" r="3.325"/>
  <circle class="cls-1" cx="820.20431" cy="3.5" r="3.325"/>
  <circle class="cls-1" cx="810.71138" cy="3.5" r="3.325"/>
  <circle class="cls-1" cx="801.21845" cy="3.5" r="3.325"/>
  <circle class="cls-1" cx="791.72552" cy="3.5" r="3.15"/>
  <circle class="cls-1" cx="782.3201" cy="3.5" r="3.15"/>
  <circle class="cls-1" cx="772.91467" cy="3.5" r="3.15"/>
  <circle class="cls-1" cx="763.50924" cy="3.5" r="3.15"/>
  <circle class="cls-1" cx="754.10381" cy="3.5" r="3.15"/>
  <circle class="cls-1" cx="744.26088" cy="3.5" r="2.975"/>
  <circle class="cls-1" cx="734.76796" cy="3.5" r="2.975"/>
  <circle class="cls-1" cx="725.27503" cy="3.5" r="2.975"/>
  <circle class="cls-1" cx="715.7821" cy="3.5" r="2.975"/>
  <circle class="cls-1" cx="706.28917" cy="3.5" r="2.975"/>
  <circle class="cls-1" cx="696.36504" cy="3.5" r="2.8"/>
  <circle class="cls-1" cx="687.03541" cy="3.5" r="2.8"/>
  <circle class="cls-1" cx="677.27457" cy="3.5" r="2.8"/>
  <circle class="cls-1" cx="667.94493" cy="3.5" r="2.8"/>
  <circle class="cls-1" cx="658.4193" cy="3.5" r="2.8"/>
  <circle class="cls-1" cx="648.93039" cy="3.5" r="2.625"/>
  <circle class="cls-1" cx="639.02825" cy="3.5" r="2.625"/>
  <circle class="cls-1" cx="629.35568" cy="3.5" r="2.625"/>
  <circle class="cls-1" cx="620.21875" cy="3.5" r="2.625"/>
  <circle class="cls-1" cx="610.31661" cy="3.5" r="2.625"/>
  <circle class="cls-1" cx="601.02524" cy="3.5" r="2.45"/>
  <circle class="cls-1" cx="591.53531" cy="3.5" r="2.45"/>
  <circle class="cls-1" cx="582.04538" cy="3.5" r="2.45"/>
  <circle class="cls-1" cx="572.55545" cy="3.5" r="2.45"/>
  <circle class="cls-1" cx="563.06552" cy="3.5" r="2.45"/>
  <circle class="cls-1" cx="553.57559" cy="3.5" r="2.45"/>
  <circle class="cls-1" cx="544.08566" cy="3.5" r="2.45"/>
  <circle class="cls-1" cx="534.6046" cy="3.5" r="2.275"/>
  <circle class="cls-1" cx="524.78963" cy="3.5" r="2.275"/>
  <circle class="cls-1" cx="514.97466" cy="3.5" r="2.275"/>
  <circle class="cls-1" cx="505.66736" cy="3.5" r="2.275"/>
  <circle class="cls-1" cx="496.36006" cy="3.5" r="2.275"/>
  <circle class="cls-1" cx="486.88354" cy="3.5" r="2.275"/>
  <circle class="cls-1" cx="420.04234" cy="3.5" r="1.75"/>
  <circle class="cls-1" cx="410.40327" cy="3.5" r="1.75"/>
  <circle class="cls-1" cx="400.7642" cy="3.5" r="1.75"/>
  <circle class="cls-1" cx="391.12513" cy="3.5" r="1.75"/>
  <circle class="cls-1" cx="381.96802" cy="3.5" r="1.75"/>
  <circle class="cls-1" cx="372.32895" cy="3.5" r="1.75"/>
  <circle class="cls-1" cx="362.68988" cy="3.5" r="1.75"/>
  <circle class="cls-1" cx="353.05081" cy="3.5" r="1.75"/>
  <circle class="cls-1" cx="343.98292" cy="3.5" r="1.575"/>
  <circle class="cls-1" cx="334.24669" cy="3.5" r="1.575"/>
  <circle class="cls-1" cx="324.8252" cy="3.5" r="1.575"/>
  <circle class="cls-1" cx="315.08897" cy="3.5" r="1.575"/>
  <circle class="cls-1" cx="305.35275" cy="3.5" r="1.575"/>
  <circle class="cls-1" cx="296.14759" cy="3.5" r="1.575"/>
  <circle class="cls-1" cx="286.6073" cy="3.5" r="1.4"/>
  <circle class="cls-1" cx="277.21426" cy="3.5" r="1.4"/>
  <circle class="cls-1" cx="267.82122" cy="3.5" r="1.4"/>
  <circle class="cls-1" cx="258.19034" cy="3.5" r="1.4"/>
  <circle class="cls-1" cx="248.7973" cy="3.5" r="1.4"/>
  <circle class="cls-1" cx="239.15445" cy="3.5" r="1.4"/>
  <circle class="cls-1" cx="229.51159" cy="3.5" r="1.4"/>
  <circle class="cls-1" cx="220.11855" cy="3.5" r="1.4"/>
  <circle class="cls-1" cx="210.20091" cy="3.5" r="1.4"/>
  <circle class="cls-1" cx="200.71401" cy="3.5" r="1.225"/>
  <circle class="cls-1" cx="191.51528" cy="3.5" r="1.225"/>
  <circle class="cls-1" cx="181.65046" cy="3.5" r="1.225"/>
  <circle class="cls-1" cx="172.22955" cy="3.5" r="1.225"/>
  <circle class="cls-1" cx="162.80864" cy="3.5" r="1.225"/>
  <circle class="cls-1" cx="153.38773" cy="3.5" r="1.225"/>
  <circle class="cls-1" cx="143.96682" cy="3.5" r="1.225"/>
  <circle class="cls-1" cx="134.25924" cy="3.5" r="1.05"/>
  <circle class="cls-1" cx="124.59712" cy="3.5" r="1.05"/>
  <circle class="cls-1" cx="114.93501" cy="3.5" r="1.05"/>
  <circle class="cls-1" cx="105.27289" cy="3.5" r="1.05"/>
  <circle class="cls-1" cx="95.61078" cy="3.5" r="1.05"/>
  <circle class="cls-1" cx="86.39623" cy="3.5" r=".875"/>
  <circle class="cls-1" cx="76.93899" cy="3.5" r=".875"/>
  <circle class="cls-1" cx="67.48175" cy="3.5" r=".875"/>
  <circle class="cls-1" cx="58.02451" cy="3.5" r=".875"/>
  <circle class="cls-1" cx="48.56727" cy="3.5" r=".875"/>
  <circle class="cls-1" cx="38.67301" cy="3.5" r=".7"/>
  <circle class="cls-1" cx="29.18005" cy="3.5" r=".7"/>
  <circle class="cls-1" cx="19.98686" cy="3.5" r=".7"/>
  <circle class="cls-1" cx="10.09419" cy="3.5" r=".7"/>
  <circle class="cls-1" cx=".69999" cy="3.5" r=".7"/>
  <circle class="cls-1" cx="477.15056" cy="3.5" r="1.925"/>
  <circle class="cls-1" cx="467.54743" cy="3.5" r="1.925"/>
  <circle class="cls-1" cx="457.94431" cy="3.5" r="1.925"/>
  <circle class="cls-1" cx="448.34119" cy="3.5" r="1.925"/>
  <circle class="cls-1" cx="438.73806" cy="3.5" r="1.925"/>
  <circle class="cls-1" cx="429.13494" cy="3.5" r="1.925"/>
</svg>