<?xml version="1.0" encoding="UTF-8"?>
<svg id="_Слой_1" data-name="Слой 1" xmlns="http://www.w3.org/2000/svg" version="1.1" viewBox="0 0 890.1548 10">
  <defs>
    <style>
      .cls-1 {
        fill: #004b91;
        stroke-width: 0px;
      }
    </style>
  </defs>
  <circle class="cls-1" cx="3.49999" cy="3.5" r="3.5"/>
  <circle class="cls-1" cx="12.99292" cy="3.5" r="3.5"/>
  <circle class="cls-1" cx="22.48585" cy="3.5" r="3.5"/>
  <circle class="cls-1" cx="31.97878" cy="3.5" r="3.5"/>
  <circle class="cls-1" cx="41.4717" cy="3.5" r="3.5"/>
  <circle class="cls-1" cx="50.96463" cy="3.5" r="3.325"/>
  <circle class="cls-1" cx="60.45756" cy="3.5" r="3.325"/>
  <circle class="cls-1" cx="69.95049" cy="3.5" r="3.325"/>
  <circle class="cls-1" cx="79.44341" cy="3.5" r="3.325"/>
  <circle class="cls-1" cx="88.93634" cy="3.5" r="3.325"/>
  <circle class="cls-1" cx="98.42927" cy="3.5" r="3.15"/>
  <circle class="cls-1" cx="107.8347" cy="3.5" r="3.15"/>
  <circle class="cls-1" cx="117.24013" cy="3.5" r="3.15"/>
  <circle class="cls-1" cx="126.64555" cy="3.5" r="3.15"/>
  <circle class="cls-1" cx="136.05098" cy="3.5" r="3.15"/>
  <circle class="cls-1" cx="145.89391" cy="3.5" r="2.975"/>
  <circle class="cls-1" cx="155.38684" cy="3.5" r="2.975"/>
  <circle class="cls-1" cx="164.87976" cy="3.5" r="2.975"/>
  <circle class="cls-1" cx="174.37269" cy="3.5" r="2.975"/>
  <circle class="cls-1" cx="183.86562" cy="3.5" r="2.975"/>
  <circle class="cls-1" cx="193.78975" cy="3.5" r="2.8"/>
  <circle class="cls-1" cx="203.11939" cy="3.5" r="2.8"/>
  <circle class="cls-1" cx="212.88022" cy="3.5" r="2.8"/>
  <circle class="cls-1" cx="222.20986" cy="3.5" r="2.8"/>
  <circle class="cls-1" cx="231.7355" cy="3.5" r="2.8"/>
  <circle class="cls-1" cx="241.2244" cy="3.5" r="2.625"/>
  <circle class="cls-1" cx="251.12654" cy="3.5" r="2.625"/>
  <circle class="cls-1" cx="260.79912" cy="3.5" r="2.625"/>
  <circle class="cls-1" cx="269.93605" cy="3.5" r="2.625"/>
  <circle class="cls-1" cx="279.83819" cy="3.5" r="2.625"/>
  <circle class="cls-1" cx="289.12956" cy="3.5" r="2.45"/>
  <circle class="cls-1" cx="298.61949" cy="3.5" r="2.45"/>
  <circle class="cls-1" cx="308.10941" cy="3.5" r="2.45"/>
  <circle class="cls-1" cx="317.59934" cy="3.5" r="2.45"/>
  <circle class="cls-1" cx="327.08927" cy="3.5" r="2.45"/>
  <circle class="cls-1" cx="336.5792" cy="3.5" r="2.45"/>
  <circle class="cls-1" cx="346.06913" cy="3.5" r="2.45"/>
  <circle class="cls-1" cx="355.55019" cy="3.5" r="2.275"/>
  <circle class="cls-1" cx="365.36516" cy="3.5" r="2.275"/>
  <circle class="cls-1" cx="375.18013" cy="3.5" r="2.275"/>
  <circle class="cls-1" cx="384.48743" cy="3.5" r="2.275"/>
  <circle class="cls-1" cx="393.79473" cy="3.5" r="2.275"/>
  <circle class="cls-1" cx="403.27126" cy="3.5" r="2.275"/>
  <circle class="cls-1" cx="470.11246" cy="3.5" r="1.75"/>
  <circle class="cls-1" cx="479.75152" cy="3.5" r="1.75"/>
  <circle class="cls-1" cx="489.39059" cy="3.5" r="1.75"/>
  <circle class="cls-1" cx="499.02966" cy="3.5" r="1.75"/>
  <circle class="cls-1" cx="508.18677" cy="3.5" r="1.75"/>
  <circle class="cls-1" cx="517.82584" cy="3.5" r="1.75"/>
  <circle class="cls-1" cx="527.46491" cy="3.5" r="1.75"/>
  <circle class="cls-1" cx="537.10398" cy="3.5" r="1.75"/>
  <circle class="cls-1" cx="546.17187" cy="3.5" r="1.575"/>
  <circle class="cls-1" cx="555.9081" cy="3.5" r="1.575"/>
  <circle class="cls-1" cx="565.32959" cy="3.5" r="1.575"/>
  <circle class="cls-1" cx="575.06582" cy="3.5" r="1.575"/>
  <circle class="cls-1" cx="584.80205" cy="3.5" r="1.575"/>
  <circle class="cls-1" cx="594.00721" cy="3.5" r="1.575"/>
  <circle class="cls-1" cx="603.54749" cy="3.5" r="1.4"/>
  <circle class="cls-1" cx="612.94053" cy="3.5" r="1.4"/>
  <circle class="cls-1" cx="622.33357" cy="3.5" r="1.4"/>
  <circle class="cls-1" cx="631.96445" cy="3.5" r="1.4"/>
  <circle class="cls-1" cx="641.35749" cy="3.5" r="1.4"/>
  <circle class="cls-1" cx="651.00035" cy="3.5" r="1.4"/>
  <circle class="cls-1" cx="660.6432" cy="3.5" r="1.4"/>
  <circle class="cls-1" cx="670.03624" cy="3.5" r="1.4"/>
  <circle class="cls-1" cx="679.95389" cy="3.5" r="1.4"/>
  <circle class="cls-1" cx="689.44079" cy="3.5" r="1.225"/>
  <circle class="cls-1" cx="698.63952" cy="3.5" r="1.225"/>
  <circle class="cls-1" cx="708.50433" cy="3.5" r="1.225"/>
  <circle class="cls-1" cx="717.92524" cy="3.5" r="1.225"/>
  <circle class="cls-1" cx="727.34615" cy="3.5" r="1.225"/>
  <circle class="cls-1" cx="736.76706" cy="3.5" r="1.225"/>
  <circle class="cls-1" cx="746.18797" cy="3.5" r="1.225"/>
  <circle class="cls-1" cx="755.89556" cy="3.5" r="1.05"/>
  <circle class="cls-1" cx="765.55767" cy="3.5" r="1.05"/>
  <circle class="cls-1" cx="775.21979" cy="3.5" r="1.05"/>
  <circle class="cls-1" cx="784.8819" cy="3.5" r="1.05"/>
  <circle class="cls-1" cx="794.54402" cy="3.5" r="1.05"/>
  <circle class="cls-1" cx="803.75857" cy="3.5" r=".875"/>
  <circle class="cls-1" cx="813.2158" cy="3.5" r=".875"/>
  <circle class="cls-1" cx="822.67304" cy="3.5" r=".875"/>
  <circle class="cls-1" cx="832.13028" cy="3.5" r=".875"/>
  <circle class="cls-1" cx="841.58752" cy="3.5" r=".875"/>
  <circle class="cls-1" cx="851.48178" cy="3.5" r=".7"/>
  <circle class="cls-1" cx="860.97474" cy="3.5" r=".7"/>
  <circle class="cls-1" cx="870.16793" cy="3.5" r=".7"/>
  <circle class="cls-1" cx="880.0606" cy="3.5" r=".7"/>
  <circle class="cls-1" cx="889.4548" cy="3.5" r=".7"/>
  <circle class="cls-1" cx="413.00424" cy="3.5" r="1.925"/>
  <circle class="cls-1" cx="422.60736" cy="3.5" r="1.925"/>
  <circle class="cls-1" cx="432.21048" cy="3.5" r="1.925"/>
  <circle class="cls-1" cx="441.81361" cy="3.5" r="1.925"/>
  <circle class="cls-1" cx="451.41673" cy="3.5" r="1.925"/>
  <circle class="cls-1" cx="461.01985" cy="3.5" r="1.925"/>
</svg>