<?xml version="1.0" encoding="UTF-8"?>
<svg id="_Слой_1" data-name="Слой 1" xmlns="http://www.w3.org/2000/svg" version="1.1" viewBox="0 0 10 890.1548">
  <defs>
    <style>
      .cls-1 {
        fill: #004b91;
        stroke-width: 0px;
      }
    </style>
  </defs>
  <circle class="cls-1" cx="3.50001" cy="3.5" r="3.5"/>
  <circle class="cls-1" cx="3.50001" cy="12.99293" r="3.5"/>
  <circle class="cls-1" cx="3.50001" cy="22.48586" r="3.5"/>
  <circle class="cls-1" cx="3.5" cy="31.97878" r="3.5"/>
  <circle class="cls-1" cx="3.5" cy="41.47171" r="3.5"/>
  <circle class="cls-1" cx="3.5" cy="50.96464" r="3.325"/>
  <circle class="cls-1" cx="3.49999" cy="60.45757" r="3.325"/>
  <circle class="cls-1" cx="3.49999" cy="69.95049" r="3.325"/>
  <circle class="cls-1" cx="3.49999" cy="79.44342" r="3.325"/>
  <circle class="cls-1" cx="3.49998" cy="88.93635" r="3.325"/>
  <circle class="cls-1" cx="3.49998" cy="98.42928" r="3.15"/>
  <circle class="cls-1" cx="3.49998" cy="107.8347" r="3.15"/>
  <circle class="cls-1" cx="3.49997" cy="117.24013" r="3.15"/>
  <circle class="cls-1" cx="3.49997" cy="126.64556" r="3.15"/>
  <circle class="cls-1" cx="3.49997" cy="136.05099" r="3.15"/>
  <circle class="cls-1" cx="3.49996" cy="145.89392" r="2.975"/>
  <circle class="cls-1" cx="3.49996" cy="155.38684" r="2.975"/>
  <circle class="cls-1" cx="3.49996" cy="164.87977" r="2.975"/>
  <circle class="cls-1" cx="3.49995" cy="174.3727" r="2.975"/>
  <circle class="cls-1" cx="3.49995" cy="183.86563" r="2.975"/>
  <circle class="cls-1" cx="3.49995" cy="193.78976" r="2.8"/>
  <circle class="cls-1" cx="3.49994" cy="203.11939" r="2.8"/>
  <circle class="cls-1" cx="3.49994" cy="212.88023" r="2.8"/>
  <circle class="cls-1" cx="3.49994" cy="222.20987" r="2.8"/>
  <circle class="cls-1" cx="3.49993" cy="231.7355" r="2.8"/>
  <circle class="cls-1" cx="3.49993" cy="241.22441" r="2.625"/>
  <circle class="cls-1" cx="3.49993" cy="251.12655" r="2.625"/>
  <circle class="cls-1" cx="3.49992" cy="260.79912" r="2.625"/>
  <circle class="cls-1" cx="3.49992" cy="269.93605" r="2.625"/>
  <circle class="cls-1" cx="3.49992" cy="279.83819" r="2.625"/>
  <circle class="cls-1" cx="3.49991" cy="289.12956" r="2.45"/>
  <circle class="cls-1" cx="3.49991" cy="298.61949" r="2.45"/>
  <circle class="cls-1" cx="3.49991" cy="308.10942" r="2.45"/>
  <circle class="cls-1" cx="3.4999" cy="317.59935" r="2.45"/>
  <circle class="cls-1" cx="3.4999" cy="327.08928" r="2.45"/>
  <circle class="cls-1" cx="3.4999" cy="336.57921" r="2.45"/>
  <circle class="cls-1" cx="3.49989" cy="346.06914" r="2.45"/>
  <circle class="cls-1" cx="3.49989" cy="355.5502" r="2.275"/>
  <circle class="cls-1" cx="3.49989" cy="365.36517" r="2.275"/>
  <circle class="cls-1" cx="3.49988" cy="375.18014" r="2.275"/>
  <circle class="cls-1" cx="3.49988" cy="384.48744" r="2.275"/>
  <circle class="cls-1" cx="3.49988" cy="393.79474" r="2.275"/>
  <circle class="cls-1" cx="3.49987" cy="403.27126" r="2.275"/>
  <circle class="cls-1" cx="3.49985" cy="470.11246" r="1.75"/>
  <circle class="cls-1" cx="3.49985" cy="479.75153" r="1.75"/>
  <circle class="cls-1" cx="3.49984" cy="489.3906" r="1.75"/>
  <circle class="cls-1" cx="3.49984" cy="499.02967" r="1.75"/>
  <circle class="cls-1" cx="3.49984" cy="508.18678" r="1.75"/>
  <circle class="cls-1" cx="3.49983" cy="517.82585" r="1.75"/>
  <circle class="cls-1" cx="3.49983" cy="527.46492" r="1.75"/>
  <circle class="cls-1" cx="3.49983" cy="537.10399" r="1.75"/>
  <circle class="cls-1" cx="3.49983" cy="546.17188" r="1.575"/>
  <circle class="cls-1" cx="3.49982" cy="555.90811" r="1.575"/>
  <circle class="cls-1" cx="3.49982" cy="565.3296" r="1.575"/>
  <circle class="cls-1" cx="3.49982" cy="575.06583" r="1.575"/>
  <circle class="cls-1" cx="3.49981" cy="584.80205" r="1.575"/>
  <circle class="cls-1" cx="3.49981" cy="594.00721" r="1.575"/>
  <circle class="cls-1" cx="3.49981" cy="603.5475" r="1.4"/>
  <circle class="cls-1" cx="3.4998" cy="612.94054" r="1.4"/>
  <circle class="cls-1" cx="3.4998" cy="622.33358" r="1.4"/>
  <circle class="cls-1" cx="3.4998" cy="631.96446" r="1.4"/>
  <circle class="cls-1" cx="3.49979" cy="641.3575" r="1.4"/>
  <circle class="cls-1" cx="3.49979" cy="651.00035" r="1.4"/>
  <circle class="cls-1" cx="3.49979" cy="660.64321" r="1.4"/>
  <circle class="cls-1" cx="3.49978" cy="670.03625" r="1.4"/>
  <circle class="cls-1" cx="3.49978" cy="679.95389" r="1.4"/>
  <circle class="cls-1" cx="3.49978" cy="689.44079" r="1.225"/>
  <circle class="cls-1" cx="3.49977" cy="698.63952" r="1.225"/>
  <circle class="cls-1" cx="3.49977" cy="708.50434" r="1.225"/>
  <circle class="cls-1" cx="3.49977" cy="717.92525" r="1.225"/>
  <circle class="cls-1" cx="3.49976" cy="727.34616" r="1.225"/>
  <circle class="cls-1" cx="3.49976" cy="736.76707" r="1.225"/>
  <circle class="cls-1" cx="3.49976" cy="746.18798" r="1.225"/>
  <circle class="cls-1" cx="3.49975" cy="755.89556" r="1.05"/>
  <circle class="cls-1" cx="3.49975" cy="765.55768" r="1.05"/>
  <circle class="cls-1" cx="3.49975" cy="775.21979" r="1.05"/>
  <circle class="cls-1" cx="3.49974" cy="784.88191" r="1.05"/>
  <circle class="cls-1" cx="3.49974" cy="794.54402" r="1.05"/>
  <circle class="cls-1" cx="3.49974" cy="803.75857" r=".875"/>
  <circle class="cls-1" cx="3.49973" cy="813.21581" r=".875"/>
  <circle class="cls-1" cx="3.49973" cy="822.67305" r=".875"/>
  <circle class="cls-1" cx="3.49973" cy="832.13029" r=".875"/>
  <circle class="cls-1" cx="3.49972" cy="841.58753" r=".875"/>
  <circle class="cls-1" cx="3.49972" cy="851.48179" r=".7"/>
  <circle class="cls-1" cx="3.49972" cy="860.97475" r=".7"/>
  <circle class="cls-1" cx="3.49971" cy="870.16794" r=".7"/>
  <circle class="cls-1" cx="3.49971" cy="880.06061" r=".7"/>
  <circle class="cls-1" cx="3.49971" cy="889.45481" r=".7"/>
  <circle class="cls-1" cx="3.49987" cy="413.00424" r="1.925"/>
  <circle class="cls-1" cx="3.49987" cy="422.60737" r="1.925"/>
  <circle class="cls-1" cx="3.49986" cy="432.21049" r="1.925"/>
  <circle class="cls-1" cx="3.49986" cy="441.81361" r="1.925"/>
  <circle class="cls-1" cx="3.49986" cy="451.41674" r="1.925"/>
  <circle class="cls-1" cx="3.49985" cy="461.01986" r="1.925"/>
</svg>