<svg xmlns="http://www.w3.org/2000/svg" xmlns:xlink="http://www.w3.org/1999/xlink" width="258.29" height="52.26" viewBox="0 0 258.29 52.26"><defs><clipPath id="a"><rect width="258.29" height="52.26" fill="none"/></clipPath></defs><g clip-path="url(#a)"><g transform="translate(0 0)"><g clip-path="url(#a)"><g transform="translate(0 0)" style="isolation:isolate"><g transform="translate(0 0)"><g clip-path="url(#a)"><path d="M44.514,68.413a5.366,5.366,0,0,1-3.809-1.579L31.46,57.589a2.576,2.576,0,0,0-3.56,0l-.81.838-3.1-3.1.845-.838a7.064,7.064,0,0,1,9.751,0l9.225,9.259a.99.99,0,0,0,1.385,0l2.078-2.078a1,1,0,0,0,0-1.385L45.11,58.129l3.1-3.1,2.161,2.161a5.381,5.381,0,0,1,.008,7.61l-.008.008L48.288,66.89a5.34,5.34,0,0,1-3.774,1.524" transform="translate(-7.375 -16.154)" fill="#75cbc6"/><path d="M44.621,39.437,43.43,38.246a6.891,6.891,0,0,1-.006-9.745l.006-.006,9.246-9.246a1.012,1.012,0,0,0,0-1.42L50.6,15.752a.988.988,0,0,0-.693-.291.969.969,0,0,0-.693.291L47.135,17.83l-3.089-3.1,2.078-2.078a5.54,5.54,0,0,1,7.618,0l2.112,2.078a5.387,5.387,0,0,1,0,7.618l-9.329,9.239a2.507,2.507,0,0,0-.015,3.545l.015.015,1.191,1.191Z" transform="translate(-12.731 -3.425)" fill="#75cbc6"/><path d="M22.291,26.982a6.878,6.878,0,0,1-4.848-2.022L8.177,15.7a1,1,0,0,0-.693-.291,1.018,1.018,0,0,0-.693.291L4.714,17.778a1.012,1.012,0,0,0,0,1.42L6.556,21.13l-3.1,3.1L1.577,22.342a5.387,5.387,0,0,1,0-7.618l2.078-2.078a5.54,5.54,0,0,1,7.618,0l9.239,9.218a2.569,2.569,0,0,0,3.56,0l1.323-1.316,3.1,3.1-1.323,1.323a6.849,6.849,0,0,1-4.876,2.015" transform="translate(0 -3.422)" fill="#75cbc6"/><path d="M7.476,62.98a5.348,5.348,0,0,1-3.8-1.579L1.6,59.324a5.387,5.387,0,0,1,0-7.618l9.252-9.252a2.528,2.528,0,0,0,0-3.56l-.928-.928,3.1-3.1.928.928a6.891,6.891,0,0,1,.006,9.745l-.006.006L4.658,54.781a.99.99,0,0,0,0,1.385l2.078,2.078a1,1,0,0,0,.693.3.986.986,0,0,0,.693-.3L10.2,56.166l3.1,3.1-2.078,2.078a5.346,5.346,0,0,1-3.74,1.641" transform="translate(-0.006 -10.721)" fill="#75cbc6"/><path d="M48.473,53.1l-3.1-3.1,7.68-7.673a2.5,2.5,0,0,0,0-3.511l-1.205-1.205,3.1-3.1,1.205,1.205a6.877,6.877,0,0,1,0,9.7Z" transform="translate(-13.951 -10.613)" fill="#f16561"/><path d="M39.188,24.658l-7.9-7.9a2.562,2.562,0,0,0-3.532,0l-1.17,1.205-3.116-3.13,1.17-1.17a7.037,7.037,0,0,1,9.7,0l7.95,7.9Z" transform="translate(-7.215 -3.605)" fill="#f16561"/><path d="M3.591,43.484,2.579,42.473a6.877,6.877,0,0,1,0-9.7l7.86-7.867,3.1,3.1L5.689,35.866a2.5,2.5,0,0,0,0,3.535l0,0,1,.99Z" transform="translate(-0.178 -7.659)" fill="#f16561"/><path d="M26.605,69.168a6.871,6.871,0,0,1-4.848-2.015l-7.77-7.784,3.1-3.068,7.757,7.75a2.549,2.549,0,0,0,3.532,0l1.247-1.219,3.1,3.1L31.474,67.18a6.869,6.869,0,0,1-4.869,1.988" transform="translate(-4.3 -17.31)" fill="#f16561"/><path d="M302.018,23.67V57.924H293.61l-.409-4.675a12.688,12.688,0,0,1-10.852,5.54c-8.885,0-16.213-7.528-16.213-18.117s7.327-17.9,16.483-17.9a12.929,12.929,0,0,1,10.1,4.335V23.643Zm-8.643,17.078c0-5.492-3.594-9.294-8.823-9.294s-8.816,3.871-8.816,9.294,3.594,9.294,8.816,9.294,8.823-3.712,8.823-9.294" transform="translate(-81.824 -7.001)" fill="#75cbc6"/><path d="M158.839,29V51.062h-9.329V31.047c0-4.155-2.514-6.538-6.669-6.538-3.677,0-7.763,2.244-7.763,6.676V51.062h-9.391V0h9.391V20.222A13.61,13.61,0,0,1,145.563,15.8c7.673,0,13.276,5.1,13.276,13.207" transform="translate(-38.643 0)" fill="#75cbc6"/><path d="M205.7,25.162a17.021,17.021,0,0,0-4.6,7.32,11.481,11.481,0,0,0-4.155-.817c-4.225,0-7.964,2.652-7.964,7.556V58.079h-9.391V23.7H188.1l.409,4.765c2.313-3.539,5.312-5.741,9.7-5.637a15.664,15.664,0,0,1,7.493,2.334" transform="translate(-55.214 -7.018)" fill="#75cbc6"/><path d="M232.107,50.87a11.886,11.886,0,0,0,8.241-3.172l6.122,5.852A20.141,20.141,0,0,1,232.377,59c-10.686,0-18.65-7.216-18.65-18.179,0-10.388,7.216-17.972,17.972-17.972,11.441,0,16.815,8.034,16.815,16.268a33.373,33.373,0,0,1-.478,5.111H223.388c1.025,4.259,4.155,6.642,8.719,6.642m-8.719-13.207h16c-.339-4.017-3.13-6.676-7.763-6.676C227.273,30.987,224.344,33.508,223.388,37.664Z" transform="translate(-65.711 -7.025)" fill="#75cbc6"/><path d="M356.973,0V51.062H348.53l-.4-4.7a12.743,12.743,0,0,1-10.887,5.582c-8.92,0-16.275-7.493-16.275-18.179S328.322,15.8,337.512,15.8a12.941,12.941,0,0,1,10.146,4.287V0ZM346.938,33.838c0-5.582-3.608-9.329-8.851-9.329s-8.851,3.747-8.851,9.329,3.608,9.329,8.851,9.329,8.851-3.608,8.851-9.329" transform="translate(-98.682 0)" fill="#75cbc6"/><path d="M112.4,33.946c-.166.3-4.9,12.064-13.422,11.9-3.608-.076-6.171-2.3-6.171-6.108V27.346h12.175V18.9H92.8V8.73L83.4,12.574v6.309H76.867v8.442H83.4V40.67c0,8.906,5.049,14.253,13.851,14.253,5.88,0,10.049-2.659,13.332-6.018a73.474,73.474,0,0,0,7.957-9.7Z" transform="translate(-23.633 -2.684)" fill="#75cbc6"/></g></g></g></g></g></g></svg>