<svg xmlns="http://www.w3.org/2000/svg" xmlns:xlink="http://www.w3.org/1999/xlink" width="314.91" height="52.611" viewBox="0 0 314.91 52.611"><defs><clipPath id="a"><rect width="314.91" height="52.611" fill="none"/></clipPath></defs><g transform="translate(0 0)"><g transform="translate(0 0)" clip-path="url(#a)"><path d="M89.941,24.576c0,8.656-6.032,14.8-13.571,14.8A10.481,10.481,0,0,1,68.1,35.857V52.611H60.4V10.446h6.981l.335,3.742a10.6,10.6,0,0,1,8.88-4.467c7.316,0,13.348,6.2,13.348,14.855m-7.875,0c0-4.523-2.96-7.707-7.26-7.707-4.188,0-7.261,3.071-7.261,7.651,0,4.524,3.017,7.706,7.261,7.706,4.3,0,7.26-3.182,7.26-7.65" transform="translate(0 0)" fill="#163348"/><path d="M121.392,10.446v28.2h-6.924l-.335-3.854a10.441,10.441,0,0,1-8.936,4.579c-7.316,0-13.348-6.2-13.348-14.911,0-8.656,6.032-14.743,13.571-14.743a10.637,10.637,0,0,1,8.321,3.574V10.446ZM114.244,24.52c0-4.524-2.96-7.651-7.26-7.651s-7.261,3.183-7.261,7.651,2.96,7.65,7.261,7.65c4.244,0,7.26-3.071,7.26-7.65" transform="translate(0 0)" fill="#163348"/><path d="M153.6,10.446,137.96,49.818h-7.205l4.133-11.169-12.062-28.2h8.265l7.428,18.374,6.757-18.374Z" transform="translate(0 0)" fill="#163348"/><path d="M199.949,20.555v18.1h-7.707V22.231c0-3.463-1.843-5.362-4.914-5.362s-5.976,1.955-5.976,5.473V38.65H173.7V22.231c0-3.407-1.843-5.362-4.971-5.362-3.015,0-5.92,1.9-5.92,5.473V38.65H155.1v-28.2h6.926l.335,3.518a10.083,10.083,0,0,1,8.544-4.244,9.951,9.951,0,0,1,8.88,4.858,11.474,11.474,0,0,1,9.606-4.858c6.2,0,10.555,4.3,10.555,10.834" transform="translate(0 0)" fill="#163348"/><path d="M217.921,32.729a9.737,9.737,0,0,0,6.757-2.625l5.027,4.8a16.541,16.541,0,0,1-11.561,4.467c-8.767,0-15.3-5.918-15.3-14.911,0-8.544,5.92-14.743,14.743-14.743,9.383,0,13.795,6.59,13.795,13.348a27.891,27.891,0,0,1-.391,4.188H210.773c.837,3.519,3.406,5.473,7.148,5.473M210.773,21.9H223.9c-.279-3.3-2.569-5.474-6.367-5.474a6.548,6.548,0,0,0-6.757,5.474" transform="translate(0 0)" fill="#163348"/><path d="M261.715,20.555v18.1h-7.651V22.231a5.086,5.086,0,0,0-5.417-5.362c-3.072,0-6.423,1.843-6.423,5.473V38.65h-7.707v-28.2h6.926l.335,3.462a10.925,10.925,0,0,1,8.935-4.188c6.255,0,11,4.244,11,10.834" transform="translate(0 0)" fill="#163348"/><path d="M287.853,36.694c-1.787,1.509-4.412,2.681-8.433,2.681-7.2,0-11.17-3.742-11.17-11.058V17.372h-5.361V10.446h5.361V2.125h7.707v8.321h10v6.926h-10V27.536c0,3.127,1.453,4.635,4.413,4.635a6.881,6.881,0,0,0,4.412-1.564Z" transform="translate(0 0)" fill="#163348"/><path d="M289.108,35.521l2.4-5.64c2.457,2.066,7.149,3.183,10.891,3.183,2.233,0,4.858-.446,4.858-2.792,0-1.62-2.066-2.066-5.529-2.681-6.925-1.228-11.392-2.625-11.392-8.489,0-7.26,6.757-9.382,12.565-9.382a19.553,19.553,0,0,1,11.17,3.3l-2.4,5.585a15.822,15.822,0,0,0-8.824-2.569c-3.239,0-4.579.949-4.579,2.625,0,1.284.894,1.676,4.189,2.29,6.924,1.228,12.454,2.457,12.454,8.767,0,6.2-5.362,9.662-12.9,9.662-4.3,0-9.884-1.452-12.9-3.854" transform="translate(0 0)" fill="#163348"/><path d="M12.371,48.594,8.129,44.352,26.873,25.607a1.852,1.852,0,0,0,0-2.62L8.129,4.242,12.371,0,31.115,18.744a7.851,7.851,0,0,1,0,11.106Z" transform="translate(0 0)" fill="#f06661"/><path d="M4.242,40.465,0,36.223,11.926,24.3,0,12.37,4.242,8.128,20.412,24.3Z" transform="translate(0 0)" fill="#f06661"/></g></g></svg>