<?xml version="1.0" encoding="UTF-8"?>
<svg id="_Слой_1" data-name="Слой 1" xmlns="http://www.w3.org/2000/svg" version="1.1" viewBox="0 0 233.217 57">
  <defs>
    <style>
      .cls-1 {
        fill: #f06661;
      }

      .cls-1, .cls-2 {
        stroke-width: 0px;
      }

      .cls-2 {
        fill: #163348;
      }
    </style>
  </defs>
  <path class="cls-2" d="M64.041,4.7604c-.03777-2.59104,2.03207-4.72212,4.62312-4.75989,2.59105-.03777,4.72212,2.03207,4.75989,4.62312.00066.04559.00066.09118,0,.13677-.03777,2.59104-2.16884,4.66088-4.75989,4.62312-2.5378-.03699-4.58612-2.08532-4.62312-4.62312M72.586,41.0604h-7.707V12.8604h7.707v28.2Z"/>
  <path class="cls-2" d="M75.418,37.93239l2.4-5.64c2.457,2.066,7.149,3.183,10.891,3.183,2.232,0,4.857-.446,4.857-2.792,0-1.62-2.066-2.066-5.529-2.681-6.924-1.228-11.392-2.625-11.392-8.489,0-7.26,6.757-9.382,12.566-9.382,3.97208-.06005,7.86826,1.09101,11.17,3.3l-2.4,5.585c-2.62228-1.7107-5.69324-2.60478-8.824-2.569-3.238,0-4.578.949-4.578,2.625,0,1.284.893,1.676,4.188,2.29,6.925,1.228,12.455,2.457,12.455,8.767,0,6.2-5.362,9.662-12.9,9.662-4.3,0-9.884-1.452-12.9-3.854"/>
  <path class="cls-2" d="M102.082,37.93239l2.4-5.64c2.457,2.066,7.149,3.183,10.891,3.183,2.232,0,4.857-.446,4.857-2.792,0-1.62-2.066-2.066-5.529-2.681-6.924-1.228-11.392-2.625-11.392-8.489,0-7.26,6.757-9.382,12.566-9.382,3.97208-.06005,7.86826,1.09101,11.17,3.3l-2.4,5.585c-2.62228-1.7107-5.69324-2.60478-8.824-2.569-3.238,0-4.578.949-4.578,2.625,0,1.284.893,1.676,4.188,2.29,6.925,1.228,12.455,2.457,12.455,8.767,0,6.2-5.362,9.662-12.9,9.662-4.3,0-9.884-1.452-12.9-3.854"/>
  <path class="cls-2" d="M156.67,12.8574v28.2h-6.98l-.336-3.406c-1.95743,2.6834-5.11197,4.22924-8.43201,4.132-5.97701,0-10.61099-4.244-10.61099-10.834V12.8494h7.707v16.651c-.13242,2.70627,1.95412,5.00748,4.66039,5.13989.17746.00868.35526.00772.53261-.00289,3.03438.1392,5.60707-2.2078,5.74626-5.24218.00351-.07656.00543-.15318.00574-.22982V12.8574h7.707Z"/>
  <path class="cls-2" d="M160.5,4.7604c0-2.59104,2.10045-4.6915,4.6915-4.6915s4.6915,2.10046,4.6915,4.6915c-.03792,2.59104-2.1691,4.66076-4.76015,4.62285-2.53758-.03713-4.58572-2.08526-4.62285-4.62285M169.045,41.0604h-7.707V12.8604h7.707v28.2Z"/>
  <path class="cls-2" d="M200.985,22.9684v18.093h-7.64999v-16.419c.15813-2.80502-1.98761-5.20712-4.79262-5.36525-.20833-.01174-.41719-.01066-.62538.00325-3.071,0-6.422,1.843-6.422,5.473v16.308h-7.707V12.8584h6.92599l.334,3.462c2.14252-2.7379,5.46002-4.29288,8.935-4.188,6.256,0,11,4.244,11,10.834"/>
  <path class="cls-2" d="M233.217,12.8574v28.594c0,8.6-5.584,14.3-14.63,14.3-4.70093-.02624-9.29541-1.40212-13.237-3.964l3.407-5.865c2.69385,1.87717,5.87787,2.92554,9.16,3.016,4.8,0,7.595-2.681,7.595-7.483v-3.46599c-2.03458,2.48871-5.10881,3.89247-8.32201,3.8-7.31599,0-13.34801-6.2-13.34801-14.911,0-8.656,6.032-14.743,13.571-14.743,3.04456-.09144,5.98616,1.10699,8.10001,3.3v-2.578h7.70401ZM226.237,26.93139c0-4.524-2.959-7.651-7.25999-7.651s-7.25999,3.183-7.25999,7.651,2.959,7.65,7.25999,7.65c4.244,0,7.25999-3.071,7.25999-7.65"/>
  <path class="cls-1" d="M40.377,41.1514H7.854c-4.33559-.00496-7.84904-3.51841-7.854-7.854v-7.678c.00661-4.33442,3.51958-7.84604,7.854-7.851h29.6v6H7.854c-1.02254.00055-1.8518.82846-1.854,1.851v7.678c.00055,1.02371.83029,1.85345,1.854,1.854h32.523c1.02348-.0011,1.8529-.83052,1.854-1.854V14.6924c-.00165-1.02309-.83091-1.8519-1.854-1.853H.853v-6h39.524c4.33536.00551,7.84849,3.51864,7.854,7.854v18.604c-.00496,4.33559-3.51841,7.84904-7.854,7.854"/>
</svg>