<?xml version="1.0" encoding="UTF-8"?>
<svg id="_Слой_1" data-name="Слой 1" xmlns="http://www.w3.org/2000/svg" version="1.1" viewBox="0 0 238.3 57">
  <defs>
    <style>
      .cls-1 {
        fill: #f06661;
      }

      .cls-1, .cls-2 {
        stroke-width: 0px;
      }

      .cls-2 {
        fill: #163348;
      }
    </style>
  </defs>
  <rect class="cls-2" x="59.7" width="7.7" height="41.9"/>
  <path class="cls-2" d="M85.5,36c2.5,0,4.9-.9,6.8-2.6l5,4.8c-3.1,2.9-7.3,4.5-11.6,4.5-8.8,0-15.3-5.9-15.3-14.9s5.9-14.7,14.7-14.7,13.8,6.6,13.8,13.3c0,1.4-.2,2.8-.4,4.2h-20.2c.8,3.5,3.4,5.5,7.1,5.5M78.3,25.1h13.1c-.3-3.3-2.6-5.5-6.4-5.5-3.3-.2-6.2,2.2-6.8,5.5"/>
  <path class="cls-2" d="M129.3,23.8v18.1h-7.7v-16.4c.2-2.8-2-5.2-4.8-5.4-.2,0-.4,0-.6,0-3.1,0-6.4,1.8-6.4,5.5v16.3h-7.7V13.7h6.9l.3,3.5c2.1-2.7,5.5-4.3,8.9-4.2,6.3,0,11,4.2,11,10.8"/>
  <path class="cls-2" d="M161.6,0v41.9h-6.9l-.3-3.9c-2,3-5.4,4.7-8.9,4.6-7.3,0-13.3-6.1-13.3-14.9s6-14.7,13.6-14.7c3.2-.1,6.2,1.2,8.3,3.5V0h7.7ZM154.5,27.8c0-4.6-3-7.6-7.3-7.6s-7.3,3.1-7.3,7.6,3,7.6,7.3,7.6,7.3-3,7.3-7.6"/>
  <path class="cls-2" d="M165.6,5.6c0-2.6,2-4.7,4.6-4.8,2.6,0,4.7,2,4.8,4.6,0,0,0,0,0,.1,0,2.6-2.2,4.7-4.8,4.6-2.5,0-4.6-2.1-4.6-4.6M174.2,41.9h-7.7V13.7h7.7v28.2Z"/>
  <path class="cls-2" d="M206.1,23.8v18.1h-7.7v-16.4c.2-2.8-2-5.2-4.8-5.4-.2,0-.4,0-.6,0-3.1,0-6.4,1.8-6.4,5.5v16.3h-7.7V13.7h6.9l.3,3.5c2.1-2.7,5.5-4.3,8.9-4.2,6.3,0,11,4.2,11,10.8"/>
  <path class="cls-2" d="M238.3,13.7v28.6c0,8.6-5.6,14.3-14.6,14.3-4.7,0-9.3-1.4-13.2-4l3.4-5.9c2.7,1.9,5.9,2.9,9.2,3,4.8,0,7.6-2.7,7.6-7.5v-3.5c-2,2.5-5.1,3.9-8.3,3.8-7.3,0-13.3-6.2-13.3-14.9s6-14.7,13.6-14.7c3,0,6,1.1,8.1,3.3v-2.6h7.7ZM231.4,27.8c0-4.5-3-7.6-7.3-7.6s-7.3,3.2-7.3,7.6,3,7.6,7.3,7.6,7.3-3.1,7.3-7.6"/>
  <path class="cls-1" d="M4.2,39.1l-4.2-4.2L21.6,13.2H5.4v-6h23.4c1.7,0,3,1.3,3,3,0,.8-.3,1.6-.9,2.1L4.2,39.1Z"/>
  <path class="cls-1" d="M11.9,46.7l-4.2-4.2,26.7-26.7c1.2-1.2,3.1-1.2,4.2,0,.6.6.9,1.3.9,2.1v23.4h-6v-16.2l-21.6,21.6Z"/>
</svg>