<?xml version="1.0" encoding="UTF-8"?>
<svg id="_Слой_1" data-name="Слой 1" xmlns="http://www.w3.org/2000/svg" version="1.1" viewBox="0 0 304 59.6">
  <defs>
    <style>
      .cls-1 {
        fill: #002d4f;
      }

      .cls-1, .cls-2 {
        stroke-width: 0px;
      }

      .cls-2 {
        fill: #f16561;
      }
    </style>
  </defs>
  <path class="cls-1" d="M43.7,59.6c-1.7,0-3.3-.6-4.5-1.8l-10.9-10.5c-1.2-1.1-3-1.1-4.2,0l-1,1-3.6-3.5,1-1c3.2-3,8.3-3,11.5,0l10.9,10.6c.5.4,1.2.4,1.6,0l2.4-2.4c.4-.4.4-1.1,0-1.6l-2.5-2.5,3.6-3.5,2.5,2.5c2.5,2.4,2.5,6.3,0,8.7,0,0,0,0,0,0h0s-2.5,2.4-2.5,2.4c-1.2,1.1-2.8,1.7-4.4,1.7"/>
  <path class="cls-1" d="M37.5,41l-1.4-1.4c-3.2-3.1-3.2-8,0-11.1h0s10.9-10.5,10.9-10.5c.5-.4.5-1.2,0-1.6l-2.4-2.4c-.2-.2-.5-.3-.8-.3-.3,0-.6.1-.8.3l-2.4,2.4-3.6-3.5,2.4-2.4c2.5-2.3,6.5-2.3,9,0l2.5,2.4c2.5,2.4,2.5,6.3,0,8.7l-11,10.5c-1.2,1.1-1.2,2.9,0,4h0s1.4,1.4,1.4,1.4l-3.6,3.5Z"/>
  <path class="cls-1" d="M26.2,26.9c-2.1,0-4.2-.8-5.7-2.3l-10.9-10.6c-.2-.2-.5-.3-.8-.3-.3,0-.6.1-.8.3l-2.4,2.4c-.5.4-.5,1.2,0,1.6l2.2,2.2-3.6,3.5-2.2-2.2c-2.5-2.4-2.5-6.3,0-8.7l2.4-2.4c2.5-2.3,6.5-2.3,9,0l10.9,10.5c1.2,1.1,3,1.1,4.2,0l1.6-1.5,3.6,3.5-1.6,1.5c-1.5,1.5-3.6,2.3-5.7,2.3"/>
  <path class="cls-1" d="M8.8,59.6c-1.7,0-3.3-.6-4.5-1.8l-2.4-2.4c-2.5-2.4-2.5-6.3,0-8.7l10.9-10.5c1.2-1.1,1.2-2.9,0-4.1l-1.1-1.1,3.6-3.5,1.1,1.1c3.2,3.1,3.2,8,0,11.1h0s-10.9,10.5-10.9,10.5c-.4.4-.4,1.1,0,1.6l2.4,2.4c.2.2.5.3.8.3.3,0,.6-.1.8-.3l2.4-2.4,3.6,3.5-2.4,2.4c-1.2,1.2-2.7,1.8-4.4,1.9"/>
  <path class="cls-2" d="M40.6,48.4l-3.6-3.5,9-8.7c1.1-1.1,1.1-2.9,0-4l-1.4-1.4,3.6-3.5,1.4,1.4c3.1,3.1,3.1,8,0,11.1l-9,8.8Z"/>
  <path class="cls-2" d="M37.6,24l-9.3-9c-1.2-1.1-3-1.1-4.2,0l-1.4,1.4-3.7-3.6,1.4-1.3c3.2-2.9,8.2-2.9,11.4,0l9.4,9-3.7,3.5Z"/>
  <path class="cls-2" d="M4,40.8l-1.2-1.2c-3.1-3.1-3.1-8,0-11.1l9.3-9,3.6,3.5-9.2,9c-1.1,1.1-1.1,2.9,0,4h0l1.2,1.1-3.6,3.5Z"/>
  <path class="cls-2" d="M26.3,59.1c-2.1,0-4.2-.8-5.7-2.3l-9.1-8.9,3.6-3.5,9.1,8.8c1.2,1.1,3,1.1,4.2,0l1.5-1.4,3.6,3.5-1.5,1.4c-1.5,1.5-3.6,2.3-5.7,2.3"/>
  <path class="cls-1" d="M259.2,19v39h-9.9l-.5-5.3c-2.9,4.1-7.7,6.5-12.8,6.3-10.5,0-19.1-8.6-19.1-20.6s8.6-20.4,19.4-20.4c4.5-.1,8.9,1.7,11.9,4.9v-3.9h10.9ZM249,38.5c0-6.3-4.2-10.6-10.4-10.6s-10.4,4.4-10.4,10.6,4.2,10.6,10.4,10.6,10.4-4.2,10.4-10.6"/>
  <path class="cls-1" d="M177.1,20.7c-2.5,2.3-4.4,5.2-5.4,8.3-1.6-.6-3.2-.9-4.9-.9-5,0-9.4,3-9.4,8.6v21.5h-11.1V19h10l.5,5.4c2.7-4,6.3-6.5,11.4-6.4,3.1.1,6.2,1.1,8.8,2.7"/>
  <path class="cls-1" d="M195.8,50c3.6,0,7.1-1.2,9.7-3.6l7.2,6.7c-4.5,4.1-10.4,6.3-16.6,6.2-12.6,0-22-8.2-22-20.7s8.5-20.5,21.2-20.5,19.8,9.2,19.8,18.5c0,2-.2,3.9-.6,5.8h-29c1.2,4.9,4.9,7.6,10.3,7.6M185.6,34.9h18.8c-.4-4.6-3.7-7.6-9.1-7.6-5.1,0-8.6,2.9-9.7,7.6h0Z"/>
  <path class="cls-1" d="M304,0v58.2h-9.9l-.5-5.4c-2.9,4.1-7.7,6.5-12.8,6.4-10.5,0-19.2-8.5-19.2-20.7s8.7-20.5,19.5-20.5c4.5-.2,8.9,1.6,11.9,4.9V0h11ZM292.2,38.6c0-6.4-4.2-10.6-10.4-10.6s-10.4,4.3-10.4,10.6,4.2,10.6,10.4,10.6,10.4-4.1,10.4-10.6"/>
  <path class="cls-1" d="M125.8,18c-4.7-.1-9.2,1.7-12.3,5V0h-11.1v39.5c-2.5,4.1-7.1,9.9-13.8,9.7-4.2,0-7.3-2.6-7.3-7v-14.1h14.3v-9.6h-14.3V6.9l-11.1,4.4v7.2h-7.7v9.6h7.7v15.2c0,10.1,5.9,16.2,16.3,16.2s11.8-3,15.7-6.9c0,0,0,0,.1-.1v5.6h11.1v-22.7c0-5.1,4.8-7.6,9.1-7.6s7.8,2.7,7.8,7.5v22.8h11v-25.1c0-9.2-6.6-15.1-15.6-15.1Z"/>
</svg>