<svg xmlns="http://www.w3.org/2000/svg" xmlns:xlink="http://www.w3.org/1999/xlink" width="143.791" height="36.412" viewBox="0 0 143.791 36.412"><defs><clipPath id="a"><rect width="143.791" height="36.412" fill="none"/></clipPath></defs><g transform="translate(52 104)"><g transform="translate(-52 -104)" clip-path="url(#a)"><path d="M127.449,44.816c-4.051,0-6.237-2.057-6.237-5.907V27.635H119.8a2.569,2.569,0,0,1-1.791-.765,2.466,2.466,0,0,1,1.791-4.2h1.409V19.312a2.927,2.927,0,0,1,5.828,0v3.356h2.274a2.484,2.484,0,0,1,0,4.967H127.04v9.754a2.091,2.091,0,0,0,2,2.37h.5a2.359,2.359,0,0,1,2.552,2.462c0,1.388-.865,2.594-4.645,2.594" transform="translate(-76.253 -10.831)" fill="#ff4c00" fill-rule="evenodd"/><path d="M176.78,54.976c-7.237,0-11.61-5.189-11.61-11.366,0-6.128,4.385-11.32,11.61-11.32,7.284,0,11.653,5.192,11.653,11.32,0,6.177-4.369,11.366-11.653,11.366m0-17.629c-3.6,0-5.6,2.908-5.6,6.263,0,3.4,2,6.321,5.6,6.321s5.644-2.907,5.644-6.321c0-3.356-2.049-6.263-5.644-6.263" transform="translate(-107.373 -20.991)" fill="#ff4c00"/><path d="M257.418,54.709h-.456a2.513,2.513,0,0,1-2.5-2.505,9.168,9.168,0,0,1-6.962,2.772c-3.507,0-7.649-2.327-7.649-7.16,0-5.057,4.142-6.978,7.649-6.978,2.923,0,5.507.939,6.962,2.64v-2.91c0-2.192-1.912-3.623-4.823-3.623a8.8,8.8,0,0,0-4.916,1.388,2.122,2.122,0,0,1-3.233-1.879,2.3,2.3,0,0,1,.318-1.12c1.365-2.146,6.281-3.043,8.83-3.043,5.007,0,9.6,1.968,9.6,8.188V51.891a2.822,2.822,0,0,1-2.821,2.818m-2.961-8.148a5.825,5.825,0,0,0-4.641-1.879c-2.277,0-4.142,1.149-4.142,3.267,0,2.011,1.865,3.178,4.142,3.178a5.825,5.825,0,0,0,4.641-1.879Z" transform="translate(-155.919 -20.992)" fill="#ff4c00"/><path d="M319.992,55c-2.867,0-7.465-.94-8.83-2.873a1.924,1.924,0,0,1-.409-1.207,2.435,2.435,0,0,1,2.412-2.37,2.234,2.234,0,0,1,1.183.333,12.944,12.944,0,0,0,5.916,1.744c2.5,0,3.689-.985,3.689-2.327,0-3.58-13.065-.672-13.065-9.174,0-3.623,3.233-6.8,9.014-6.8,2.867,0,6.781.9,8.011,2.641a1.928,1.928,0,0,1,.369,1.106,2.245,2.245,0,0,1-2.274,2.149,2.329,2.329,0,0,1-1.093-.267,10.2,10.2,0,0,0-4.969-1.3c-2.093,0-3.458.94-3.458,2.149,0,3.221,13.018.534,13.018,9.26,0,3.939-3.414,6.935-9.514,6.935" transform="translate(-202.013 -21.013)" fill="#ff4c00" fill-rule="evenodd"/><path d="M378.789,44.816c-4.051,0-6.237-2.057-6.237-5.907V27.635h-1.409a2.57,2.57,0,0,1-1.791-.765,2.466,2.466,0,0,1,1.791-4.2h1.409V19.312a2.927,2.927,0,0,1,5.828,0v3.356h2.277a2.484,2.484,0,0,1,0,4.967H378.38v9.754a2.091,2.091,0,0,0,2,2.37h.5a2.358,2.358,0,0,1,2.549,2.462c0,1.388-.862,2.594-4.645,2.594" transform="translate(-239.643 -10.831)" fill="#ff4c00" fill-rule="evenodd"/><path d="M37.327,25.09a64.39,64.39,0,0,0-.312-7.166c-.176-1.609-.725-3.666-2.464-4.085a1.228,1.228,0,0,0,.681-.023c2.023-1.057,1.868-3.66,1.152-5.542C35.445,5.806,33.209,4.059,31,2.9A27.472,27.472,0,0,0,4.731,3.83c-2,1.236-4.311,3.64-3.3,6.327a5.448,5.448,0,0,0,1.2,1.781c.225.239.763.793.763.8a13.01,13.01,0,0,0-2.271,4.358C-.337,22.2-.094,25.484.306,29.593c.248,2.54,1.09,6.321,4.019,6.74,2.388.33,4.969-.457,7.36-.736a55.832,55.832,0,0,1,7.939-.724c3.747.095,7.465.985,11.218,1.02,1.982.02,5.276.207,5.866-2.4a34.46,34.46,0,0,0,.584-7.6,6.8,6.8,0,0,0,.035-.807M33.043,29.38c-.933,2.1-3.572,1.865-5.41,1.709-2.754-.233-5.463-.9-8.231-.98a29.986,29.986,0,0,0-7.261.914c-1.786.394-4.276,1.419-5.89.046-1.789-1.517-2.11-4.108-2.134-6.284A36.387,36.387,0,0,1,4.7,18.913a16.674,16.674,0,0,1,1.049-3.491,6.256,6.256,0,0,1,1.637-2.551c-.482-.5-1.058-.761-1.383-1.436C4.784,8.877,7.839,6.717,9.513,5.976c5.846-2.612,14.03-2.353,19.554,1,1.722,1.043,5.065,4.64,1.941,6.43,1.926.908,2.414,3.652,2.631,5.6a33.972,33.972,0,0,1-.292,9.383,4.242,4.242,0,0,1-.3.991" transform="translate(0 0)" fill="#ff4c00"/></g></g></svg>