<?xml version="1.0" encoding="UTF-8"?>
<svg id="_Слой_1" data-name="Слой 1" xmlns="http://www.w3.org/2000/svg" version="1.1" viewBox="0 0 314.91 57">
  <defs>
    <style>
      .cls-1 {
        fill: #f06661;
      }

      .cls-1, .cls-2 {
        stroke-width: 0px;
      }

      .cls-2 {
        fill: #fff;
      }
    </style>
  </defs>
  <path class="cls-2" d="M89.941,24.576c0,8.656-6.032,14.8-13.571,14.8-3.14524.12843-6.18166-1.16361-8.27-3.519v16.754h-7.7V10.446h6.981l.335,3.742c2.03508-2.87062,5.36204-4.54421,8.88-4.467,7.316,0,13.348,6.2,13.348,14.855M82.069,24.576c0-4.523-2.96-7.707-7.26-7.707-4.188,0-7.261,3.071-7.261,7.651,0,4.524,3.017,7.706,7.261,7.706,4.3,0,7.26-3.182,7.26-7.65"/>
  <path class="cls-2" d="M121.392,10.446v28.2h-6.924l-.335-3.854c-2.00105,2.95242-5.37075,4.67912-8.936,4.579-7.316,0-13.348-6.2-13.348-14.911,0-8.656,6.032-14.743,13.571-14.743,3.16761-.10784,6.21832,1.20248,8.321,3.574v-2.845h7.65099ZM114.244,24.52c0-4.524-2.96-7.651-7.26-7.651s-7.261,3.183-7.261,7.651,2.96,7.65,7.261,7.65c4.244,0,7.26-3.071,7.26-7.65"/>
  <path class="cls-2" d="M153.60001,10.446l-15.64,39.372h-7.205l4.133-11.169-12.062-28.2h8.265l7.42799,18.374,6.757-18.374,8.32401-.003Z"/>
  <path class="cls-2" d="M199.94901,20.555v18.1h-7.707v-16.424c0-3.463-1.843-5.362-4.914-5.362s-5.976,1.955-5.976,5.473v16.308h-7.65201v-16.419c0-3.407-1.843-5.362-4.97099-5.362-3.015,0-5.92,1.9-5.92,5.473v16.308h-7.709V10.45h6.92599l.33501,3.518c1.95628-2.75772,5.16457-4.35135,8.54401-4.244,3.62402-.11948,7.02617,1.74174,8.88,4.858,2.19658-3.11406,5.79594-4.93435,9.606-4.858,6.2,0,10.55499,4.3,10.55499,10.834"/>
  <path class="cls-2" d="M217.92101,32.729c2.50624.02727,4.92647-.91296,6.757-2.625l5.02699,4.8c-3.1291,2.93105-7.27405,4.53259-11.561,4.467-8.767,0-15.3-5.918-15.3-14.911,0-8.544,5.92-14.743,14.743-14.743,9.383,0,13.795,6.59,13.795,13.348-.02473,1.40385-.15544,2.80383-.39101,4.188h-20.21799c.83701,3.519,3.40601,5.473,7.14799,5.473M210.77299,21.9h13.127c-.27901-3.3-2.569-5.474-6.367-5.474-3.31372-.15024-6.21634,2.20123-6.757,5.474"/>
  <path class="cls-2" d="M261.715,20.555v18.1h-7.651v-16.424c.15868-2.80443-1.98613-5.20651-4.79056-5.3652-.20868-.01181-.41789-.01074-.62643.0032-3.07201,0-6.423,1.843-6.423,5.473v16.308h-7.707V10.45h6.92599l.33501,3.462c2.1423-2.73816,5.45996-4.2932,8.935-4.188,6.25499,0,11.00002,4.244,11.00002,10.834"/>
  <path class="cls-2" d="M287.853,36.694c-1.78699,1.509-4.41199,2.681-8.43301,2.681-7.20001,0-11.17001-3.742-11.17001-11.058v-10.945h-5.36099v-6.926h5.36099V2.125h7.707v8.321h10v6.926h-10v10.164c0,3.127,1.453,4.635,4.41299,4.635,1.60825.01029,3.16928-.54309,4.41199-1.564l3.07104,6.087Z"/>
  <path class="cls-2" d="M289.108,35.521l2.39999-5.64c2.457,2.066,7.14899,3.183,10.89099,3.183,2.233,0,4.858-.446,4.858-2.792,0-1.62-2.06601-2.066-5.52899-2.681-6.92499-1.228-11.392-2.625-11.392-8.489,0-7.26,6.75699-9.382,12.565-9.382,3.97211-.06024,7.86835,1.09084,11.17001,3.3l-2.39999,5.585c-2.62238-1.71054-5.69327-2.6046-8.82401-2.569-3.23901,0-4.57901.949-4.57901,2.625,0,1.284.89401,1.676,4.189,2.29,6.92401,1.228,12.45401,2.457,12.45401,8.767,0,6.2-5.362,9.662-12.89999,9.662-4.29999,0-9.884-1.452-12.89999-3.854"/>
  <path class="cls-1" d="M12.371,48.594l-4.242-4.242,18.744-18.745c.72349-.72301.72389-1.89563.00088-2.61912l-.00088-.00088L8.129,4.242,12.371,0l18.744,18.744c3.06684,3.06518,3.06819,8.03615.00301,11.10299l-.00301.00301-18.744,18.744Z"/>
  <path class="cls-1" d="M4.242,40.465l-4.242-4.242,11.926-11.923L0,12.37l4.242-4.242,16.17,16.172L4.242,40.465Z"/>
</svg>