<svg xmlns="http://www.w3.org/2000/svg" xmlns:xlink="http://www.w3.org/1999/xlink" width="682.785" height="80.943" viewBox="0 0 682.785 80.943"><defs><clipPath id="a"><rect width="682.785" height="80.943" fill="none"/></clipPath></defs><g transform="translate(0 0)"><g transform="translate(0 0)" clip-path="url(#a)"><path d="M37.858,70.023H11.237A11.248,11.248,0,0,1,0,58.787V1.017H8.585v57.77a2.654,2.654,0,0,0,2.653,2.651H37.858a2.655,2.655,0,0,0,2.653-2.651V12.251A2.655,2.655,0,0,0,37.858,9.6H15.62V1.017H37.858A11.249,11.249,0,0,1,49.1,12.251V58.787A11.249,11.249,0,0,1,37.858,70.023" transform="translate(0 0.438)" fill="#75c9c4"/><rect width="9.452" height="8.585" transform="translate(19.822 46.523)" fill="#75c9c4"/><path d="M89.773,34.211c0,12.385-8.63,21.174-19.417,21.174-5.035,0-9.11-1.837-11.827-5.033V74.322H47.5V13.994h9.988l.479,5.354a15.163,15.163,0,0,1,12.705-6.391c10.467,0,19.1,8.869,19.1,21.254m-11.267,0c0-6.471-4.235-11.027-10.387-11.027-5.992,0-10.389,4.394-10.389,10.947,0,6.473,4.317,11.025,10.389,11.025,6.152,0,10.387-4.553,10.387-10.945" transform="translate(20.462 5.581)" fill="#163348"/><path d="M100.333,45.877A13.932,13.932,0,0,0,110,42.122l7.192,6.872a23.667,23.667,0,0,1-16.541,6.391c-12.543,0-21.894-8.467-21.894-21.334,0-12.224,8.47-21.094,21.094-21.094,13.425,0,19.737,9.429,19.737,19.1a39.9,39.9,0,0,1-.559,5.992H90.106c1.2,5.035,4.873,7.831,10.227,7.831m-10.227-15.5h18.777c-.4-4.714-3.676-7.832-9.11-7.832-5.114,0-8.55,2.957-9.668,7.832" transform="translate(33.926 5.581)" fill="#163348"/><path d="M138.479,13.835l-2.8,10.467a13.544,13.544,0,0,0-4.875-.959c-4.953,0-9.35,3.116-9.35,8.869V54.346H110.432V13.994h9.99l.479,5.594a14.345,14.345,0,0,1,12.226-6.632,16.336,16.336,0,0,1,5.353.878" transform="translate(47.57 5.581)" fill="#163348"/><path d="M129.172,49.874l3.435-8.071c3.515,2.957,10.228,4.554,15.582,4.554,3.195,0,6.951-.638,6.951-3.995,0-2.318-2.956-2.956-7.911-3.836-9.908-1.757-16.3-3.756-16.3-12.146,0-10.387,9.668-13.423,17.977-13.423a27.977,27.977,0,0,1,15.982,4.714l-3.437,7.991a22.637,22.637,0,0,0-12.625-3.676c-4.634,0-6.551,1.358-6.551,3.756,0,1.837,1.279,2.4,5.993,3.276,9.907,1.757,17.819,3.515,17.819,12.543,0,8.871-7.672,13.824-18.46,13.824-6.151,0-14.142-2.077-18.457-5.513" transform="translate(55.642 5.581)" fill="#163348"/><path d="M156.244,34.132c0-12.466,9.11-21.175,21.655-21.175s21.735,8.629,21.735,21.175-9.19,21.253-21.735,21.253-21.655-8.708-21.655-21.253m32.042,0c0-6.473-4.155-10.947-10.387-10.947S167.51,27.579,167.51,34.132s4.156,10.945,10.389,10.945,10.387-4.394,10.387-10.945" transform="translate(67.304 5.581)" fill="#163348"/><path d="M228.547,28.458v25.89H217.6V30.856c0-4.556-3.036-7.672-7.75-7.672-4.4,0-9.19,2.637-9.19,7.831V54.348H189.633V14h9.909l.479,4.953a15.631,15.631,0,0,1,12.784-5.992c8.949,0,15.741,6.072,15.741,15.5" transform="translate(81.687 5.581)" fill="#163348"/><path d="M261.956,14V54.348h-9.907l-.479-5.514a14.938,14.938,0,0,1-12.785,6.551c-10.467,0-19.1-8.868-19.1-21.334,0-12.385,8.63-21.094,19.417-21.094a15.219,15.219,0,0,1,11.905,5.114V14ZM251.729,34.132c0-6.473-4.235-10.947-10.387-10.947s-10.389,4.554-10.389,10.947,4.235,10.945,10.389,10.945c6.072,0,10.387-4.394,10.387-10.945" transform="translate(94.633 5.581)" fill="#163348"/><rect width="11.027" height="59.929" transform="translate(362.811)" fill="#163348"/><path d="M320.983,39.632c0,12.546-8.63,21.334-19.1,21.334a14.962,14.962,0,0,1-12.705-6.391l-.479,5.354h-9.988V0H289.74V23.492a15.2,15.2,0,0,1,11.827-4.953c10.787,0,19.417,8.629,19.417,21.094m-11.267.082c0-6.553-4.235-10.947-10.387-10.947S288.94,33.161,288.94,39.714c0,6.71,4.317,10.945,10.389,10.945,6.152,0,10.387-4.394,10.387-10.945" transform="translate(120.059 0)" fill="#163348"/><path d="M352.434,14V54.348h-9.906l-.479-5.514a14.938,14.938,0,0,1-12.785,6.551c-10.467,0-19.1-8.868-19.1-21.334,0-12.385,8.63-21.094,19.417-21.094a15.219,15.219,0,0,1,11.906,5.114V14ZM342.207,34.132c0-6.473-4.235-10.947-10.387-10.947s-10.389,4.554-10.389,10.947,4.235,10.945,10.389,10.945c6.072,0,10.387-4.394,10.387-10.945" transform="translate(133.607 5.581)" fill="#163348"/><path d="M382.971,28.458v25.89H372.024V30.856c0-4.556-3.036-7.672-7.751-7.672-4.4,0-9.19,2.637-9.19,7.831V54.348H344.057V14h9.909l.479,4.953a15.631,15.631,0,0,1,12.784-5.992c8.949,0,15.741,6.072,15.741,15.5" transform="translate(148.207 5.581)" fill="#163348"/><path d="M392.008,44.347l-5.514,5.833v9.749H375.467V0h11.027V36.357l14.7-16.381h13.823L398.8,37.157l16.781,22.772H402.8Z" transform="translate(161.737 0)" fill="#163348"/><path d="M404.506,7.606a6.712,6.712,0,1,1,13.425,0,6.713,6.713,0,0,1-13.425,0m12.226,51.937H405.7V19.191h11.027Z" transform="translate(174.246 0.384)" fill="#163348"/><path d="M456.7,28.458v25.89H445.755V30.856c0-4.556-3.036-7.672-7.75-7.672-4.4,0-9.19,2.637-9.19,7.831V54.348H417.788V14H427.7l.479,4.953a15.631,15.631,0,0,1,12.784-5.992c8.949,0,15.741,6.072,15.741,15.5" transform="translate(179.967 5.581)" fill="#163348"/><path d="M489.871,14V54.907c0,12.3-7.989,20.454-20.933,20.454A35.108,35.108,0,0,1,450,69.69l4.875-8.391a24.075,24.075,0,0,0,13.1,4.315c6.87,0,10.866-3.836,10.866-10.706V49.954a14.825,14.825,0,0,1-11.905,5.431c-10.468,0-19.1-8.868-19.1-21.334,0-12.385,8.63-21.094,19.417-21.094a15.441,15.441,0,0,1,11.586,4.714V14Zm-9.987,20.137c0-6.473-4.235-10.947-10.387-10.947s-10.389,4.554-10.389,10.947,4.235,10.945,10.389,10.945c6.072,0,10.387-4.394,10.387-10.945" transform="translate(192.913 5.581)" fill="#163348"/></g></g></svg>