<?xml version="1.0" encoding="UTF-8"?>
<svg id="_Слой_1" data-name="Слой 1" xmlns="http://www.w3.org/2000/svg" version="1.1" xmlns:xlink="http://www.w3.org/1999/xlink" viewBox="0 0 241.366 36.807">
  <defs>
    <style>
      .cls-1 {
        fill: #75c9c4;
      }

      .cls-1, .cls-2, .cls-3 {
        stroke-width: 0px;
      }

      .cls-2 {
        fill: none;
      }

      .cls-3 {
        fill: #163348;
      }

      .cls-4 {
        clip-path: url(#clippath);
      }
    </style>
    <clipPath id="clippath">
      <rect class="cls-2" width="241.366" height="36.807"/>
    </clipPath>
  </defs>
  <g class="cls-4">
    <g>
      <path class="cls-1" d="M132.765,18.022c0,5.7-3.92401,9.7-8.68399,9.7-2.29269.06733-4.46484-1.0257-5.77701-2.907l-.21799,2.435h-4.54202V0h5.01501v10.683c1.37216-1.50634,3.33887-2.33072,5.375-2.253,4.89999,0,8.82901,3.924,8.82901,9.593M127.64003,18.059c0-2.98-1.92599-4.978-4.724-4.978s-4.724,2-4.724,4.978c0,3.052,1.96201,4.978,4.724,4.978,2.79999,0,4.724-2,4.724-4.978"/>
      <path class="cls-1" d="M152.71298,8.902v18.35h-4.505l-.21799-2.507c-1.30127,1.92123-3.49347,3.04503-5.81299,2.98-4.76001,0-8.685-4.033-8.685-9.7,0-5.632,3.92401-9.593,8.82999-9.593,2.06097-.07053,4.04599.78192,5.414,2.325v-1.855h4.97699ZM148.06299,18.059c.13696-2.60872-1.86682-4.83452-4.47552-4.97147s-4.8345,1.86681-4.97147,4.47552c-.00867.1652-.00867.33074,0,.49594-.13696,2.60871,1.86682,4.83452,4.47552,4.97147s4.8345-1.86681,4.97147-4.47552c.00867-.1652.00867-.33074,0-.49594"/>
      <path class="cls-1" d="M173.08499,15.479v11.773h-4.978v-10.683c.10294-1.82461-1.29272-3.3872-3.11734-3.49015-.1358-.00766-.27194-.00694-.40765.00215-2,0-4.17801,1.2-4.17801,3.561v10.61h-5.01401V8.902h4.505l.21799,2.253c1.39435-1.78127,3.55292-2.79298,5.814-2.725,3.75018-.20043,6.95279,2.67721,7.15323,6.4274.01105.20702.01263.41444.00476.6216"/>
      <path class="cls-1" d="M183.198,20.166l-2.50699,2.652v4.433h-5.01501V0h5.01501v16.533l6.685-7.449h6.28601l-7.37604,7.816,7.62601,10.351h-5.814l-4.89999-7.085Z"/>
      <path class="cls-1" d="M194.405,3.634c-.06097-1.68447,1.25516-3.09943,2.93961-3.16039,1.68448-.06097,3.09943,1.25515,3.1604,2.93962.00266.07357.00266.14721,0,.22077-.06097,1.68447-1.47592,3.00058-3.1604,2.93962-1.59891-.05787-2.88174-1.34069-2.93961-2.93962M199.96399,27.252h-5.01501V8.902h5.01501v18.35Z"/>
      <path class="cls-1" d="M220.57697,15.479v11.773h-4.97803v-10.683c.10297-1.82461-1.29272-3.3872-3.11734-3.49015-.1358-.00766-.27194-.00694-.40765.00215-2,0-4.17801,1.2-4.17801,3.561v10.61h-5.01401V8.902h4.505l.21799,2.253c1.39435-1.78127,3.55292-2.79298,5.814-2.725,3.75021-.20043,6.95279,2.67721,7.15323,6.4274.01105.20702.01263.41444.00476.6216"/>
      <path class="cls-1" d="M241.366,8.902v18.6c0,5.6-3.63397,9.3-9.52002,9.3-3.05823-.01715-6.04718-.91268-8.61102-2.58l2.21698-3.815c1.75244,1.22126,3.82379,1.90326,5.95898,1.962,3.125,0,4.94202-1.744,4.94202-4.869v-2.24701c-1.32379,1.6187-3.32379,2.5315-5.414,2.471-4.76001,0-8.68402-4.033-8.68402-9.7,0-5.632,3.92401-9.593,8.82898-9.593,1.9801-.06058,3.89374.71808,5.26898,2.144v-1.673h5.01312ZM236.82401,18.059c.13678-2.60872-1.86713-4.8344-4.47583-4.97119-2.6087-.13679-4.83441,1.86711-4.97119,4.47583-.00867.16501-.00867.33035,0,.49536-.13678,2.60872,1.86713,4.8344,4.47583,4.97119s4.83441-1.86711,4.97119-4.47583c.00867-.16501.00867-.33035,0-.49536"/>
      <path class="cls-3" d="M89.32701,8.96v18.326h-4.5l-.218-2.5c-1.30325,1.91345-3.49185,3.03074-5.806,2.964-4.754,0-8.674-4.027-8.674-9.693s3.92-9.578,8.819-9.578c2.05727-.06977,4.03876.78022,5.40601,2.319v-1.853l4.97299.015ZM84.70302,18.097c.13686-2.60596-1.86476-4.82944-4.4707-4.96629-2.60596-.13685-4.82944,1.86476-4.96629,4.47071-.00867.16508-.00867.3305,0,.49558-.18156,2.55893,1.74567,4.78054,4.3046,4.9621.13724.00974.27484.01337.4124.01089,2.79401,0,4.72-1.986,4.72-4.973"/>
      <path class="cls-3" d="M35.826,15.56v11.8h-4.991v-10.707c.15595-1.78038-1.16091-3.35008-2.94128-3.50603-.20861-.01827-.4185-.01625-.62672.00603-1.967,0-4.154,1.2-4.154,3.572v10.636h-5.024V.039h5.024v10.822c1.43438-1.57083,3.48389-2.43594,5.61-2.368,3.70805-.2122,6.88604,2.62175,7.09823,6.3298.01403.24518.01462.49095.00177.7362"/>
      <path class="cls-3" d="M52.03,9.749c-1.14353,1.07172-1.9909,2.42061-2.46,3.916-.70747-.28232-1.4613-.43051-2.223-.437-2.18783-.16006-4.09117,1.48376-4.25123,3.67159-.00902.12325-.01228.24685-.00977.37041v10.09h-5.02499V8.967h4.554l.219,2.549c1.02991-1.89529,3.03037-3.05846,5.187-3.016,1.42065.06953,2.80025.49934,4.009,1.249"/>
      <path class="cls-3" d="M60.544,23.5c1.63344.02049,3.21214-.58822,4.409-1.7l3.27499,3.131c-2.03957,1.91383-4.74344,2.95952-7.53999,2.916-5.717,0-9.978-3.861-9.978-9.726-.23462-5.0756,3.68977-9.38038,8.76538-9.615.28305-.01308.56656-.01308.84962,0,6.121,0,9,4.3,9,8.7-.01501.91655-.1006,1.83059-.256,2.734h-13.19c.43527,2.19206,2.43608,3.71594,4.66499,3.553M55.87901,16.427h8.563c-.18201-2.149-1.675-3.572-4.15401-3.572-2.1642-.09645-4.05844,1.44119-4.409,3.57899v-.00699Z"/>
      <path class="cls-3" d="M109.70999.039v27.321h-4.517l-.215-2.512c-1.30531,1.92379-3.50102,3.04973-5.825,2.987-4.772,0-8.707-4.009-8.707-9.727s3.935-9.615,8.85201-9.615c2.06055-.08224,4.05048.75839,5.42799,2.293V.039h4.98399ZM104.34099,18.139c0-2.987-1.92999-4.991-4.735-4.991s-4.735,2-4.735,4.991,1.92999,4.991,4.735,4.991,4.735-1.93,4.735-4.991"/>
      <path class="cls-3" d="M19.012,16.767c-.089.159-2.62,6.455-7.181,6.366-1.71484.10674-3.19152-1.19688-3.29826-2.91172-.00738-.11863-.00796-.23759-.00174-.35628v-6.629h6.514v-4.517h-6.523V3.279l-5.022,2.053v3.375H0v4.517h3.5v7.14c0,4.765,2.7,7.625,7.41,7.625,2.72625-.01537,5.31825-1.18546,7.133-3.22,1.56445-1.6054,2.98865-3.34173,4.257-5.19l-3.288-2.812Z"/>
    </g>
  </g>
</svg>