<?xml version="1.0" encoding="UTF-8"?>
<svg id="_Слой_1" data-name="Слой 1" xmlns="http://www.w3.org/2000/svg" version="1.1" xmlns:xlink="http://www.w3.org/1999/xlink" viewBox="0 0 239.672 36.807">
  <defs>
    <style>
      .cls-1 {
        fill: #f06661;
      }

      .cls-1, .cls-2, .cls-3 {
        stroke-width: 0px;
      }

      .cls-2 {
        fill: none;
      }

      .cls-3 {
        fill: #ffffff;
      }

      .cls-4 {
        clip-path: url(#clippath);
      }
    </style>
    <clipPath id="clippath">
      <rect class="cls-2" x="0" width="239.672" height="27.729"/>
    </clipPath>
  </defs>
  <g class="cls-4">
    <g>
      <path class="cls-3" d="M88.62401,8.849v18.182h-4.46301l-.217-2.481c-1.29291,1.89836-3.46413,3.00696-5.75999,2.941-4.717,0-8.606-4-8.606-9.617s3.88899-9.5,8.74899-9.5c2.04082-.06936,4.00653.77366,5.36301,2.3v-1.84l4.93401.015ZM84.03601,17.915c.13626-2.58552-1.84926-4.79197-4.43478-4.92823-2.58551-.13626-4.79196,1.84925-4.92822,4.43478-.00867.16437-.00867.32908,0,.49345-.17992,2.53856,1.73215,4.74232,4.27072,4.92223.1362.00965.27275.01325.40927.01077,2.772,0,4.683-1.97,4.683-4.933"/>
      <path class="cls-3" d="M35.542,15.4v11.7h-4.949v-10.62c.15307-1.76677-1.15509-3.3231-2.92186-3.47617-.20576-.01783-.41277-.01576-.61814.00617-1.952,0-4.121,1.191-4.121,3.544v10.546h-4.985V0h4.985v10.734c1.42313-1.55845,3.45661-2.41664,5.566-2.349,3.67882-.21064,6.83185,2.60088,7.04248,6.27969.01402.24489.01453.49036.00152.7353"/>
      <path class="cls-3" d="M51.621,9.631c-1.13466,1.06358-1.97546,2.40211-2.441,3.886-.70203-.28032-1.4501-.4275-2.206-.434-2.17078-.15839-4.05895,1.47297-4.21735,3.64375-.0089.12187-.01212.24408-.00965.36625v10.01h-4.98499V8.856h4.518l.219,2.533c1.02209-1.88046,3.00714-3.03439,5.147-2.992,1.40964.06884,2.77858.49521,3.978,1.239"/>
      <path class="cls-3" d="M60.06799,23.276c1.62045.02121,3.18698-.58176,4.375-1.684l3.25,3.106c-2.02365,1.89877-4.70636,2.9362-7.481,2.893-5.672,0-9.9-3.831-9.9-9.65-.23003-5.03877,3.66824-9.30997,8.70699-9.54.27753-.01267.55548-.01267.83301,0,6.073,0,8.925,4.264,8.925,8.635-.01488.90951-.09979,1.81653-.254,2.713h-13.08299c.43135,2.17512,2.41641,3.68752,4.62801,3.526M55.44,16.264h8.5c-.17999-2.132-1.662-3.544-4.121-3.544-2.14644-.09884-4.02763,1.42321-4.379,3.543v.001Z"/>
      <path class="cls-3" d="M108.847,0v27.1h-4.481l-.213-2.493c-1.29507,1.90846-3.47345,3.02536-5.77901,2.963-4.735,0-8.63899-3.978-8.63899-9.65s3.89999-9.539,8.782-9.539c2.04425-.08157,4.01843.75246,5.38499,2.275V0h4.94501ZM103.52001,17.962c0-2.963-1.91499-4.952-4.7-4.952s-4.7,1.989-4.7,4.952,1.91499,4.952,4.7,4.952,4.7-1.915,4.7-4.952"/>
      <path class="cls-3" d="M18.862,16.594c-.088.158-2.6,6.4-7.125,6.316-1.701.10676-3.16649-1.18563-3.27325-2.88663-.00745-.11866-.00803-.23765-.00175-.35637v-6.577h6.463v-4.481h-6.47V3.209l-4.985,2.04v3.349H0v4.481h3.47v7.084c0,4.727,2.68,7.565,7.352,7.565,2.70509-.01473,5.27717-1.1754,7.078-3.194,1.55231-1.59197,2.96547-3.31393,4.224-5.147l-3.262-2.793Z"/>
      <path class="cls-1" d="M111.38799,17.871c-.19562-5.1071,3.78595-9.40579,8.89304-9.60139.24759-.00948.49542-.00902.74295.00139,2.73657-.0732,5.3689,1.05123,7.20801,3.079l-3.69501,3.151c-.84735-1.04447-2.13364-1.63361-3.478-1.593-2.71701,0-4.564,1.992-4.564,4.962s1.811,4.963,4.60001,4.963c1.444.04543,2.81076-.65154,3.62201-1.847l3.73099,3.188c-1.84183,2.17961-4.5733,3.40558-7.42599,3.333-5.12357.19823-9.43774-3.79456-9.63599-8.91813-.00925-.2392-.00925-.47867,0-.71787"/>
      <path class="cls-1" d="M128.435,17.871c0-5.651,4.13-9.6,9.81699-9.6s9.85199,3.912,9.85199,9.6-4.16501,9.636-9.85199,9.636-9.81699-3.949-9.81699-9.636M142.961,17.871c0-2.934-1.884-4.962-4.70901-4.962s-4.70901,1.992-4.70901,4.962,1.883,4.963,4.70901,4.963,4.70901-1.992,4.70901-4.963"/>
      <path class="cls-1" d="M167.57599,15.299v11.737h-4.96298v-10.65c.10178-1.8197-1.29086-3.37736-3.11057-3.47914-.1344-.00752-.26913-.0068-.40344.00214-1.992,0-4.16599,1.2-4.16599,3.55v10.577h-5V8.743h4.491l.21799,2.246c1.39056-1.77733,3.54437-2.78627,5.79999-2.717,3.73859-.19986,6.93137,2.66885,7.13123,6.40745.01102.20634.0126.41307.00476.61955"/>
      <path class="cls-1" d="M187.8,15.299v11.737h-4.96201v-10.65c.10178-1.8197-1.29086-3.37736-3.11057-3.47914-.1344-.00752-.26913-.0068-.40344.00214-1.992,0-4.16599,1.2-4.16599,3.55v10.577h-5V8.743h4.491l.21799,2.246c1.39056-1.77733,3.54437-2.78627,5.79999-2.717,3.73859-.19986,6.93137,2.66885,7.13123,6.40745.01102.20634.0126.41307.00476.61955"/>
      <path class="cls-1" d="M199.23898,23.196c1.62531.01832,3.19513-.59055,4.383-1.7l3.26001,3.115c-2.02963,1.90221-4.71863,2.94195-7.5,2.9-5.68701,0-9.92499-3.84-9.92499-9.672-.23523-5.04627,3.66489-9.32777,8.71115-9.563.28378-.01323.56805-.01323.85184,0,6.086,0,8.94699,4.274,8.94699,8.657-.01587.91074-.10046,1.81898-.25299,2.717h-13.112c.42444,2.18636,2.41562,3.71078,4.63699,3.55M194.60199,16.166h8.513c-.181-2.137-1.66599-3.55-4.13-3.55-2.14914-.09724-4.03171,1.42753-4.383,3.55"/>
      <path class="cls-1" d="M237.68201,21.82001c-.80621.66199-1.81885,1.02075-2.862,1.01398-1.91998,0-2.862-.97699-2.862-3.00598v-6.59302h6.48401v-4.492h-6.48401V3.34296h-5v5.40002h-8.42603l-.00098.00104c-5.578,0-9.63501,3.47797-9.63501,9.12897-.00928.2392-.00928.4787,0,.7179.19824,5.12305,4.51196,9.11536,9.63501,8.91711,2.85254.07281,5.58398-1.15277,7.42603-3.33203l-3.73102-3.18799c-.81097,1.19574-2.17792,1.89282-3.62201,1.84698-2.789,0-4.59998-1.99298-4.59998-4.96295-.02142-.23499-.02332-.47137-.00562-.70667.17651-2.34723,2.22241-4.10687,4.56964-3.93036h8.38995v7.09998c0,4.745,2.57202,7.172,7.245,7.172,1.97394.10583,3.91864-.51251,5.46899-1.73895l-1.98999-3.948Z"/>
    </g>
  </g>
</svg>