<?xml version="1.0" encoding="UTF-8"?>
<svg id="_Слой_1" data-name=" Слой 1" xmlns="http://www.w3.org/2000/svg" version="1.1" viewBox="0 0 278.96002 57">
  <defs>
    <style>
      .cls-1 {
        fill: #f06661;
      }

      .cls-1, .cls-2 {
        stroke-width: 0px;
      }

      .cls-2 {
        fill: #163348;
      }
    </style>
  </defs>
  <path class="cls-2" d="M85.63601,38.815c-1.787,1.509-4.412,2.685-8.43501,2.685-7.2,0-11.17-3.742-11.17-11.058v-10.949h-5.36v-6.925h5.361V4.246h7.708v8.322h10v6.925h-10v10.164c0,3.128,1.453,4.635,4.412,4.635,1.60817.01083,3.16929-.54222,4.412-1.563,0,0,3.072,6.086,3.07201,6.086Z"/>
  <path class="cls-2" d="M107.60801,12.456l-1.955,7.315c-1.08446-.43081-2.23916-.65761-3.406-.669-3.462,0-6.534,2.178-6.534,6.2v15.468h-7.71201V12.57h6.983l.334,3.91c1.85906-2.91504,5.08875-4.66669,8.546-4.635,1.2725-.00515,2.5369.20237,3.741.614"/>
  <path class="cls-2" d="M122.07901,34.851c2.50656.02742,4.92715-.91281,6.758-2.625l5.028,4.8c-3.12875,2.93432-7.27504,4.53848-11.564,4.474-8.768,0-15.3-5.918-15.3-14.911,0-8.544,5.92-14.743,14.744-14.743,9.383,0,13.79501,6.59,13.79501,13.348-.02458,1.4039-.15562,2.80392-.392,4.188h-20.217c.838,3.519,3.408,5.473,7.148,5.473M114.93101,24.017h13.12499c-.279-3.3-2.568-5.474-6.367-5.474-3.3138-.14985-6.21646,2.20131-6.758,5.474"/>
  <path class="cls-2" d="M166.96201,12.568v28.2h-6.923l-.336-3.854c-2.00081,2.95271-5.37067,4.6795-8.936,4.579-7.31599,0-13.34799-6.2-13.34799-14.911,0-8.656,6.032-14.743,13.571-14.743,3.16795-.10815,6.21909,1.2022,8.32201,3.574v-2.845s7.64999,0,7.64999,0ZM159.81401,26.642c0-4.524-2.959-7.651-7.25999-7.651s-7.25999,3.183-7.25999,7.651,2.959,7.65,7.25999,7.65c4.244,0,7.25999-3.071,7.25999-7.65"/>
  <path class="cls-2" d="M169.48001,37.643l2.39999-5.64c2.457,2.066,7.149,3.183,10.89101,3.183,2.23199,0,4.85699-.446,4.85699-2.792,0-1.62-2.06599-2.066-5.52901-2.681-6.924-1.228-11.392-2.625-11.392-8.489,0-7.26,6.757-9.382,12.56599-9.382,3.97209-.06005,7.86827,1.09101,11.17,3.3l-2.39999,5.585c-2.62228-1.7107-5.69325-2.60478-8.82401-2.569-3.23801,0-4.578.949-4.578,2.625,0,1.284.89301,1.676,4.188,2.29,6.925,1.228,12.455,2.457,12.455,8.767,0,6.2-5.362,9.662-12.89999,9.662-4.3,0-9.884-1.452-12.89999-3.854"/>
  <path class="cls-2" d="M224.067,12.567v28.2h-6.979l-.336-3.406c-1.95798,2.68328-5.11272,4.22905-8.433,4.132-5.97701,0-10.61-4.244-10.61-10.834V12.559h7.70599v16.651c-.13242,2.70627,1.95412,5.00748,4.66039,5.13989.17746.00868.35526.00772.53261-.00289,3.03438.1392,5.60707-2.2078,5.74626-5.24218.00351-.07656.00543-.15318.00574-.22982V12.567h7.70702Z"/>
  <path class="cls-2" d="M247.93501,12.456l-1.953,7.315c-1.08521-.43063-2.24054-.65742-3.408-.669-3.461,0-6.534,2.178-6.534,6.2v15.468h-7.707V12.57h6.981l.336,3.91c1.85873-2.91488,5.08806-4.66654,8.545-4.635,1.27217-.00515,2.53625.20237,3.74001.614"/>
  <path class="cls-2" d="M278.96002,12.567l-15.63702,39.372h-7.20499l4.133-11.169-12.062-28.2h8.265l7.42801,18.374,6.758-18.374s8.32001-.003,8.32001-.003Z"/>
  <path class="cls-1" d="M21.76701,49.963l-4.242-4.242,19.393-19.393c.7223-.72438.7223-1.89662,0-2.621l-11.74-11.74,4.242-4.242,11.741,11.74c3.05631,3.06885,3.05631,8.03115,0,11.1,0,0-19.394,19.398-19.394,19.398Z"/>
  <path class="cls-1" d="M14.04201,42.238L2.30101,30.5c-3.06684-3.06518-3.06818-8.03615-.00301-11.10299.001-.001.00201-.00201.00301-.00301L21.69401,0l4.243,4.242L6.54401,23.634c-.72296.72449-.72296,1.89751,0,2.622l11.74,11.744s-4.242,4.238-4.242,4.238Z"/>
</svg>