<svg id="Group_413" data-name="Group 413" xmlns="http://www.w3.org/2000/svg" xmlns:xlink="http://www.w3.org/1999/xlink" width="160.485" height="98.916" viewBox="0 0 160.485 98.916">
  <defs>
    <clipPath id="clip-path">
      <rect id="Rectangle_1220" data-name="Rectangle 1220" width="160.485" height="98.915" fill="#8698a5"/>
    </clipPath>
    <clipPath id="clip-path-2">
      <path id="Path_349" data-name="Path 349" d="M83.92,42.069V37.79a4.118,4.118,0,0,1,8.237,0v4.279a4.118,4.118,0,0,1-8.237,0m12.932,0V28.794a4.118,4.118,0,1,1,8.237,0V42.069a4.118,4.118,0,1,1-8.237,0m12.939,0V18.928a4.118,4.118,0,1,1,8.237,0v23.14a4.118,4.118,0,1,1-8.237,0M120.087.717,98.743,16.4a1.457,1.457,0,0,1-1.738-.007L76.092.717A3.649,3.649,0,0,0,70.28,3.652V45.194A7.912,7.912,0,0,0,78.2,53.109h39.789a7.912,7.912,0,0,0,7.915-7.915V3.652A3.653,3.653,0,0,0,122.236,0a3.6,3.6,0,0,0-2.149.717" transform="translate(-70.28)" fill="#8698a5"/>
    </clipPath>
  </defs>
  <path id="Path_341" data-name="Path 341" d="M21.621,95.232l-8.974,15.247L3.512,95.232H0v23H4.075v-15.05L11.632,115.6h1.906L21.1,102.987l.029,15.247H25.17l-.037-23Z" transform="translate(0 -25.693)" fill="#8698a5"/>
  <g id="Group_410" data-name="Group 410">
    <g id="Group_409" data-name="Group 409" clip-path="url(#clip-path)">
      <path id="Path_342" data-name="Path 342" d="M54.495,102.629v2.14a6.882,6.882,0,0,0-2.483-1.745,8.126,8.126,0,0,0-3.14-.591,9.283,9.283,0,0,0-4.578,1.117,7.957,7.957,0,0,0-3.154,3.14,10.367,10.367,0,0,0,0,9.449,7.9,7.9,0,0,0,3.154,3.154,9.283,9.283,0,0,0,4.578,1.117,8.53,8.53,0,0,0,3.308-.628,6.3,6.3,0,0,0,2.512-1.869v2.264H58.6V102.629Zm-1.417,12.749a5.018,5.018,0,0,1-3.746,1.512,4.947,4.947,0,0,1-3.724-1.512,6.119,6.119,0,0,1,0-7.952,4.947,4.947,0,0,1,3.724-1.512,5.018,5.018,0,0,1,3.746,1.512,6.073,6.073,0,0,1,0,7.952" transform="translate(-10.792 -27.635)" fill="#8698a5"/>
      <path id="Path_343" data-name="Path 343" d="M76.314,105.192v-2.563H72.4v17.547h4.111v-8.507a5.558,5.558,0,0,1,1.344-4.023,4.95,4.95,0,0,1,3.746-1.4,5.28,5.28,0,0,1,.957.1v-3.914q-4.469,0-6.243,2.76" transform="translate(-19.533 -27.635)" fill="#8698a5"/>
      <path id="Path_344" data-name="Path 344" d="M100.846,107.537l7.331-7.36h-4.929l-8.514,7.886V93.342h-4.1v24.382h4.1v-4.63l3.06-2.892,6.075,7.521h4.995Z" transform="translate(-24.451 -25.183)" fill="#8698a5"/>
      <path id="Path_345" data-name="Path 345" d="M133.771,111.5a9.707,9.707,0,0,0-1.132-4.746,8.067,8.067,0,0,0-3.154-3.184,9.188,9.188,0,0,0-4.586-1.139,9.446,9.446,0,0,0-4.666,1.154A8.226,8.226,0,0,0,117,106.791a9.665,9.665,0,0,0,.029,9.266,8.321,8.321,0,0,0,3.4,3.2,11.821,11.821,0,0,0,9.164.431,7.438,7.438,0,0,0,2.994-2.14l-2.205-2.527a6.387,6.387,0,0,1-4.761,1.906,6.229,6.229,0,0,1-3.8-1.132,4.8,4.8,0,0,1-1.891-3.074h13.772c.044-.526.066-.935.066-1.219M119.9,109.99a4.926,4.926,0,0,1,1.658-3.1,4.986,4.986,0,0,1,3.337-1.168,4.791,4.791,0,0,1,4.958,4.272Z" transform="translate(-31.25 -27.635)" fill="#8698a5"/>
      <path id="Path_346" data-name="Path 346" d="M153.884,114.939a3.609,3.609,0,0,1-2.3.723,2.337,2.337,0,0,1-1.811-.672,2.774,2.774,0,0,1-.621-1.957v-8.346h4.7V101.4h-4.7V97.392h-4.111V101.4H142.15v3.286h2.892v8.448a5.818,5.818,0,0,0,1.577,4.4,6.2,6.2,0,0,0,4.469,1.512,7.976,7.976,0,0,0,2.191-.3,4.834,4.834,0,0,0,1.753-.884Z" transform="translate(-38.351 -26.276)" fill="#8698a5"/>
      <path id="Path_347" data-name="Path 347" d="M176.942,100.992v10.617a5.454,5.454,0,0,1-1.132,3.731,4.173,4.173,0,0,1-3.271,1.263,4.222,4.222,0,0,1-3.315-1.285,5.375,5.375,0,0,1-1.154-3.709V100.992h-4.14v10.749a8.228,8.228,0,0,0,2.271,6.141,10.011,10.011,0,0,0,12.581.022,8.3,8.3,0,0,0,2.234-6.163V100.992Z" transform="translate(-44.227 -27.247)" fill="#8698a5"/>
      <path id="Path_348" data-name="Path 348" d="M211.741,106.7a8.029,8.029,0,0,0-3.169-3.155,9.311,9.311,0,0,0-4.586-1.117,8.468,8.468,0,0,0-3.3.628,6.384,6.384,0,0,0-2.512,1.869v-2.3H194.26v23.922h4.111v-8.507a7.076,7.076,0,0,0,5.615,2.366,9.311,9.311,0,0,0,4.586-1.117,8.019,8.019,0,0,0,3.169-3.169,9.5,9.5,0,0,0,1.154-4.717,9.409,9.409,0,0,0-1.154-4.7m-4.483,8.675a4.963,4.963,0,0,1-3.731,1.512,5.231,5.231,0,0,1-2.658-.672,4.848,4.848,0,0,1-1.877-1.92,6.434,6.434,0,0,1,0-5.783,4.848,4.848,0,0,1,1.877-1.92,5.236,5.236,0,0,1,2.658-.679,4.963,4.963,0,0,1,3.731,1.512,6.142,6.142,0,0,1,0,7.952" transform="translate(-52.41 -27.635)" fill="#8698a5"/>
    </g>
  </g>
  <g id="Group_412" data-name="Group 412" transform="translate(51.319)">
    <g id="Group_411" data-name="Group 411" clip-path="url(#clip-path-2)">
      <rect id="Rectangle_1221" data-name="Rectangle 1221" width="77.611" height="77.529" transform="matrix(0.735, -0.678, 0.678, 0.735, -26.998, 23.878)" fill="#8698a5"/>
    </g>
  </g>
</svg>
