<svg id="Group_614" data-name="Group 614" xmlns="http://www.w3.org/2000/svg" xmlns:xlink="http://www.w3.org/1999/xlink" width="166.205" height="97.375" viewBox="0 0 166.205 97.375">
  <defs>
    <clipPath id="clip-path">
      <rect id="Rectangle_1225" data-name="Rectangle 1225" width="166.205" height="97.375" fill="#8698a5"/>
    </clipPath>
  </defs>
  <g id="Group_416" data-name="Group 416" transform="translate(0 0)" clip-path="url(#clip-path)">
    <path id="Path_361" data-name="Path 361" d="M109.292,27.419a6.989,6.989,0,0,0,7.546,1.546c.126-.048.193-.077.261-.106l.106-.048c.106-.039.2-.1.309-.145.232-.126.454-.261.676-.406a2.244,2.244,0,0,0,.29-.213l.068-.048.589-.512.068-.068a7,7,0,0,0,0-9.913L104.094,2.4A8.21,8.21,0,0,0,92.5,2.4L88.385,6.512l20.733,20.733Z" transform="translate(-2.993 0)" fill="#8698a5"/>
    <path id="Path_362" data-name="Path 362" d="M89.473,55.824a5.576,5.576,0,0,0,.609-.56L112.97,32.375h-.01a9.894,9.894,0,0,1-6.995-2.908l-.145-.145L78.894,2.4a8.222,8.222,0,0,0-11.6,0l-14.26,14.27a8.187,8.187,0,0,0,0,11.594L79.754,54.993a7.352,7.352,0,0,0,9.719.831M60.489,25.516a3.566,3.566,0,1,1,0-5.043,3.569,3.569,0,0,1,0,5.043" transform="translate(-1.714 0)" fill="#8698a5"/>
    <path id="Path_363" data-name="Path 363" d="M29.865,72.18,24.331,88.72,18.859,72.18h-3.71l-5.6,16.448L4.174,72.18H0L7.173,93.822h4.3l5.441-16.015L22.26,93.822h4.266L33.7,72.18Z" transform="translate(0 -2.444)" fill="#8698a5"/>
    <path id="Path_364" data-name="Path 364" d="M48.515,79.5a6.488,6.488,0,0,0-2.334-1.639,7.649,7.649,0,0,0-2.953-.557,8.767,8.767,0,0,0-4.313,1.051A7.508,7.508,0,0,0,35.948,81.3a9.792,9.792,0,0,0,0,8.888,7.473,7.473,0,0,0,2.968,2.968,8.767,8.767,0,0,0,4.313,1.051,8,8,0,0,0,3.107-.587A5.983,5.983,0,0,0,48.7,91.862v2.133H52.38V77.486H48.515Zm-1.329,9.986A4.723,4.723,0,0,1,43.661,90.9a4.672,4.672,0,0,1-3.509-1.422,5.774,5.774,0,0,1,0-7.482,4.672,4.672,0,0,1,3.509-1.422A4.723,4.723,0,0,1,47.186,82a5.725,5.725,0,0,1,0,7.482" transform="translate(-1.181 -2.617)" fill="#8698a5"/>
    <rect id="Rectangle_1223" data-name="Rectangle 1223" width="3.865" height="22.94" transform="translate(55.959 68.437)" fill="#8698a5"/>
    <rect id="Rectangle_1224" data-name="Rectangle 1224" width="3.865" height="22.94" transform="translate(64.585 68.437)" fill="#8698a5"/>
    <path id="Path_365" data-name="Path 365" d="M87.213,78.367A8.662,8.662,0,0,0,82.9,77.3a8.88,8.88,0,0,0-4.39,1.082A7.788,7.788,0,0,0,75.465,81.4a8.641,8.641,0,0,0-1.1,4.344A8.507,8.507,0,0,0,75.5,90.115a7.8,7.8,0,0,0,3.2,3.014,11.149,11.149,0,0,0,8.626.4,6.982,6.982,0,0,0,2.813-2.01l-2.071-2.381a6.019,6.019,0,0,1-4.483,1.793,5.827,5.827,0,0,1-3.571-1.067,4.49,4.49,0,0,1-1.778-2.891H91.186q.061-.742.062-1.144a9.1,9.1,0,0,0-1.067-4.467,7.556,7.556,0,0,0-2.968-3M78.2,84.411a4.612,4.612,0,0,1,1.561-2.922,4.663,4.663,0,0,1,3.138-1.1A4.608,4.608,0,0,1,86.053,81.5a4.561,4.561,0,0,1,1.515,2.906Z" transform="translate(-2.518 -2.617)" fill="#8698a5"/>
    <path id="Path_366" data-name="Path 366" d="M101.96,90.906a2.205,2.205,0,0,1-1.7-.634,2.609,2.609,0,0,1-.587-1.84V80.579h4.421V77.488H99.672V73.716H95.808v3.772H93.087v3.092h2.721v7.946a5.474,5.474,0,0,0,1.484,4.143,5.836,5.836,0,0,0,4.2,1.422,7.447,7.447,0,0,0,2.056-.278,4.555,4.555,0,0,0,1.654-.835l-1.082-2.752a3.4,3.4,0,0,1-2.164.68" transform="translate(-3.152 -2.496)" fill="#8698a5"/>
    <path id="Path_367" data-name="Path 367" d="M115.562,72.18l-9.739,21.642h4.143l2.133-5.008H122.92l2.164,5.008h4.2l-9.77-21.642Zm-2.1,13.48,4.05-9.46,4.081,9.46Z" transform="translate(-3.583 -2.444)" fill="#8698a5"/>
    <path id="Path_368" data-name="Path 368" d="M145.718,78.351a8.767,8.767,0,0,0-4.313-1.051,8,8,0,0,0-3.107.587,5.969,5.969,0,0,0-2.365,1.762V77.486h-3.679V99.993h3.865V91.985a6.665,6.665,0,0,0,5.287,2.226,8.767,8.767,0,0,0,4.313-1.051,7.555,7.555,0,0,0,2.983-2.983,9.6,9.6,0,0,0,0-8.858,7.585,7.585,0,0,0-2.983-2.968m-1.237,11.13a4.672,4.672,0,0,1-3.509,1.422,4.973,4.973,0,0,1-2.5-.634,4.576,4.576,0,0,1-1.762-1.809,6.025,6.025,0,0,1,0-5.441,4.576,4.576,0,0,1,1.762-1.809,4.974,4.974,0,0,1,2.5-.634A4.672,4.672,0,0,1,144.481,82a5.774,5.774,0,0,1,0,7.482" transform="translate(-4.478 -2.617)" fill="#8698a5"/>
    <path id="Path_369" data-name="Path 369" d="M170.334,81.319a7.585,7.585,0,0,0-2.983-2.968,8.767,8.767,0,0,0-4.313-1.051,8,8,0,0,0-3.107.587,5.968,5.968,0,0,0-2.365,1.762V77.486h-3.679V99.993h3.865V91.985a6.665,6.665,0,0,0,5.287,2.226,8.767,8.767,0,0,0,4.313-1.051,7.555,7.555,0,0,0,2.983-2.983,9.6,9.6,0,0,0,0-8.858m-4.22,8.162A4.672,4.672,0,0,1,162.6,90.9a4.974,4.974,0,0,1-2.5-.634,4.576,4.576,0,0,1-1.762-1.809,6.025,6.025,0,0,1,0-5.441,4.576,4.576,0,0,1,1.762-1.809,4.974,4.974,0,0,1,2.5-.634A4.672,4.672,0,0,1,166.113,82a5.774,5.774,0,0,1,0,7.482" transform="translate(-5.211 -2.617)" fill="#8698a5"/>
  </g>
</svg>
