<svg id="Group_403" data-name="Group 403" xmlns="http://www.w3.org/2000/svg" xmlns:xlink="http://www.w3.org/1999/xlink" width="199.45" height="50.506" viewBox="0 0 199.45 50.506">
  <defs>
    <clipPath id="clip-path">
      <rect id="Rectangle_1217" data-name="Rectangle 1217" width="199.45" height="50.506" transform="translate(0 0)" fill="#8698a5"/>
    </clipPath>
  </defs>
  <g id="Group_402" data-name="Group 402" transform="translate(0 0)" clip-path="url(#clip-path)">
    <path id="Path_308" data-name="Path 308" d="M131.379,55.714c-5.619,0-8.652-2.854-8.652-8.194V31.883h-1.954a3.564,3.564,0,0,1-2.484-1.062,3.421,3.421,0,0,1,2.484-5.829h1.954V20.338a4.06,4.06,0,0,1,8.084,0v4.655h3.154a3.446,3.446,0,0,1,0,6.89h-3.154v13.53c0,2.359,1.516,3.287,2.777,3.287h.694a3.272,3.272,0,0,1,3.539,3.416c0,1.925-1.2,3.6-6.442,3.6" transform="translate(-60.365 -8.574)" fill="#8698a5" fill-rule="evenodd"/>
    <path id="Path_309" data-name="Path 309" d="M181.274,63.757c-10.038,0-16.1-7.2-16.1-15.765,0-8.5,6.082-15.7,16.1-15.7,10.1,0,16.164,7.2,16.164,15.7,0,8.568-6.061,15.765-16.164,15.765m0-24.453c-4.991,0-7.768,4.033-7.768,8.688,0,4.718,2.777,8.767,7.768,8.767s7.829-4.033,7.829-8.767c0-4.655-2.842-8.688-7.829-8.688" transform="translate(-85.001 -16.617)" fill="#8698a5"/>
    <path id="Path_310" data-name="Path 310" d="M264.22,63.387h-.632a3.486,3.486,0,0,1-3.474-3.475c-2.08,2.419-5.676,3.846-9.657,3.846-4.865,0-10.61-3.228-10.61-9.931,0-7.014,5.745-9.68,10.61-9.68,4.054,0,7.638,1.3,9.657,3.662V43.772c0-3.041-2.652-5.026-6.689-5.026a12.2,12.2,0,0,0-6.819,1.925,2.944,2.944,0,0,1-4.484-2.606,3.19,3.19,0,0,1,.442-1.554c1.893-2.977,8.713-4.22,12.248-4.22,6.945,0,13.322,2.73,13.322,11.358V59.478a3.914,3.914,0,0,1-3.913,3.909m-4.107-11.3c-1.326-1.738-3.848-2.606-6.438-2.606-3.158,0-5.745,1.594-5.745,4.531,0,2.789,2.587,4.408,5.745,4.408,2.59,0,5.112-.869,6.438-2.606Z" transform="translate(-123.432 -16.618)" fill="#8698a5"/>
    <path id="Path_311" data-name="Path 311" d="M323.569,63.775c-3.977,0-10.354-1.3-12.248-3.985a2.668,2.668,0,0,1-.568-1.674,3.378,3.378,0,0,1,3.345-3.288,3.1,3.1,0,0,1,1.642.463,17.955,17.955,0,0,0,8.206,2.419c3.474,0,5.116-1.367,5.116-3.228,0-4.966-18.122-.932-18.122-12.725,0-5.025,4.484-9.433,12.5-9.433,3.977,0,9.406,1.244,11.113,3.663a2.675,2.675,0,0,1,.511,1.534,3.114,3.114,0,0,1-3.155,2.981,3.23,3.23,0,0,1-1.516-.37,14.146,14.146,0,0,0-6.892-1.8c-2.9,0-4.8,1.3-4.8,2.981,0,4.467,18.058.741,18.058,12.844,0,5.463-4.735,9.62-13.2,9.62" transform="translate(-159.922 -16.635)" fill="#8698a5" fill-rule="evenodd"/>
    <path id="Path_312" data-name="Path 312" d="M382.719,55.714c-5.619,0-8.652-2.854-8.652-8.194V31.883h-1.954a3.565,3.565,0,0,1-2.484-1.062,3.421,3.421,0,0,1,2.484-5.829h1.954V20.338a4.06,4.06,0,0,1,8.084,0v4.655h3.158a3.446,3.446,0,0,1,0,6.89h-3.158v13.53c0,2.359,1.516,3.287,2.777,3.287h.7a3.271,3.271,0,0,1,3.536,3.416c0,1.925-1.2,3.6-6.442,3.6" transform="translate(-189.712 -8.574)" fill="#8698a5" fill-rule="evenodd"/>
    <path id="Path_313" data-name="Path 313" d="M51.776,34.8a89.315,89.315,0,0,0-.433-9.939c-.244-2.232-1.006-5.085-3.418-5.667a1.7,1.7,0,0,0,.945-.032c2.806-1.466,2.591-5.077,1.6-7.687-1.3-3.423-4.4-5.846-7.468-7.456A38.1,38.1,0,0,0,6.563,5.312C3.786,7.026.583,10.361,1.99,14.087a7.557,7.557,0,0,0,1.659,2.471c.312.331,1.058,1.1,1.058,1.1a18.046,18.046,0,0,0-3.15,6.045C-.467,30.793-.13,35.348.425,41.047.77,44.57,1.937,49.814,6,50.4c3.313.458,6.892-.634,10.209-1.02a77.444,77.444,0,0,1,11.012-1c5.2.132,10.354,1.367,15.56,1.414,2.749.028,7.318.287,8.137-3.327a47.8,47.8,0,0,0,.811-10.537,9.433,9.433,0,0,0,.049-1.12m-5.943,5.95c-1.294,2.913-4.954,2.587-7.5,2.371-3.819-.323-7.578-1.243-11.417-1.359a41.593,41.593,0,0,0-10.071,1.267c-2.477.546-5.931,1.969-8.169.064-2.481-2.1-2.927-5.7-2.96-8.716a50.472,50.472,0,0,1,.811-8.146,23.129,23.129,0,0,1,1.456-4.842,8.678,8.678,0,0,1,2.27-3.539c-.669-.69-1.467-1.056-1.918-1.992C6.636,12.314,10.873,9.317,13.2,8.289,21.3,4.666,32.657,5.025,40.319,9.676c2.388,1.446,7.026,6.436,2.692,8.919,2.672,1.26,3.349,5.065,3.649,7.767a47.121,47.121,0,0,1-.405,13.015,5.885,5.885,0,0,1-.422,1.375" transform="translate(0 0)" fill="#8698a5"/>
  </g>
</svg>
